<?xml version="1.0" encoding="utf-8"?>
<!-- Generator: Adobe Illustrator 16.0.0, SVG Export Plug-In . SVG Version: 6.00 Build 0)  -->
<!DOCTYPE svg PUBLIC "-//W3C//DTD SVG 1.1//EN" "http://www.w3.org/Graphics/SVG/1.1/DTD/svg11.dtd">
<svg version="1.1" id="Layer_1" xmlns="http://www.w3.org/2000/svg" xmlns:xlink="http://www.w3.org/1999/xlink" x="0px" y="0px"
	 width="1416.359px" height="1043.326px" viewBox="0 0 1416.359 1043.326" enable-background="new 0 0 1416.359 1043.326"
	 xml:space="preserve">
<g opacity="0.25">
	<path fill="#808080" d="M1040.194,813.441c0,0-1.213,3.364-1.525,3.908c-0.312,0.545,1.282,1.926,3.112,0.914
		c1.829-1.012,8.665-4.369,13.786-7.918c5.12-3.545,22.916-13.236,30.191-25.479c0,0,41.486-53.916,43.046-57.033l-6.036-60.04
		l58.881-75.886c0,0,4.231-4.3-2.743-3.978l-24.034,3.899l-3.214,0.545l-79.229-97.507c0,0-3.511-2.218,2.021-4.326
		c5.526-2.11,36.008-13.979,36.008-13.979s5.711-1.853,1.38-3.371c-4.331-1.518-111.759-41.625-111.759-41.625
		s-4.549-2.567-7.235,2.054l-42.624,91.67c0,0,0.77,1.951,3.465,1.162c2.69-0.783,36.737-9.378,36.737-9.378
		s5.003-2.354,7.726,4.797c0,0,45.019,51.346,56.377,104.784c2.222,18.415,25.641,67.419,5.815,134.832
		c0,0-12.657,40.629-18.045,47.052L1040.194,813.441z"/>
	<path fill="#808080" d="M930.147,530.687c0.309-0.683,26.977-60.339,26.977-60.339s4.051-5.831-4.879-7.18l-133.91-14.403
		c0,0-5.23-0.109-4.851,3.226l5.975,108.894l0.178,3.874c0,0,1.06,3.128,4.771-0.22l41.401-28.915c0,0,2.583-3.115,8.664,0.655
		c0,0,61.806,28.343,90.076,70.939c3.822,7.057,49.311,61.203,46.876,174.9c0,0-1.305,30.573-2.891,35.587
		c0,0,0.432,4.391,0.736,6.137c0,0,2.094,5.018,5.109,1.879c0,0,12.422-11.158,21.477-41.391
		c1.379-9.409,23.379-83.805,4.112-150.99c-3.452-15.534-32.683-76.964-57-105.99c-5.223-4.699-4.419-7.029-16.518-3.112
		l-31.18,9.037C935.271,533.274,928.399,537.12,930.147,530.687z"/>
	<path fill="#808080" d="M811.622,577.685l-4.668-89.338c0,0-0.318-3.157-3.799-1.01c-3.478,2.145-123.152,76.236-123.152,76.236
		l-2.157,1.29c0,0-2.675,1.051,0.122,2.505l115.027,68.063l19.824,11.935c0,0,3.797,0.987,4.121-1.675
		c-0.761-3.006-1.34-28.906-1.34-28.906l62.658-3.313c0,0,35.839,22.671,43.915,31.292c0,0,3.55,3.009,1.927,8.377
		c0,0-3.232,3.856-2.533,7.922l27.561,49.909c0,0,5.741,6.085,0.132,17.455c0,0-3.724,15.251-5.191,20.349
		c0,0-1.619,1.924,2.209,7.172c3.827,5.246,32.244,44.27,32.649,45.703c0,0,7.144,10.518,8.425,16.014c0,0,1.016,3.523,1.805,5.867
		c0,0,2.313,2.142,5.951,3.298l4.301,0.854c0,0,4.161-90.143-0.471-98.128c0,0-1.071-12.674-4.078-28.351
		c-3.205-16.685-13.521-38.299-17.239-48.573c-3.322-4.963-18.109-44.659-58.664-77.03c0,0-40.076-29.353-50.427-31.917
		c0,0-2.807-1.718-5.463-0.141l-40.491,27.679l-8.816,6.099C813.759,577.321,812.839,578.159,811.622,577.685z"/>
</g>
<g>
	<path fill="#004590" d="M16.698,935.128l17.512-93.391h12.42l17.375,93.391H52.467l-3.325-20.564h-17.24l-3.664,20.564H16.698z
		 M33.667,903.433h13.37l-6.516-38.891h-0.339L33.667,903.433z"/>
	<path fill="#004590" d="M73.032,935.128V842.28h33.053v11.131H84.978v27.76h19.343v11.131H84.978v31.695h22.262v11.131H73.032z"/>
	<path fill="#004590" d="M123.731,935.128V842.28h9.977c7.964,0,14.038,2.342,18.225,7.024c4.184,4.684,6.277,10.917,6.277,18.698
		c0,8.824-3.213,15.453-9.638,19.887c4.978,3.529,9.207,12.919,12.692,28.166l4.275,19.072h-12.52l-3.592-16.018
		c-2.562-11.221-4.793-18.359-6.693-21.413c-1.9-3.055-4.254-4.423-7.059-4.106v41.537H123.731z M135.677,882.46h0.543
		c6.695,0,10.045-4.684,10.045-14.049c0-9.954-3.529-14.954-10.588-15V882.46z"/>
	<path fill="#004590" d="M196.015,936.35c-7.33,0-13.303-4.242-17.918-12.726c-4.615-8.484-6.924-20.124-6.924-34.92
		c0-13.981,2.184-25.418,6.551-34.309c4.365-8.892,10.462-13.337,18.291-13.337c7.602,0,13.652,4.435,18.154,13.303
		c4.502,8.869,6.754,20.316,6.754,34.343c0,14.932-2.375,26.605-7.127,35.021C209.046,932.142,203.117,936.35,196.015,936.35z
		 M195.878,852.189c-3.936,0-6.957,3.241-9.061,9.722c-2.104,6.481-3.156,15.412-3.156,26.793c0,11.788,1.086,20.82,3.258,27.099
		s5.249,9.416,9.23,9.416c3.801,0,6.799-3.206,8.994-9.62c2.193-6.412,3.291-15.378,3.291-26.895
		c0-11.697-1.109-20.707-3.326-27.029C202.892,855.352,199.815,852.189,195.878,852.189z"/>
	<path fill="#004590" d="M230.085,932.753v-12.354c3.574,3.395,7.035,5.091,10.385,5.091c2.488,0,4.615-0.875,6.38-2.627
		c1.765-1.751,2.647-3.861,2.647-6.332c0-2.126-0.499-4.705-1.494-7.737c-0.995-3.031-3.676-8.63-8.043-16.798
		c-4.366-8.167-7.205-14.354-8.518-18.563c-1.313-4.207-1.968-7.917-1.968-11.131c0-6.244,1.775-11.345,5.327-15.305
		c3.553-3.959,8.088-5.938,13.609-5.938c3.121,0,6.447,0.814,9.977,2.443v11.267c-3.258-1.9-6.041-2.851-8.348-2.851
		c-6.019,0-9.027,2.941-9.027,8.823c0,2.172,0.51,4.785,1.527,7.839c1.018,3.055,3.709,8.62,8.076,16.696
		c4.366,8.077,7.195,14.23,8.484,18.461c1.289,4.231,1.934,7.975,1.934,11.232c0,6.336-1.775,11.482-5.328,15.441
		c-3.552,3.96-8.155,5.938-13.811,5.938C237.823,936.35,233.886,935.15,230.085,932.753z"/>
	<path fill="#004590" d="M273.251,935.128V842.28h12.625c8.551,0,15.35,2.285,20.395,6.855s7.568,10.859,7.568,18.867
		c0,8.19-2.332,14.639-6.991,19.344c-4.661,4.706-11.04,7.059-19.14,7.059h-2.512v40.723H273.251z M285.196,883.274h2.104
		c9.728,0,14.593-5.316,14.593-15.949c0-9.547-5.566-14.186-16.697-13.914V883.274z"/>
	<path fill="#004590" d="M314.245,935.128l17.512-93.391h12.42l17.375,93.391h-11.538l-3.325-20.564h-17.24l-3.664,20.564H314.245z
		 M331.214,903.433h13.37l-6.516-38.891h-0.339L331.214,903.433z"/>
	<path fill="#004590" d="M406.144,918.567v12.557c-4.48,3.484-9.209,5.226-14.186,5.226c-7.965,0-14.117-4.072-18.461-12.217
		s-6.516-19.772-6.516-34.886c0-15.112,2.183-26.922,6.55-35.429c4.366-8.506,10.599-12.76,18.698-12.76
		c3.891,0,8.167,1.606,12.828,4.819v12.08c-3.982-3.845-7.965-5.769-11.945-5.769c-4.797,0-8.27,2.812-10.419,8.434
		c-2.149,5.623-3.224,14.984-3.224,28.081c0,12.962,1.086,22.288,3.258,27.979s5.77,8.536,10.791,8.536
		C396.957,925.219,401.165,923.002,406.144,918.567z"/>
	<path fill="#004590" d="M416.866,935.128V842.28h33.054v11.131h-21.108v27.76h19.344v11.131h-19.344v31.695h22.262v11.131H416.866z
		"/>
	<path fill="#004590" d="M548.604,936.35l-3.461-8.145c-4.752,5.43-9.773,8.145-15.068,8.145c-5.701,0-10.576-2.636-14.625-7.907
		c-4.051-5.271-6.075-11.707-6.075-19.309c0-10.996,4.638-20.588,13.913-28.777c-3.438-7.602-5.158-14.004-5.158-19.208
		c0-5.43,1.686-10.09,5.057-13.981c3.371-3.891,7.387-5.837,12.047-5.837c4.435,0,8.189,1.663,11.268,4.988
		c3.076,3.326,4.615,7.41,4.615,12.251c0,7.873-4.548,15.792-13.643,23.755l9.027,21.272h0.276
		c1.478-5.894,2.472-10.947,2.981-15.164h10.52c-0.859,9.729-3.417,19.23-7.67,28.506l8.892,19.411H548.604z M540.257,917.264
		l-11.811-26.185c-2.558,3.084-4.396,5.805-5.516,8.162s-1.678,5.35-1.678,8.977c0,4.715,0.941,8.603,2.826,11.663
		c1.884,3.061,4.212,4.591,6.982,4.591C534.331,924.472,537.396,922.07,540.257,917.264z M532.723,872.415
		c2.759-2.715,4.796-5.045,6.108-6.99s1.969-4.276,1.969-6.991c0-2.262-0.543-4.129-1.629-5.6c-1.086-1.47-2.443-2.206-4.072-2.206
		c-1.721,0-3.168,0.814-4.344,2.443c-1.178,1.629-1.766,3.644-1.766,6.041C528.989,863.095,530.233,867.528,532.723,872.415z"/>
	<path fill="#004590" d="M617.562,935.128V842.28h13.167c21.22,0,31.831,15.43,31.831,46.288c0,15.43-2.637,27.047-7.906,34.852
		c-5.271,7.806-12.682,11.708-22.229,11.708H617.562z M629.507,923.997h1.765c7.058,0,12.048-2.703,14.966-8.11
		c2.918-5.406,4.377-14.332,4.377-26.775c0-12.985-1.381-22.183-4.141-27.59c-2.76-5.406-7.736-8.11-14.931-8.11h-2.036V923.997z"/>
	<path fill="#004590" d="M675.931,935.128V842.28h33.053v11.131h-21.107v27.76h19.344v11.131h-19.344v31.695h22.262v11.131H675.931z
		"/>
	<path fill="#004590" d="M726.493,935.128V842.28h28.914v11.131h-16.969v27.623h15.814v11.131h-15.814v42.963H726.493z"/>
	<path fill="#004590" d="M771.696,935.128V842.28h33.055v11.131h-21.109v27.76h19.344v11.131h-19.344v31.695h22.262v11.131H771.696z
		"/>
	<path fill="#004590" d="M822.397,935.128V842.28h9.705l20.564,57.407l0.271-0.124V842.28h10.996v92.848h-9.707l-20.564-57.813
		l-0.271-0.014v57.826H822.397z"/>
	<path fill="#004590" d="M915.786,918.567v12.557c-4.479,3.484-9.207,5.226-14.184,5.226c-7.965,0-14.117-4.072-18.461-12.217
		s-6.516-19.772-6.516-34.886c0-15.112,2.182-26.922,6.549-35.429c4.367-8.506,10.6-12.76,18.699-12.76
		c3.891,0,8.166,1.606,12.826,4.819v12.08c-3.98-3.845-7.963-5.769-11.945-5.769c-4.795,0-8.27,2.812-10.418,8.434
		c-2.148,5.623-3.223,14.984-3.223,28.081c0,12.962,1.086,22.288,3.258,27.979s5.768,8.536,10.791,8.536
		C906.601,925.219,910.81,923.002,915.786,918.567z"/>
	<path fill="#004590" d="M926.511,935.128V842.28h33.053v11.131h-21.107v27.76H957.8v11.131h-19.344v31.695h22.262v11.131H926.511z"
		/>
</g>
<path fill="#004590" d="M576.622,632.502c0,0-188.666-1.999-492.332,186.667H11.956l408.667-376.333L174.956,724.169
	c0,0,199.334-78.334,365-91.334C555.623,631.502,576.622,632.502,576.622,632.502z"/>
<path fill="#004590" d="M552.456,616.336c2.087-0.167,100.167-8,100.167-8l-87.667,53.166
	C564.956,661.502,617.79,612.502,552.456,616.336z"/>
<polygon fill="#004590" points="422.29,442.835 384.956,819.169 294.289,819.169 "/>
<linearGradient id="SVGID_1_" gradientUnits="userSpaceOnUse" x1="904.2598" y1="382.4688" x2="1216.4307" y2="304.6358" gradientTransform="matrix(0.9992 0.0387 -0.0387 0.9992 71.5343 50.644)">
	<stop  offset="0" style="stop-color:#C81E16"/>
	<stop  offset="0.6061" style="stop-color:#C81E16"/>
	<stop  offset="1" style="stop-color:#A31E16"/>
</linearGradient>
<path fill="url(#SVGID_1_)" d="M1036.49,811.871c0,0-2.241,6.167-2.78,7.147c-0.538,0.98,1.604,3.815,4.419,2.173
	c2.816-1.643,13.281-6.99,21.269-12.936c7.985-5.945,35.364-21.646,47.728-43.684c0,0,68.258-95.678,70.979-101.325l-0.33-114.099
	l96.789-134.601c0,0,6.795-7.492-3.448-7.89l-35.677,3.871l-4.775,0.565l-102.007-195.349c0,0-4.822-4.69,3.558-7.868
	c8.378-3.177,54.609-21.15,54.609-21.15s8.61-2.668,2.491-6.158c-6.119-3.49-157.451-94.672-157.451-94.672
	s-6.291-5.498-10.867,2.831L945.73,255.437c0,0,0.854,3.786,4.899,2.692c4.045-1.095,55.021-12.378,55.021-12.378
	s7.649-3.707,10.613,10.169c0,0,58.54,103.346,67.578,205.773c0.643,35.051,27.951,130.848-10.559,255.115
	c0,0-24.25,74.783-33.029,86.118L1036.49,811.871z"/>
<linearGradient id="SVGID_2_" gradientUnits="userSpaceOnUse" x1="702.166" y1="381.6221" x2="1029.6631" y2="381.6221" gradientTransform="matrix(0.9992 0.0387 -0.0387 0.9992 71.5343 50.644)">
	<stop  offset="0" style="stop-color:#01873C"/>
	<stop  offset="0.6061" style="stop-color:#01873C"/>
	<stop  offset="1" style="stop-color:#01663C"/>
</linearGradient>
<path fill="url(#SVGID_2_)" d="M931.698,264.65c0.546-1.25,47.959-109.891,47.959-109.891s6.743-10.413-6.118-14.248L779.862,93.972
	c0,0-7.634-0.963-7.546,5.378l-6.663,206.23l-0.284,7.328c0,0,1.1,6.046,6.995,0.271l64.596-48.534c0,0,4.217-5.508,12.579,2.489
	c0,0,86.314,62.391,121.612,146.822c4.591,13.855,63.424,122.549,43.781,336.615c0,0-6.23,57.469-9.257,66.692
	c0,0,0.009,8.341,0.213,11.684c0,0,2.346,9.765,7.201,4.282c0,0,19.733-19.25,37.237-74.947
	c3.35-17.55,46.027-154.666,27.363-284.153c-2.848-29.8-36.888-149.875-68.32-208.137c-6.967-9.611-5.467-13.889-23.697-8.258
	l-46.854,12.527C938.818,270.263,928.234,276.524,931.698,264.65z"/>
<linearGradient id="SVGID_3_" gradientUnits="userSpaceOnUse" x1="499.9629" y1="409.959" x2="963.0244" y2="409.959" gradientTransform="matrix(0.9992 0.0387 -0.0387 0.9992 71.5343 50.644)">
	<stop  offset="0" style="stop-color:#004590"/>
	<stop  offset="0.6061" style="stop-color:#004590"/>
	<stop  offset="1" style="stop-color:#003090"/>
</linearGradient>
<path fill="url(#SVGID_3_)" d="M758.23,329.228l5.809-169.152c0,0-0.018-6.005-5.409-2.461
	c-5.391,3.543-190.773,125.953-190.773,125.953l-3.334,2.123c0,0-4.065,1.593-0.184,4.746l158.5,145l27.287,25.374
	c0,0,5.411,2.414,6.262-2.557c-0.684-5.781,2.121-54.709,2.121-54.709l92.052,2.819c0,0,49.181,47.941,59.764,65.364
	c0,0,4.763,6.189,1.628,16.075c0,0-5.268,6.801-4.818,14.574l33.224,98.111c0,0,7.529,12.301-2.278,32.937
	c0,0-7.599,28.227-10.465,37.623c0,0-2.634,3.4,2.215,13.847c4.849,10.445,40.865,88.149,41.259,90.916
	c0,0,8.948,20.862,10.041,31.413c0,0,0.987,6.793,1.812,11.329c0,0,3.083,4.372,8.232,7.074l6.167,2.24
	c0,0,18.827-169.397,13.183-185.128c0,0,0.229-24.061-1.95-54.055c-2.321-31.927-14.344-74.173-18.324-94.093
	c-4.156-9.841-20.151-86.846-74.849-153.765c0,0-54.422-61.154-69.188-67.481c0,0-3.861-3.652-7.965-1.06l-63.093,46.341
	l-13.75,10.225C761.404,328.85,759.941,330.294,758.23,329.228z"/>
<g>
	<path fill="#004590" d="M424.907,689.94h65.123v24.354h-40.323v23.819h40.323v23.997h-40.323v59.058h-24.8V689.94z"/>
	<path fill="#004590" d="M523.073,689.94h26.465c14.494,0,24.816,1.294,30.965,3.881s11.094,6.885,14.836,12.891
		c3.743,6.008,5.615,13.114,5.615,21.321c0,8.624-2.067,15.835-6.2,21.634s-10.362,10.186-18.687,13.158l31.087,58.344h-27.308
		l-29.508-55.578h-2.287v55.578h-24.979V689.94z M548.052,741.236h7.827c7.944,0,13.413-1.044,16.407-3.132
		s4.492-5.549,4.492-10.384c0-2.862-0.742-5.354-2.224-7.473c-1.483-2.118-3.47-3.639-5.959-4.564s-7.055-1.389-13.695-1.389h-6.849
		V741.236z"/>
	<path fill="#004590" d="M634.712,689.94h24.801v131.229h-24.801V689.94z"/>
	<path fill="#004590" d="M817.36,713.003l-17.47,16.654c-11.885-12.561-25.255-18.842-40.11-18.842
		c-12.538,0-23.1,4.287-31.686,12.859c-8.587,8.572-12.88,19.14-12.88,31.701c0,8.751,1.901,16.521,5.704,23.308
		c3.802,6.787,9.18,12.115,16.133,15.984s14.678,5.804,23.175,5.804c7.248,0,13.874-1.353,19.876-4.063
		c6.001-2.709,12.597-7.635,19.788-14.778l16.935,17.671c-9.694,9.461-18.854,16.021-27.477,19.68
		c-8.624,3.658-18.467,5.488-29.529,5.488c-20.399,0-37.097-6.468-50.091-19.403c-12.996-12.936-19.493-29.514-19.493-49.734
		c0-13.084,2.958-24.712,8.877-34.882c5.917-10.17,14.392-18.347,25.425-24.532c11.031-6.185,22.912-9.278,35.64-9.278
		c10.823,0,21.246,2.286,31.268,6.858S810.104,704.572,817.36,713.003z"/>
	<path fill="#004590" d="M888.387,689.94h25.333l50.473,131.229h-25.961l-10.267-27.03h-53.548l-10.676,27.03h-25.96L888.387,689.94
		z M901.21,724.732l-17.606,45.052h35.108L901.21,724.732z"/>
</g>
<linearGradient id="SVGID_4_" gradientUnits="userSpaceOnUse" x1="15.415" y1="954.3145" x2="959.373" y2="954.3145">
	<stop  offset="0" style="stop-color:#FFFFFF;stop-opacity:0"/>
	<stop  offset="0.0601" style="stop-color:#F5D8D6;stop-opacity:0.1119"/>
	<stop  offset="0.1548" style="stop-color:#E8A09C;stop-opacity:0.288"/>
	<stop  offset="0.2464" style="stop-color:#DC716C;stop-opacity:0.4586"/>
	<stop  offset="0.3327" style="stop-color:#D44D47;stop-opacity:0.6191"/>
	<stop  offset="0.4124" style="stop-color:#CD332C;stop-opacity:0.7674"/>
	<stop  offset="0.4831" style="stop-color:#C9241C;stop-opacity:0.8989"/>
	<stop  offset="0.5374" style="stop-color:#C81E16"/>
	<stop  offset="1" style="stop-color:#C81E16"/>
</linearGradient>
<polygon fill="url(#SVGID_4_)" points="15.415,954.877 959.373,956.127 959.373,952.502 15.415,954.314 "/>
</svg>
