<?xml version="1.0" encoding="utf-8"?>
<!-- Generator: Adobe Illustrator 16.0.0, SVG Export Plug-In . SVG Version: 6.00 Build 0)  -->
<!DOCTYPE svg PUBLIC "-//W3C//DTD SVG 1.1//EN" "http://www.w3.org/Graphics/SVG/1.1/DTD/svg11.dtd">
<svg version="1.1" id="Layer_1" xmlns:sketch="http://www.bohemiancoding.com/sketch/ns"
	 xmlns="http://www.w3.org/2000/svg" xmlns:xlink="http://www.w3.org/1999/xlink" x="0px" y="0px" width="68px" height="68px"
	 viewBox="0 0 68 68" enable-background="new 0 0 68 68" xml:space="preserve">
<title>at event</title>
<desc>Created with Sketch.</desc>
<path fill="#004590" d="M34,67.5C15.528,67.5,0.5,52.473,0.5,34C0.5,15.528,15.528,0.5,34,0.5c18.473,0,33.5,15.028,33.5,33.5
	C67.5,52.473,52.473,67.5,34,67.5z M34,1.5C16.08,1.5,1.5,16.08,1.5,34c0,17.921,14.58,32.5,32.5,32.5
	c17.921,0,32.5-14.579,32.5-32.5C66.5,16.08,51.921,1.5,34,1.5z"/>
<path id="Fill-1" sketch:type="MSShapeGroup" fill="#004590" d="M42.619,22.43v-2.955c0-0.815-0.663-1.475-1.477-1.475
	c-0.814,0-1.478,0.66-1.478,1.475v2.955c0,0.815,0.664,1.475,1.478,1.475C41.957,23.905,42.619,23.245,42.619,22.43"/>
<g id="Clip-4">
</g>
<defs>
	<filter id="Adobe_OpacityMaskFilter" filterUnits="userSpaceOnUse" x="26.381" y="18" width="2.952" height="5.905">
		<feColorMatrix  type="matrix" values="1 0 0 0 0  0 1 0 0 0  0 0 1 0 0  0 0 0 1 0"/>
	</filter>
</defs>
<mask maskUnits="userSpaceOnUse" x="26.381" y="18" width="2.952" height="5.905" id="mask-2">
	<g filter="url(#Adobe_OpacityMaskFilter)">
		<path id="path-1" fill="#FFFFFF" d="M19,18h31v31H19V18z"/>
	</g>
</mask>
<path id="Fill-3" sketch:type="MSShapeGroup" mask="url(#mask-2)" fill="#004590" d="M28.226,23.905c0.611,0,1.107-0.493,1.107-1.11
	V19.11c0-0.612-0.494-1.11-1.107-1.11h-0.738c-0.611,0-1.107,0.493-1.107,1.11v3.683c0,0.614,0.495,1.112,1.107,1.112H28.226z"/>
<g id="Clip-7">
</g>
<defs>
	<filter id="Adobe_OpacityMaskFilter_1_" filterUnits="userSpaceOnUse" x="19" y="20.952" width="31" height="28.048">
		<feColorMatrix  type="matrix" values="1 0 0 0 0  0 1 0 0 0  0 0 1 0 0  0 0 0 1 0"/>
	</filter>
</defs>
<mask maskUnits="userSpaceOnUse" x="19" y="20.952" width="31" height="28.048" id="mask-4">
	<g filter="url(#Adobe_OpacityMaskFilter_1_)">
		<path id="path-3" fill="#FFFFFF" d="M19,18h31v31H19V18z"/>
	</g>
</mask>
<path id="Fill-6" sketch:type="MSShapeGroup" mask="url(#mask-4)" fill="#004590" d="M24.905,35.715h-4.429v-4.429h4.429V35.715z
	 M24.905,41.619h-4.429v-4.43h4.429V41.619z M24.905,47.523h-3.794c-0.351,0-0.635-0.246-0.635-0.553v-3.875h4.429V47.523z
	 M26.381,43.096h4.429v4.428h-4.429V43.096z M26.381,37.189h4.429v4.43h-4.429V37.189z M26.381,31.286h4.429v4.429h-4.429V31.286z
	 M32.286,43.096h4.429v4.428h-4.429V43.096z M32.286,31.286h4.429v4.429h-4.429V31.286z M38.189,43.096h4.43v4.428h-4.43V43.096z
	 M38.189,37.189h4.43v4.43h-4.43V37.189z M38.189,31.286h4.43v4.429h-4.43V31.286z M44.096,43.096h4.428v3.877
	c0,0.303-0.281,0.551-0.635,0.551h-3.793V43.096L44.096,43.096z M44.096,37.189h4.428v4.43h-4.428V37.189z M44.096,31.286h4.428
	v4.429h-4.428V31.286z M19.929,20.953c-0.514,0-0.929,0.429-0.929,0.956v26.133C19,48.572,19.415,49,19.927,49H49.07
	c0.515,0,0.93-0.43,0.93-0.958V21.909c0-0.528-0.416-0.957-0.93-0.957h-4.975v2.762c0,0.927-0.992,1.667-2.219,1.667h-1.475
	c-1.229,0-2.215-0.746-2.215-1.667v-2.761H30.81v2.762c0,0.927-0.992,1.667-2.216,1.667h-1.473c-1.228,0-2.216-0.746-2.216-1.667
	v-2.762H19.929z"/>
</svg>
