<?xml version="1.0" encoding="UTF-8" standalone="no"?>
<svg width="44px" height="43px" viewBox="0 0 44 43" version="1.1" xmlns="http://www.w3.org/2000/svg" xmlns:xlink="http://www.w3.org/1999/xlink" xmlns:sketch="http://www.bohemiancoding.com/sketch/ns">
    <!-- Generator: Sketch 3.4.4 (17249) - http://www.bohemiancoding.com/sketch -->
    <title>contact</title>
    <desc>Created with Sketch.</desc>
    <defs>
        <path id="path-1" d="M0,0.0445248227 L43.9096244,0.0445248227 L43.9096244,43 L0,43"></path>
    </defs>
    <g id="App" stroke="none" stroke-width="1" fill="none" fill-rule="evenodd" sketch:type="MSPage">
        <g id="02_AAD-home-3" sketch:type="MSArtboardGroup" transform="translate(-46.000000, -331.000000)">
            <g id="contact" sketch:type="MSLayerGroup" transform="translate(11.000000, 293.000000)">
                <g transform="translate(35.000000, 38.000000)">
                    <mask id="mask-2" sketch:name="Clip 2" fill="white">
                        <use xlink:href="#path-1"></use>
                    </mask>
                    <g id="Clip-2"></g>
                    <path d="M38.8534873,10.5474324 C38.8534873,9.40198558 37.9103793,8.47367352 36.7466516,8.47367352 C35.5828207,8.47367352 34.6395061,9.40198558 34.6395061,10.5474324 C34.6395061,11.6928792 35.5828207,12.6211913 36.7466516,12.6211913 C37.9103793,12.6211913 38.8534873,11.6927775 38.8534873,10.5474324 M32.5324638,10.5474324 C32.5324638,9.40198558 31.5891493,8.47367352 30.4255249,8.47367352 C29.2617972,8.47367352 28.3184826,9.40198558 28.3184826,10.5474324 C28.3184826,11.6928792 29.2617972,12.6211913 30.4255249,12.6211913 C31.5891493,12.6211913 32.5324638,11.6927775 32.5324638,10.5474324 M21.9971493,10.5474324 C21.9971493,11.6928792 22.9404638,12.6211913 24.1042948,12.6211913 C25.2681258,12.6211913 26.2113371,11.6928792 26.2113371,10.5474324 C26.2113371,9.40198558 25.2680225,8.47367352 24.1042948,8.47367352 C22.9405671,8.47367352 21.9971493,9.40198558 21.9971493,10.5474324 M43.9096657,10.5474324 C43.9096657,16.3484678 37.8724732,21.051021 30.4253183,21.051021 C29.6809333,21.051021 28.9553465,20.991553 28.2438066,20.9016901 C26.2176376,22.943021 23.1224545,23.9348674 19.6064826,24.1933757 C21.0462948,22.7762054 22.0764732,20.7198296 22.3996563,18.9744158 C19.0929427,17.0603567 16.9403512,14.0035955 16.9403512,10.5480423 C16.9403512,4.74710851 22.9776469,0.0444536643 30.4248019,0.0444536643 C37.8718535,0.0444536643 43.9096657,4.74639693 43.9096657,10.5474324 M12.6567549,30.5433473 C15.6157033,33.4561652 19.0431587,36.2405931 20.3973465,34.9070849 C22.3372714,32.9986168 23.5326047,31.3360518 27.8078347,34.7178035 C32.0829615,38.1006735 28.7995906,40.3549714 26.920708,42.2045813 C24.7526235,44.3386215 16.6705671,42.3167066 8.68208826,34.4551274 C0.694332394,26.5926333 -1.36075681,18.6385482 0.808773709,16.5038981 C2.68817277,14.6540849 4.97865164,11.4231889 8.41375023,15.6314962 C11.8502948,19.838482 10.161769,21.0156452 8.2220507,22.9241132 C6.86858592,24.2578248 9.696877,27.6302243 12.6567549,30.5433473" id="Fill-1" fill="#FFFFFF" sketch:type="MSShapeGroup" mask="url(#mask-2)"></path>
                </g>
            </g>
        </g>
    </g>
</svg>