<?xml version="1.0" encoding="utf-8"?>
<!-- Generator: Adobe Illustrator 16.0.0, SVG Export Plug-In . SVG Version: 6.00 Build 0)  -->
<!DOCTYPE svg PUBLIC "-//W3C//DTD SVG 1.1//EN" "http://www.w3.org/Graphics/SVG/1.1/DTD/svg11.dtd">
<svg version="1.1" id="Layer_1" xmlns:sketch="http://www.bohemiancoding.com/sketch/ns"
	 xmlns="http://www.w3.org/2000/svg" xmlns:xlink="http://www.w3.org/1999/xlink" x="0px" y="0px" width="68px" height="68px"
	 viewBox="0 0 68 68" enable-background="new 0 0 68 68" xml:space="preserve">
<title>discover sa</title>
<desc>Created with Sketch.</desc>
<g>
	<circle id="Oval-13-Copy-2_1_" sketch:type="MSShapeGroup" fill="#FFFFFF" fill-opacity="0.12" cx="34" cy="34.229" r="33">
	</circle>
	<path fill="#FFFFFF" d="M34,67.729c-18.472,0-33.5-15.027-33.5-33.5s15.028-33.5,33.5-33.5c18.473,0,33.5,15.028,33.5,33.5
		C67.5,52.7,52.473,67.729,34,67.729z M34,1.729c-17.92,0-32.5,14.58-32.5,32.5c0,17.921,14.58,32.5,32.5,32.5
		c17.921,0,32.5-14.578,32.5-32.5C66.5,16.308,51.921,1.729,34,1.729z"/>
</g>
<path fill="#FFFFFF" d="M37.69,52.229l-2.015-0.081c-1.349-0.059-2.529-0.893-3.01-2.127l-2.073-5.311
	c-0.653-1.679-0.683-3.534-0.081-5.233l0.3-0.855c0.288-0.813-0.017-1.729-0.747-2.228l-0.912-0.63
	c-0.414-0.284-0.679-0.728-0.722-1.216c-0.024-0.269,0.021-0.538,0.127-0.786c-0.024-0.187-0.106-0.361-0.24-0.508
	c-0.193-0.208-0.468-0.326-0.757-0.326l-4.738,0.585c-1.443,0.187-2.902-0.462-3.72-1.646l-1.437-2.081
	c-1.092-1.584-1.15-3.672-0.146-5.313l2.917-4.764c1.451-2.371,4.006-3.819,6.832-3.876l3.387-0.063
	c0.498,0,1.005,0.032,1.508,0.097c0.463,0.059,0.862,0.345,1.064,0.768c0.205,0.421,0.176,0.918-0.082,1.32
	c-0.066,0.1-0.081,0.214-0.047,0.322c0.037,0.114,0.122,0.207,0.24,0.257l0.93,0.394c0.199,0.085,0.455,0.007,0.566-0.171
	l0.303-0.496c0.488-0.797,1.547-1.155,2.433-0.821c2.677,1.024,4.986,2.897,6.502,5.276l2.612,4.104
	c0.285,0.45,1.104,0.889,1.647,0.889c0.852,0,1.649,0.368,2.193,1.007c0.553,0.641,0.777,1.489,0.618,2.318l-0.093,0.475
	c-0.253,1.307-0.987,2.467-2.07,3.271l-1.808,1.335c-0.924,0.68-1.382,1.789-1.196,2.898l0.244,1.479
	c0.275,1.671-0.49,3.33-1.95,4.226l-0.474,0.294c-0.46,0.28-0.751,0.739-0.802,1.257l-0.104,1.027c-0.103,1.041-0.594,2-1.387,2.696
	l-1.55,1.381C39.336,51.926,38.529,52.229,37.69,52.229z M38.102,41.979c0.261,0,0.535,0.096,0.756,0.269l2.325,1.846
	c0.333-0.483,0.765-0.896,1.279-1.215l0.479-0.294c0.587-0.362,0.896-1.023,0.784-1.681l-0.243-1.483
	c-0.341-2.037,0.496-4.076,2.18-5.322l1.809-1.335c0.574-0.423,0.966-1.04,1.099-1.73l0.09-0.469
	c0.017-0.083-0.006-0.165-0.063-0.232c-0.064-0.074-0.156-0.116-0.263-0.116c-1.411,0-3.042-0.886-3.785-2.06l-0.284-0.446
	l-2.478,4.325l0.189,0.306c0.162,0.261,0.226,0.57,0.175,0.872l-1.212,7.209c-0.081,0.502-0.478,0.916-0.987,1.021l-2.097,0.528
	L38.102,41.979L38.102,41.979z M32.613,41.875l2.713,0.051l0.004-1.058c0-0.587,0.421-1.104,1.001-1.225l2.255-0.477l0.99-5.905
	l-3.113-4.976c-0.135-0.212-0.202-0.468-0.188-0.729l0.089-1.476l-1.892-1.12l-0.115,4.529c-0.008,0.336-0.148,0.647-0.39,0.875
	l-2.947,2.797c0.062,0.288,0.088,0.583,0.074,0.879l0.416,0.285c1.661,1.141,2.354,3.248,1.69,5.123l-0.299,0.856
	C32.721,40.808,32.623,41.339,32.613,41.875z M27.563,30.416c0.728,0,1.437,0.225,2.028,0.631l2.248-2.134l0.102-4.087l-0.164-0.086
	l-3.155,1.866c-0.45,0.266-1.041,0.22-1.444-0.103l-5.328-4.261l-2.17,3.537c-0.488,0.799-0.459,1.815,0.072,2.591l1.436,2.078
	c0.255,0.368,0.68,0.586,1.137,0.586l4.783-0.588C27.26,30.427,27.412,30.416,27.563,30.416z M38.822,27.301l1.444,2.306
	l2.463-4.303l-0.797-1.25c-1.149-1.806-2.867-3.254-4.864-4.108l-0.071,0.114c-0.747,1.215-2.396,1.741-3.724,1.178l-0.928-0.394
	c-0.798-0.339-1.402-0.998-1.661-1.813c-0.076-0.243-0.12-0.495-0.131-0.746l-3.23,0.063c-1.567,0.031-3.034,0.691-4.062,1.8
	l4.822,3.855l3.016-1.783c0.195-0.116,0.418-0.178,0.645-0.178h0.227l0.879,0.418l0.025-0.034c0.376-0.509,1.132-0.66,1.672-0.341
	l3.77,2.228c0.407,0.241,0.641,0.681,0.616,1.149L38.822,27.301z"/>
</svg>
