<?xml version="1.0" encoding="utf-8"?>
<!-- Generator: Adobe Illustrator 16.0.0, SVG Export Plug-In . SVG Version: 6.00 Build 0)  -->
<!DOCTYPE svg PUBLIC "-//W3C//DTD SVG 1.1//EN" "http://www.w3.org/Graphics/SVG/1.1/DTD/svg11.dtd">
<svg version="1.1" id="Layer_1" xmlns:sketch="http://www.bohemiancoding.com/sketch/ns"
	 xmlns="http://www.w3.org/2000/svg" xmlns:xlink="http://www.w3.org/1999/xlink" x="0px" y="0px" width="68px" height="68px"
	 viewBox="0 0 68 68" enable-background="new 0 0 68 68" xml:space="preserve">
<title>discover sa</title>
<desc>Created with Sketch.</desc>
<g>
	<circle id="Oval-13-Copy-2_1_" sketch:type="MSShapeGroup" fill="#FFFFFF" fill-opacity="0.12" cx="34" cy="34.229" r="33">
	</circle>
	<path fill="#FFFFFF" d="M34,67.729c-18.472,0-33.5-15.027-33.5-33.5s15.028-33.5,33.5-33.5c18.473,0,33.5,15.028,33.5,33.5
		C67.5,52.7,52.473,67.729,34,67.729z M34,1.729c-17.92,0-32.5,14.58-32.5,32.5c0,17.921,14.58,32.5,32.5,32.5
		c17.921,0,32.5-14.578,32.5-32.5C66.5,16.308,51.921,1.729,34,1.729z"/>
</g>
<g>
	<g>
		<g>
			<path fill="#FFFFFF" d="M31.979,29.681H21.089c-0.437,0-0.822,0.29-0.943,0.71l-2.09,7.235l14.652,1.604l1.15-5.502
				C33.142,32.449,32.484,31.081,31.979,29.681z"/>
			<path fill="#FFFFFF" d="M45.664,40.647l4.4,0.48l-1.313-4.549c-0.177,0.26-0.353,0.513-0.525,0.756
				C47.336,38.587,46.448,39.71,45.664,40.647z"/>
			<path fill="#FFFFFF" d="M36.122,37.291l-0.473,2.261l2.379,0.26c-0.598-0.742-1.233-1.571-1.87-2.469
				C36.146,37.326,36.134,37.309,36.122,37.291z"/>
			<path fill="#FFFFFF" d="M15.238,47.386c-0.085,0.297-0.027,0.615,0.159,0.862c0.186,0.246,0.476,0.391,0.785,0.391h14.561
				l1.361-6.513l-14.876-1.627L15.238,47.386z"/>
			<path fill="#FFFFFF" d="M50.947,44.188l-15.902-1.74l-1.294,6.191h17.178h0.001c0.542,0,0.982-0.439,0.982-0.981
				c0-0.116-0.021-0.229-0.059-0.334L50.947,44.188z"/>
			<path fill="#FFFFFF" d="M41.784,41.896c0.104,0.111,0.251,0.175,0.404,0.175c0.154,0,0.301-0.063,0.406-0.175
				c0.894-0.952,2.66-2.921,4.431-5.413c2.229-3.139,4.887-7.741,4.887-11.843c0-5.361-4.362-9.722-9.724-9.722
				s-9.722,4.36-9.722,9.722c0,4.105,2.661,8.71,4.892,11.851C39.128,38.982,40.891,40.946,41.784,41.896z M42.188,18.575
				c3.273,0,5.937,2.665,5.937,5.938c0,3.272-2.663,5.937-5.937,5.937s-5.936-2.665-5.936-5.937
				C36.253,21.24,38.915,18.575,42.188,18.575z"/>
		</g>
	</g>
</g>
</svg>
