<?xml version="1.0" encoding="utf-8"?>
<!-- Generator: Adobe Illustrator 16.0.0, SVG Export Plug-In . SVG Version: 6.00 Build 0)  -->
<!DOCTYPE svg PUBLIC "-//W3C//DTD SVG 1.1//EN" "http://www.w3.org/Graphics/SVG/1.1/DTD/svg11.dtd">
<svg version="1.1" xmlns="http://www.w3.org/2000/svg" xmlns:xlink="http://www.w3.org/1999/xlink" x="0px" y="0px" width="4897px"
	 height="2775px" viewBox="0 0 4897 2775" enable-background="new 0 0 4897 2775" xml:space="preserve">
<g id="Layer_1">
	<path id="Line_1_" fill="none" stroke="#9B9B9B" stroke-width="8" stroke-linecap="square" stroke-dasharray="15,20" d="
		M3395,1290.5v187.003"/>
	<path id="Line-Copy-16" fill="none" stroke="#9B9B9B" stroke-width="8" stroke-linecap="square" stroke-dasharray="15,20" d="
		M4512,1290.5v187.003"/>
	
		<path id="Line-Copy-12" fill="none" stroke="#9B9B9B" stroke-width="8" stroke-linecap="square" stroke-dasharray="15,21,10,10" d="
		M3270,2370.508V401.059"/>
	
		<path id="Line-Copy-13" fill="none" stroke="#9B9B9B" stroke-width="8" stroke-linecap="square" stroke-dasharray="15,21,10,10" d="
		M3238,2370.508V401.059"/>
	<path id="Line" fill="none" stroke="#9B9B9B" stroke-width="8" stroke-linecap="square" stroke-dasharray="15,20" d="M329.5,2342
		h4385"/>
	<title>Hanger map</title>
	<desc>Created with Sketch.</desc>
	
		<path id="Line-Copy-14" fill="none" stroke="#9B9B9B" stroke-width="8" stroke-linecap="square" stroke-dasharray="15,21,10,10" d="
		M1812,2370.508V401.059"/>
	
		<path id="Line-Copy-15" fill="none" stroke="#9B9B9B" stroke-width="8" stroke-linecap="square" stroke-dasharray="15,21,10,10" d="
		M1780,2370.508V401.059"/>
	<rect id="Rectangle-85" x="306" y="377" fill="none" stroke="#3E3E3E" stroke-width="8" width="4430" height="22"/>
	<rect id="Rectangle-86" x="306" y="399" fill="none" stroke="#3E3E3E" stroke-width="8" width="23" height="309"/>
	<rect id="Rectangle-86-Copy-9" x="4713" y="399" fill="none" stroke="#3E3E3E" stroke-width="8" width="23" height="309"/>
	<rect id="Rectangle-86-Copy" x="307" y="755" fill="none" stroke="#3E3E3E" stroke-width="8" width="23" height="309"/>
	<rect id="Rectangle-86-Copy-10" x="4714" y="755" fill="none" stroke="#3E3E3E" stroke-width="8" width="23" height="443"/>
	<rect id="Rectangle-86-Copy-4" x="307" y="1576" fill="none" stroke="#3E3E3E" stroke-width="8" width="23" height="443"/>
	<rect id="Rectangle-86-Copy-11" x="4714" y="1409" fill="none" stroke="#3E3E3E" stroke-width="8" width="23" height="169"/>
	<rect id="Rectangle-86-Copy-5" x="307" y="2063" fill="none" stroke="#3E3E3E" stroke-width="8" width="23" height="309"/>
	<rect id="Rectangle-86-Copy-12" x="4716" y="2063" fill="none" stroke="#3E3E3E" stroke-width="8" width="23" height="309"/>
	<rect id="Rectangle-86-Copy-13" x="4714" y="1710" fill="none" stroke="#3E3E3E" stroke-width="8" width="23" height="309"/>
	<rect id="Rectangle-86-Copy-6" x="307.5" y="2372.5" fill="none" stroke="#3E3E3E" stroke-width="8" width="576" height="23"/>
	<rect id="Rectangle-86-Copy-7" x="1076" y="2373" fill="none" stroke="#3E3E3E" stroke-width="8" width="1351" height="23"/>
	<rect id="Rectangle-86-Copy-8" x="2657" y="2373" fill="none" stroke="#3E3E3E" stroke-width="8" width="2081.5" height="23"/>
	<rect id="Rectangle-86-Copy-2" x="307" y="1193" fill="none" stroke="#3E3E3E" stroke-width="8" width="23" height="169"/>
	<rect id="Rectangle-86-Copy-3" x="307" y="1410" fill="none" stroke="#3E3E3E" stroke-width="8" width="23" height="34"/>
	<rect id="Rectangle-86-Copy-14" x="4714" y="1328" fill="none" stroke="#3E3E3E" stroke-width="8" width="23" height="34"/>
	<rect id="Rectangle-101" x="3391" y="577" fill="none" stroke="#3E3E3E" stroke-width="8" width="1125" height="717"/>
	<rect id="Rectangle-101-Copy" x="3391" y="1477" fill="none" stroke="#3E3E3E" stroke-width="8" width="1125" height="717"/>
	<rect id="Rectangle-103" x="530" y="1477" fill="none" stroke="#3E3E3E" stroke-width="8" width="543" height="763"/>
	<rect id="Rectangle-103-Copy" x="1996" y="1477" fill="none" stroke="#3E3E3E" stroke-width="8" width="453" height="449"/>
	<path id="Fill-1" fill="#C81E16" d="M79.085,1305.487l57.788-55.345c4.317-4.131,4.317-10.826,0-14.955
		c-4.316-4.131-11.316-4.131-15.633,0l-65.041,62.291c-2.301,2.199-3.336,5.128-3.185,8.009c-0.151,2.882,0.884,5.808,3.185,8.01
		l65.041,62.29c4.317,4.13,11.316,4.13,15.633,0s4.317-10.825,0-14.955L79.085,1305.487z"/>
	<path id="N" fill="#C81E16" d="M146.867,1338.105v-64.642H159.6l26.526,43.168v-43.168h12.158v64.642h-13.13l-26.128-42.152v42.152
		H146.867z"/>
	<text transform="matrix(1 0 0 1 2390.0498 1700)" fill="#003690" font-family="'Arial-BoldMT'" font-size="45"> </text>
	<text transform="matrix(1 0 0 1 1059.293 1139)" fill="#003690" font-family="'Arial-BoldMT'" font-size="45"> </text>
	<text transform="matrix(1 0 0 1 2592.4805 1141)" fill="#003690" font-family="'Arial-BoldMT'" font-size="45"> </text>
	<path id="Fill-1_1_" fill="#C81E16" d="M309.053,1130.688l17.842-17.086c1.332-1.274,1.332-3.343,0-4.616
		c-1.332-1.275-3.493-1.275-4.826,0l-20.08,19.229c-0.71,0.68-1.03,1.583-0.983,2.473c-0.047,0.891,0.273,1.793,0.983,2.474
		l20.08,19.229c1.333,1.275,3.492,1.275,4.826,0c1.332-1.274,1.332-3.342,0-4.616L309.053,1130.688z"/>
	<path id="Fill-1_2_" fill="#C81E16" d="M308.053,1508.688l17.842-17.086c1.332-1.274,1.332-3.343,0-4.616
		c-1.332-1.275-3.493-1.275-4.826,0l-20.08,19.229c-0.71,0.68-1.03,1.583-0.983,2.473c-0.047,0.891,0.273,1.793,0.983,2.474
		l20.08,19.229c1.333,1.275,3.492,1.275,4.826,0c1.332-1.274,1.332-3.342,0-4.616L308.053,1508.688z"/>
	<path id="Fill-1_3_" fill="#C81E16" d="M4731.852,1644.312l-17.84,17.086c-1.334,1.274-1.334,3.343,0,4.616
		c1.332,1.275,3.492,1.275,4.826,0l20.078-19.229c0.711-0.68,1.031-1.583,0.984-2.473c0.047-0.891-0.273-1.793-0.984-2.474
		l-20.078-19.229c-1.334-1.275-3.494-1.275-4.826,0c-1.334,1.274-1.334,3.342,0,4.616L4731.852,1644.312z"/>
	<path id="Fill-1_4_" fill="#C81E16" d="M4731.852,1262.312l-17.84,17.086c-1.334,1.274-1.334,3.343,0,4.616
		c1.332,1.275,3.492,1.275,4.826,0l20.078-19.229c0.711-0.68,1.031-1.583,0.984-2.473c0.047-0.891-0.273-1.793-0.984-2.474
		l-20.078-19.229c-1.334-1.275-3.494-1.275-4.826,0c-1.334,1.274-1.334,3.342,0,4.616L4731.852,1262.312z"/>
	<rect id="Rectangle-118" x="417" y="487" fill="none" stroke="#3E3E3E" stroke-width="8" width="180" height="180"/>
	<rect id="Rectangle-118-Copy-14" x="2617" y="487" fill="none" stroke="#3E3E3E" stroke-width="8" width="180" height="180"/>
	<rect id="Rectangle-118-Copy-17" x="2623" y="838" fill="none" stroke="#3E3E3E" stroke-width="8" width="229" height="233"/>
	<rect id="Rectangle-118-Copy-19" x="2981" y="837" fill="none" stroke="#3E3E3E" stroke-width="8" width="229" height="233"/>
	<rect id="Rectangle-118-Copy-18" x="2623" y="1071" fill="none" stroke="#3E3E3E" stroke-width="8" width="229" height="233"/>
	<rect id="Rectangle-118-Copy-23" x="2995" y="1471" fill="none" stroke="#3E3E3E" stroke-width="8" width="218" height="227.924"/>
	
		<rect id="Rectangle-118-Copy-26" x="2995" y="1698.076" fill="none" stroke="#3E3E3E" stroke-width="8" width="218" height="227.924"/>
	<rect id="Rectangle-118-Copy-24" x="2777" y="1471" fill="none" stroke="#3E3E3E" stroke-width="8" width="218" height="227.924"/>
	
		<rect id="Rectangle-118-Copy-27" x="2777" y="1698.076" fill="none" stroke="#3E3E3E" stroke-width="8" width="218" height="227.924"/>
	<rect id="Rectangle-118-Copy-25" x="2559" y="1471" fill="none" stroke="#3E3E3E" stroke-width="8" width="218" height="227.924"/>
	
		<rect id="Rectangle-118-Copy-28" x="2559" y="1698.076" fill="none" stroke="#3E3E3E" stroke-width="8" width="218" height="227.924"/>
	
		<rect id="Rectangle-118-Copy-23_1_" x="1635" y="1472" fill="none" stroke="#3E3E3E" stroke-width="8" width="218" height="227.924"/>
	
		<rect id="Rectangle-118-Copy-26_1_" x="1635" y="1700" fill="none" stroke="#3E3E3E" stroke-width="8" width="218" height="227.924"/>
	
		<rect id="Rectangle-118-Copy-24_1_" x="1417" y="1472" fill="none" stroke="#3E3E3E" stroke-width="8" width="218" height="227.924"/>
	
		<rect id="Rectangle-118-Copy-27_1_" x="1417" y="1700" fill="none" stroke="#3E3E3E" stroke-width="8" width="218" height="227.924"/>
	
		<rect id="Rectangle-118-Copy-25_1_" x="1199" y="1472" fill="none" stroke="#3E3E3E" stroke-width="8" width="218" height="227.924"/>
	
		<rect id="Rectangle-118-Copy-28_1_" x="1199" y="1700" fill="none" stroke="#3E3E3E" stroke-width="8" width="218" height="227.924"/>
	<rect id="Rectangle-118-Copy-20" x="2981" y="1070" fill="none" stroke="#3E3E3E" stroke-width="8" width="229" height="233"/>
	<rect id="Rectangle-118-Copy-7" x="521" y="842" fill="none" stroke="#3E3E3E" stroke-width="8" width="278" height="233"/>
	<rect id="Rectangle-118-Copy-9" x="521" y="1075" fill="none" stroke="#3E3E3E" stroke-width="8" width="278" height="233"/>
	<rect id="Rectangle-118-Copy-8" x="798" y="842" fill="none" stroke="#3E3E3E" stroke-width="8" width="278" height="233"/>
	<rect id="Rectangle-118-Copy-11" x="1204" y="842" fill="none" stroke="#3E3E3E" stroke-width="8" width="453" height="233"/>
	<rect id="Rectangle-118-Copy-12" x="1204" y="1075" fill="none" stroke="#3E3E3E" stroke-width="8" width="453" height="233"/>
	<rect id="Rectangle-118-Copy-13" x="1795" y="1071" fill="none" stroke="#3E3E3E" stroke-width="8" width="453" height="233"/>
	<rect id="Rectangle-118-Copy-10" x="798" y="1075" fill="none" stroke="#3E3E3E" stroke-width="8" width="278" height="233"/>
	<rect id="Rectangle-118-Copy" x="597" y="487" fill="none" stroke="#3E3E3E" stroke-width="8" width="180" height="180"/>
	<rect id="Rectangle-118-Copy-15" x="2797" y="487" fill="none" stroke="#3E3E3E" stroke-width="8" width="233" height="180"/>
	<rect id="Rectangle-118-Copy-2" x="777" y="487" fill="none" stroke="#3E3E3E" stroke-width="8" width="180" height="180"/>
	<rect id="Rectangle-118-Copy-16" x="3030" y="487" fill="none" stroke="#3E3E3E" stroke-width="8" width="180" height="180"/>
	<rect id="Rectangle-118-Copy-3" x="957" y="487" fill="none" stroke="#3E3E3E" stroke-width="8" width="180" height="180"/>
	<rect id="Rectangle-118-Copy-4" x="1137" y="487" fill="none" stroke="#3E3E3E" stroke-width="8" width="180" height="180"/>
	<rect id="Rectangle-118-Copy-5" x="1317" y="487" fill="none" stroke="#3E3E3E" stroke-width="8" width="180" height="180"/>
	<rect id="Rectangle-118-Copy-6" x="1497" y="487" fill="none" stroke="#3E3E3E" stroke-width="8" width="180" height="180"/>
	<rect id="Rectangle-118_1_" x="1202" y="2065" fill="none" stroke="#3E3E3E" stroke-width="8" width="202.349" height="180"/>
	
		<rect id="Rectangle-118-Copy_1_" x="1404.479" y="2065" fill="none" stroke="#3E3E3E" stroke-width="8" width="202.35" height="180"/>
	
		<rect id="Rectangle-118-Copy-2_1_" x="1606.834" y="2065" fill="none" stroke="#3E3E3E" stroke-width="8" width="202.35" height="180"/>
	
		<rect id="Rectangle-118-Copy-3_1_" x="1809.189" y="2065" fill="none" stroke="#3E3E3E" stroke-width="8" width="202.349" height="180"/>
	
		<rect id="Rectangle-118-Copy-4_1_" x="2011.421" y="2065" fill="none" stroke="#3E3E3E" stroke-width="8" width="202.349" height="180"/>
	
		<rect id="Rectangle-118-Copy-5_1_" x="2213.65" y="2065" fill="none" stroke="#3E3E3E" stroke-width="8" width="202.35" height="180"/>
	<rect id="Rectangle-118-Copy-14_1_" x="2615" y="2060" fill="none" stroke="#3E3E3E" stroke-width="8" width="180" height="180"/>
	<rect id="Rectangle-118-Copy-15_1_" x="2796" y="2060" fill="none" stroke="#3E3E3E" stroke-width="8" width="233" height="180"/>
	<rect id="Rectangle-118-Copy-16_1_" x="3029" y="2060" fill="none" stroke="#3E3E3E" stroke-width="8" width="180" height="180"/>
	<rect id="Rectangle-111" x="1791" y="486" fill="none" stroke="#C81E16" stroke-width="10" width="676" height="450"/>
	<text transform="matrix(1 0 0 1 2290.7803 698)" fill="#003690" font-family="'Arial-BoldMT'" font-size="45"> </text>
	<rect id="Rectangle-116" x="2398" y="1070" fill="none" stroke="#F6A623" stroke-width="10" width="224" height="233"/>
</g>
<g id="Layer_2">
	<text transform="matrix(1 0 0 1 486.4004 624.3843)" fill="#003690" font-family="'Arial-BoldMT'" font-size="40">1E1</text>
	<text transform="matrix(1 0 0 1 617.4004 1032.3843)" fill="#003690" font-family="'Arial-BoldMT'" font-size="40">1CE1</text>
	<text transform="matrix(1 0 0 1 611.4004 1257.3843)" fill="#003690" font-family="'Arial-BoldMT'" font-size="40">1CE15</text>
	<text transform="matrix(1 0 0 1 871.4004 1259.3843)" fill="#003690" font-family="'Arial-BoldMT'" font-size="40">1CE14</text>
	<text transform="matrix(1 0 0 1 887.4004 1029.3843)" fill="#003690" font-family="'Arial-BoldMT'" font-size="40">1CE2</text>
	<text transform="matrix(1 0 0 1 1379.4004 1029.3843)" fill="#003690" font-family="'Arial-BoldMT'" font-size="40">1CE4</text>
	<text transform="matrix(1 0 0 1 1371.4004 1257.3843)" fill="#003690" font-family="'Arial-BoldMT'" font-size="40">1CE12</text>
	<text transform="matrix(1 0 0 1 768.4004 2190.3848)" fill="#003690" font-family="'Arial-BoldMT'" font-size="40">7W1</text>
	<text transform="matrix(1 0 0 1 1953.4004 1257.3843)" fill="#003690" font-family="'Arial-BoldMT'" font-size="40">1CE10</text>
	<text transform="matrix(1 0 0 1 1315.4004 1166.3843)" fill="#003690" font-family="'Arial-BoldMT'" font-size="45">AMPHENOL</text>
	<text transform="matrix(1 0 0 1 683.4004 1861.3848)" fill="#003690" font-family="'Arial-BoldMT'" font-size="45">ARMSCOR</text>
	<text transform="matrix(1 0 0 1 1911.4004 1153.3843)" fill="#003690" font-family="'Arial-BoldMT'" font-size="45">CARACAL</text>
	<text transform="matrix(1 0 0 1 2053.4004 1686.3848)" fill="#003690" font-family="'Arial-BoldMT'" font-size="45">PRESENTATION</text>
	<text transform="matrix(1 0 0 1 2119.4961 1736.3848)" fill="#003690" font-family="'Arial-BoldMT'" font-size="45">THEATRE</text>
	<text transform="matrix(1 0 0 1 809.9004 1125.3843)" fill="#003690" font-family="'Arial-BoldMT'" font-size="45">STURROCK</text>
	<text transform="matrix(1 0 0 1 814.8994 1175.3843)" fill="#003690" font-family="'Arial-BoldMT'" font-size="45">GRINDROD</text>
	<text transform="matrix(1 0 0 1 3902.9004 1837.3848)" fill="#003690" font-family="'Arial-BoldMT'" font-size="45">DOD</text>
	<text transform="matrix(1 0 0 1 3902.9004 940.3843)" fill="#003690" font-family="'Arial-BoldMT'" font-size="45">DOD</text>
	<text transform="matrix(1 0 0 1 652.4004 624.3843)" fill="#003690" font-family="'Arial-BoldMT'" font-size="40">1E2</text>
	<text transform="matrix(1 0 0 1 831.4004 624.3843)" fill="#003690" font-family="'Arial-BoldMT'" font-size="40">1E3</text>
	<text transform="matrix(1 0 0 1 1012.4004 624.3843)" fill="#003690" font-family="'Arial-BoldMT'" font-size="40">1E4</text>
	<text transform="matrix(1 0 0 1 1187.4004 624.3843)" fill="#003690" font-family="'Arial-BoldMT'" font-size="40">1E5</text>
	<text transform="matrix(1 0 0 1 1247.4004 1652.3848)" fill="#003690" font-family="'Arial-BoldMT'" font-size="40">1CW1</text>
	<text transform="matrix(1 0 0 1 1262.4004 2193.3848)" fill="#003690" font-family="'Arial-BoldMT'" font-size="40">1W1</text>
	<text transform="matrix(1 0 0 1 1463.4004 2193.3848)" fill="#003690" font-family="'Arial-BoldMT'" font-size="40">1W2</text>
	<text transform="matrix(1 0 0 1 1668.4004 2191.3848)" fill="#003690" font-family="'Arial-BoldMT'" font-size="40">1W3</text>
	<text transform="matrix(1 0 0 1 1860.4004 2190.3848)" fill="#003690" font-family="'Arial-BoldMT'" font-size="40">1W4</text>
	<text transform="matrix(1 0 0 1 2071.4004 2190.3848)" fill="#003690" font-family="'Arial-BoldMT'" font-size="40">1W5</text>
	<text transform="matrix(1 0 0 1 2276.4004 2190.3848)" fill="#003690" font-family="'Arial-BoldMT'" font-size="40">1W6</text>
	<text transform="matrix(1 0 0 1 2668.4004 2190.3848)" fill="#003690" font-family="'Arial-BoldMT'" font-size="40">1W7</text>
	<text transform="matrix(1 0 0 1 2872.4004 2190.3848)" fill="#003690" font-family="'Arial-BoldMT'" font-size="40">1W8</text>
	<text transform="matrix(1 0 0 1 3080.4004 2190.3848)" fill="#003690" font-family="'Arial-BoldMT'" font-size="40">1W9</text>
	<text transform="matrix(1 0 0 1 3895.4004 2112.3848)" fill="#003690" font-family="'Arial-BoldMT'" font-size="40">1CW19</text>
	<text transform="matrix(1 0 0 1 2609.4004 1655.3848)" fill="#003690" font-family="'Arial-BoldMT'" font-size="40">1CW6</text>
	<text transform="matrix(1 0 0 1 2603.4004 1878.3848)" fill="#003690" font-family="'Arial-BoldMT'" font-size="40">1CW11</text>
	<text transform="matrix(1 0 0 1 1238.4004 1876.3848)" fill="#003690" font-family="'Arial-BoldMT'" font-size="40">1CW16</text>
	<text transform="matrix(1 0 0 1 1475.4004 1652.3848)" fill="#003690" font-family="'Arial-BoldMT'" font-size="40">1CW2</text>
	<text transform="matrix(1 0 0 1 2832.4004 1655.3848)" fill="#003690" font-family="'Arial-BoldMT'" font-size="40">1CW7</text>
	<text transform="matrix(1 0 0 1 2820.4004 1878.3848)" fill="#003690" font-family="'Arial-BoldMT'" font-size="40">1CW10</text>
	<text transform="matrix(1 0 0 1 1463.4004 1877.3848)" fill="#003690" font-family="'Arial-BoldMT'" font-size="40">1CW15</text>
	<text transform="matrix(1 0 0 1 1693.4004 1652.3848)" fill="#003690" font-family="'Arial-BoldMT'" font-size="40">1CW3</text>
	<text transform="matrix(1 0 0 1 3052.4004 1655.3848)" fill="#003690" font-family="'Arial-BoldMT'" font-size="40">1CW8</text>
	<text transform="matrix(1 0 0 1 3054.4004 1878.3848)" fill="#003690" font-family="'Arial-BoldMT'" font-size="40">1CW9</text>
	<text transform="matrix(1 0 0 1 1677.4004 1876.3848)" fill="#003690" font-family="'Arial-BoldMT'" font-size="40">1CW14</text>
	<text transform="matrix(1 0 0 1 2662.4004 626.3843)" fill="#003690" font-family="'Arial-BoldMT'" font-size="40">1E11</text>
	<text transform="matrix(1 0 0 1 2683.4004 1030.3843)" fill="#003690" font-family="'Arial-BoldMT'" font-size="40">1CE5</text>
	<text transform="matrix(1 0 0 1 3043.4004 1030.3843)" fill="#003690" font-family="'Arial-BoldMT'" font-size="40">1CE6</text>
	<text transform="matrix(1 0 0 1 2683.4004 1249.3843)" fill="#003690" font-family="'Arial-BoldMT'" font-size="40">1CE8</text>
	<text transform="matrix(1 0 0 1 3043.4004 1249.3843)" fill="#003690" font-family="'Arial-BoldMT'" font-size="40">1CE7</text>
	<text transform="matrix(1 0 0 1 1370.4004 624.3843)" fill="#003690" font-family="'Arial-BoldMT'" font-size="40">1E6</text>
	<text transform="matrix(1 0 0 1 2865.4004 626.3843)" fill="#003690" font-family="'Arial-BoldMT'" font-size="40">1E12</text>
	<text transform="matrix(1 0 0 1 1549.4004 624.3843)" fill="#003690" font-family="'Arial-BoldMT'" font-size="40">1E7</text>
	<text transform="matrix(1 0 0 1 3071.4004 626.3843)" fill="#003690" font-family="'Arial-BoldMT'" font-size="40">1E13</text>
	<text transform="matrix(1 0 0 1 2082.4004 864.3843)" fill="#003690" font-family="'Arial-BoldMT'" font-size="40">1E10</text>
	<text transform="matrix(1 0 0 1 1950.9004 684.3843)" fill="#003690" font-family="'Arial-BoldMT'" font-size="45">AFRICAN UNITY</text>
	<text transform="matrix(1 0 0 1 2020.7207 734.3843)" fill="#003690" font-family="'Arial-BoldMT'" font-size="45">PAVILION</text>
	<text transform="matrix(1 0 0 1 2456.4004 1244.3843)" fill="#003690" font-family="'Arial-BoldMT'" font-size="40">1CE9</text>
	<text transform="matrix(1 0 0 1 2425.4004 1127.3843)" fill="#003690" font-family="'Arial-BoldMT'" font-size="45">MONCH</text>
	<text transform="matrix(1 0 0 1 2427.8833 1177.3843)" fill="#003690" font-family="'Arial-BoldMT'" font-size="45">GROUP</text>
</g>
</svg>
