<?xml version="1.0" encoding="UTF-8" standalone="no"?>
<svg width="4897px" height="3276px" viewBox="0 0 4897 3276" version="1.1" xmlns="http://www.w3.org/2000/svg" xmlns:xlink="http://www.w3.org/1999/xlink">
    <!-- Generator: Sketch 3.6 (26304) - http://www.bohemiancoding.com/sketch -->
    <title>AFB aerial view</title>
    <desc>Created with Sketch.</desc>
    <defs>
        <path id="path-1" d="M0,0.0161013216 L49,0.0161013216 L49,43 L0,43"></path>
        <path id="path-3" d="M0,0 L61,0 L61,61 L0,61"></path>
        <path id="path-5" d="M0,0.0161013216 L49,0.0161013216 L49,43 L0,43"></path>
        <path id="path-7" d="M0,0.0161013216 L49,0.0161013216 L49,43 L0,43"></path>
        <path id="path-9" d="M0,0.011095815 L33.5263158,0.011095815 L33.5263158,29.6323529 L0,29.6323529"></path>
    </defs>
    <g id="Page-1" stroke="none" stroke-width="1" fill="none" fill-rule="evenodd">
        <g id="AFB-aerial-view">
            <path d="M629.414633,1265.08506 C629.414633,1265.08506 626.421637,1296.03456 667.653647,1296.03456 C708.885657,1296.03456 1014.84146,1293.52219 1014.84146,1293.52219 C1014.84146,1293.52219 1065.95547,1301.94773 1065.95546,1240.46383 C1065.95546,1178.97992 1092.60116,475.232058 1092.60116,475.232058 L1475.90886,325.538445 L1621.07292,288.683056 L2692.51537,137.147037 L3064.15693,90.001851 L3498.59319,53.175591 C3498.59319,53.175591 3656.95264,41.0215409 3696.96854,55.2000522 C3736.98445,69.3785634 4043.90136,120.164892 4030.13077,592.250284 C4030.13069,592.250289 4030.86628,654.127431 4030.86628,654.127431 C4030.86628,654.127431 4017.66368,736.74439 4045.85312,756.107844 C4074.04256,775.471297 4170.99843,777.983665 4234.18627,777.983676 C4297.3741,777.983687 4361.04279,720.789006 4361.04279,720.789006 C4361.04279,720.789006 4474.84964,685.30997 4507.90362,720.708902 C4507.90364,720.708907 4507.90362,5.5351963 4507.90362,5.5351963" id="Path-7" stroke="#3E3E3E" stroke-width="10"></path>
            <rect id="Rectangle-1" stroke="#004590" stroke-width="16" x="1863" y="479" width="523" height="240"></rect>
            <rect id="Rectangle-1-Copy" stroke="#004590" stroke-width="16" x="1863" y="925" width="523" height="240"></rect>
            <rect id="Rectangle-1-Copy-2" stroke="#004590" stroke-width="16" x="1861" y="1394" width="494" height="240"></rect>
            <rect id="Rectangle-1-Copy-3" stroke="#004590" stroke-width="16" x="2743" y="1399" width="494" height="240"></rect>
            <rect id="Rectangle-1-Copy-4" stroke="#004590" stroke-width="16" x="2840" y="884" width="389" height="240"></rect>
            <rect id="Rectangle-1-Copy-6" stroke="#004590" stroke-width="16" x="3704" y="1204" width="407" height="240"></rect>
            <rect id="Rectangle-1-Copy-7" stroke="#004590" stroke-width="16" x="3704" y="1594" width="405" height="240"></rect>
            <rect id="Rectangle-1-Copy-5" stroke="#004590" stroke-width="16" x="2841" y="502" width="389" height="240"></rect>
            <path d="M2823.42628,2895.81256 L4842.87416,2884.85219 L4842.87416,3153.38781 L2823.42628,3161.46456 L2823.42628,2895.81256 Z" id="Rectangle-9" stroke="#3E3E3E" stroke-width="10" transform="translate(3833.150217, 3023.158374) rotate(7.000000) translate(-3833.150217, -3023.158374) "></path>
            <rect id="Rectangle-10" stroke="#01873C" stroke-width="10" x="1233" y="2542" width="752" height="494"></rect>
            <path d="M3484.41406,102.15625 L3484.41406,482.2579 L2740.89324,482.2579 L2740.89324,437.242115 L2211.23367,437.242115 L2211.23367,245.0701 L3034.97656,133.171875 L3484.41406,102.15625 Z" id="Path-1" stroke="#3E3E3E" stroke-width="10"></path>
            <path d="M3732.83138,266.109375 L3936.60687,468.993175 L3732.03523,677.107703 L3672.61033,647.5306 L3562.79688,645.667601 L3562.79688,438.706282 L3732.83138,266.109375 Z" id="Path-2" fill="#E90530"></path>
            <rect id="Rectangle-11" fill="#E90530" x="3614" y="653" width="62" height="164"></rect>
            <rect id="Rectangle-12" fill="#FF8A00" x="3238" y="502" width="88" height="240"></rect>
            <rect id="Rectangle-12-Copy" fill="#16A8C8" x="2666" y="502" width="168" height="217"></rect>
            <rect id="Rectangle-14" fill="#01873C" x="1893" y="1165" width="493" height="77"></rect>
            <rect id="Rectangle-15" fill="#464646" x="2414" y="622" width="209" height="220"></rect>
            <rect id="Rectangle-16" stroke="#3E3E3E" stroke-width="10" x="2423" y="468" width="191" height="110"></rect>
            <rect id="Rectangle-17" stroke="#3E3E3E" stroke-width="10" x="1557" y="476" width="138" height="270"></rect>
            <rect id="Rectangle-18" stroke="#3E3E3E" stroke-width="10" x="2414" y="1180" width="25" height="23"></rect>
            <rect id="Rectangle-18-Copy" stroke="#3E3E3E" stroke-width="10" x="3248" y="1142" width="25" height="23"></rect>
            <rect id="Rectangle-19" fill="#004590" x="2414" y="925" width="67" height="94"></rect>
            <rect id="Rectangle-20" stroke="#3E3E3E" stroke-width="10" x="2701" y="876" width="113" height="32"></rect>
            <rect id="Rectangle-21" stroke="#3E3E3E" stroke-width="10" x="2701" y="914" width="39" height="55"></rect>
            <rect id="Rectangle-21-Copy" stroke="#3E3E3E" stroke-width="10" x="2775" y="914" width="39" height="55"></rect>
            <path d="M3016.57812,1155.46094 L2940.44785,1155.46094 L2940.44785,1214.84313 L2855.625,1262.70312 L3018.23213,1262.70312 L3016.57812,1155.46094 Z" id="Path-3" stroke="#3E3E3E" stroke-width="10"></path>
            <rect id="Rectangle-24" fill="#7ED321" x="3036" y="1155" width="193" height="108"></rect>
            <g id="Group" transform="translate(3091.000000, 1191.000000)">
                <g id="Page-1">
                    <path d="M16.7644887,13.3590581 C16.4419691,12.4996264 15.5704965,12.0141242 14.684477,12.0141242 C14.2421371,12.0141242 14.2013676,12.0254899 13.9379926,12.0254899 L6.7725082,12.0254899 L6.02564102,12.0254899 C5.01386758,12.0254899 4.26853164,12.4996264 3.94601211,13.3590581 L0.120183984,24.8737762 C-0.244253516,25.8453489 0.248234766,26.9283048 1.2201957,27.292763 C2.19234805,27.6570317 3.27570742,27.1647101 3.64052773,26.1933269 L4.65766055,23.4828115 C4.65766055,23.4828115 4.73020352,23.2096573 4.73020352,24.4028599 L4.73020352,40.3848423 C4.73020352,41.7820581 5.86351992,42.9144546 7.26155117,42.9144546 C8.65958242,42.9144546 9.79289883,41.7820581 9.79289883,40.3848423 L9.79289883,29.9437982 C9.79289883,29.9437982 9.78064883,29.8513577 9.87884023,29.8513577 L10.8293637,29.8513577 C10.9231527,29.8513577 10.9179848,29.9437982 10.9179848,29.9437982 L10.9179848,40.3848423 C10.9179848,41.7820581 12.0511098,42.9144546 13.4493324,42.9144546 C14.8473637,42.9144546 15.9806801,41.7820581 15.9806801,40.3848423 L15.9806801,24.4028599 C15.9806801,23.1903357 16.0869105,23.5724106 16.0869105,23.5724106 L17.0705473,26.1935163 C17.4347934,27.165089 18.518727,27.6572211 19.4906879,27.2929524 C20.4626488,26.9283048 20.9555199,25.8455383 20.5906996,24.8741551 L16.7644887,13.3590581 Z" id="Fill-1" fill="#FFFFFF"></path>
                    <path d="M10.4055711,0.101381498 C13.4072039,0.101381498 15.8405516,2.48475595 15.8405516,5.42485727 C15.8405516,8.36495859 13.4072039,10.748333 10.4055711,10.748333 C7.40393828,10.748333 4.97059063,8.36495859 4.97059063,5.42485727 C4.97059063,2.48475595 7.40393828,0.101381498 10.4055711,0.101381498" id="Fill-3" fill="#FFFFFF"></path>
                    <path d="M38.1340586,0.0161770925 C41.1356914,0.0161770925 43.5690391,2.42436652 43.5690391,5.39496564 C43.5690391,8.36556476 41.1356914,10.7737542 38.1340586,10.7737542 C35.1324258,10.7737542 32.6990781,8.36556476 32.6990781,5.39496564 C32.6990781,2.42436652 35.1324258,0.0161770925 38.1340586,0.0161770925" id="Fill-5" fill="#FFFFFF"></path>
                    <g id="Group-9">
                        <mask id="mask-2" fill="white">
                            <use xlink:href="#path-1"></use>
                        </mask>
                        <g id="Clip-8"></g>
                        <path d="M48.821016,24.6188828 L44.183434,13.4396405 C43.9183363,12.875526 43.6836723,12.119711 42.5939965,12.119711 L41.3314809,12.119711 L35.6562855,12.119711 L34.3639105,12.119711 C33.2769145,12.119711 32.7099691,12.8204026 32.398934,13.4517639 L27.5820043,24.546711 C27.1233949,25.4781251 27.5065902,26.6035128 28.4373988,27.0606009 C29.368973,27.5173101 30.4961645,27.1327727 30.9547738,26.2009797 L31.3172973,25.4654335 C31.3172973,25.4654335 31.4300355,25.2669137 31.3875434,25.4864599 C31.1253168,26.8527991 30.4016098,30.9626141 30.4016098,30.9626141 C30.2257074,31.8178784 30.8029887,32.5178123 31.6849887,32.5178123 L33.7826098,32.5178123 C33.9324809,32.5178123 33.9058754,32.6295744 33.9058754,32.6295744 L33.9058754,40.890689 C33.9058754,42.2744555 34.7765824,42.9999621 35.8509457,42.9999621 C36.925309,42.9999621 37.7963988,42.2744555 37.7963988,40.890689 L37.7963988,32.5966141 C37.7963988,32.5966141 37.7919965,32.5149709 37.8796605,32.5178123 C37.9927816,32.521222 38.2787426,32.5181912 38.4069848,32.5181912 C38.480102,32.5181912 38.4709145,32.6053278 38.4709145,32.6053278 L38.4709145,40.890689 C38.4709145,42.2744555 39.3420043,42.9999621 40.416559,42.9999621 C41.4907309,42.9999621 42.3618207,42.2744555 42.3618207,40.890689 L42.3618207,32.6517374 C42.3618207,32.6517374 42.3489965,32.5178123 42.5101605,32.5178123 L44.7664574,32.5178123 C45.648266,32.5178123 46.2400941,31.8152264 46.0808441,30.9567419 C46.0808441,30.9567419 45.3554145,26.5487683 45.1620941,25.3477991 C45.1065863,25.0034203 45.6844418,26.2256053 45.6844418,26.2256053 C46.1263988,27.1651648 46.9796879,27.5576581 47.9191098,27.1172396 C48.8592973,26.6772 49.262973,25.5588211 48.821016,24.6188828" id="Fill-7" fill="#FFFFFF" mask="url(#mask-2)"></path>
                    </g>
                    <path d="M25.4088926,41.9903335 C25.4088926,42.4987564 24.9887559,42.9145493 24.4748301,42.9145493 L24.0745996,42.9145493 C23.5608652,42.9145493 23.1407285,42.4987564 23.1407285,41.9903335 L23.1407285,1.50157137 C23.1407285,0.993337885 23.5608652,0.577355507 24.0745996,0.577355507 L24.4748301,0.577355507 C24.9885645,0.577355507 25.4088926,0.993337885 25.4088926,1.50157137 L25.4088926,41.9903335 Z" id="Fill-10" fill="#FFFFFF"></path>
                </g>
                <g id="wheelchair" transform="translate(58.000000, 2.000000)" fill="#FFFFFF">
                    <path d="M36.6443992,33.1866532 L30.1999242,22.082627 C29.9753033,21.6094358 29.638295,21.2337248 29.1892075,20.9554939 C28.7398117,20.6771101 28.2344533,20.5380711 27.6728242,20.5380711 L20.512245,20.5380711 L19.6700325,16.4471141 L25.2719867,16.4471141 C25.608995,16.4750747 25.9319742,16.4193062 26.2409242,16.2802672 C26.5495658,16.1410753 26.7882158,15.9183072 26.9565658,15.6122685 C27.181495,15.2226536 27.23052,14.8052308 27.1042575,14.3600002 C26.977995,13.9147696 26.7040408,13.5807703 26.2827033,13.358155 C26.0580825,13.2189632 25.8054033,13.1492908 25.5245117,13.1492908 L18.9537742,13.1492908 L18.5746783,11.2291767 C18.5746783,11.173561 18.5677408,11.1387249 18.5535575,11.124821 C18.5395283,11.1109171 18.5325908,11.0760809 18.5325908,11.0204653 L18.4905033,10.8951773 C18.2939408,10.2551393 17.9217825,9.72633247 17.3741825,9.3089097 C16.8267367,8.89148693 16.18787,8.68277555 15.4577367,8.68277555 C14.5592533,8.68277555 13.8010617,8.98193872 13.1833158,9.58026506 C12.56557,10.1785914 12.25662,10.8951773 12.25662,11.7300229 C12.25662,11.8692147 12.2706492,11.9805988 12.2988617,12.0640222 L12.25662,12.0640222 L14.5732825,23.1261839 C14.6855158,23.7663748 14.9944658,24.288306 15.4999783,24.6916721 C16.0053367,25.0951909 16.5950242,25.296874 17.2688867,25.296874 C17.4656033,25.296874 17.6199242,25.2829701 17.7323117,25.2551623 L27.2935742,25.2551623 L32.8534408,34.8564971 C33.0217908,35.2181514 33.2746242,35.5102863 33.6116325,35.7332071 C33.9486408,35.9558224 34.3417658,36.0672065 34.7911617,36.0672065 C35.3526367,36.0672065 35.8370283,35.872399 36.2441825,35.4826312 C36.6513367,35.0931691 36.8548367,34.6201307 36.8548367,34.0632105 C36.855145,33.7568662 36.784845,33.4648841 36.6443992,33.1866532 M26.0300242,26.7997182 C25.5528783,26.6883341 25.1246033,26.7580065 24.7455075,27.0084296 C24.3664117,27.2590055 24.1208242,27.6066031 24.0084367,28.0522921 C23.9241075,28.469562 23.797845,28.8732337 23.6293408,29.2626959 C23.2644283,30.2365805 22.7519783,31.1273472 22.0918367,31.9343849 C21.4321575,32.7414226 20.6738117,33.4372291 19.81757,34.0214988 C18.96102,34.606074 18.020295,35.0581801 16.995395,35.3784283 C15.970495,35.6982182 14.910445,35.8584951 13.8153992,35.8584951 C12.383345,35.8584951 11.0354658,35.5941681 9.77176167,35.0653613 C8.50821167,34.5365545 7.40607417,33.8268441 6.46550333,32.9363829 C5.52477833,32.0456162 4.78061583,30.9951837 4.23301583,29.7847799 C3.68541583,28.5742233 3.41177,27.2730622 3.41177,25.8814492 C3.41177,24.8516434 3.5731825,23.8568266 3.89616167,22.8966931 C4.21898667,21.9367124 4.67532,21.0459456 5.2650075,20.2251568 C5.854695,19.4040624 6.55661583,18.6806009 7.37107833,18.0543139 C8.1852325,17.4281798 9.09789917,16.9203052 10.10877,16.5306903 C10.5581658,16.3916512 10.8809908,16.1132675 11.0775533,15.6958447 C11.2741158,15.278422 11.288145,14.8609992 11.119795,14.4435764 C10.9511367,14.0261537 10.6492783,13.7269905 10.21422,13.5460869 C9.77885333,13.3651834 9.33654917,13.3442511 8.8873075,13.483443 C7.56764083,13.9842892 6.3602075,14.6522878 5.2650075,15.4871334 C4.1698075,16.3219789 3.2290825,17.2821124 2.44298667,18.3675338 C1.65673667,19.4528024 1.05302,20.6353984 0.631836667,21.9156273 C0.210499167,23.1957034 6.16666669e-05,24.5176441 6.16666669e-05,25.8812964 C6.16666669e-05,27.7182927 0.364974167,29.4365711 1.0951075,31.0367426 C1.82524083,32.6367614 2.81499083,34.0354027 4.06451167,35.2322081 C5.31418667,36.428708 6.77429917,37.3749376 8.44500333,38.0705913 C10.1158617,38.7663978 11.9058908,39.114301 13.8153992,39.114301 C15.2755117,39.114301 16.6795075,38.9054368 18.0273867,38.4881668 C19.3751117,38.0707441 20.6247867,37.4792933 21.7761033,36.7139673 C22.9272658,35.9486413 23.9382908,35.023344 24.8087158,33.9379225 C25.6789867,32.8525011 26.3530033,31.6558484 26.8304575,30.3479645 C27.02702,29.8746205 27.19537,29.3461193 27.3358158,28.7616969 C27.4483575,28.2885057 27.3779033,27.8710829 27.1252242,27.5094286 C26.872545,27.147927 26.5076325,26.9111022 26.0300242,26.7997182 M10.7194242,5.42666405 C10.5088325,4.95362566 10.4035367,4.43887555 10.4035367,3.88226093 C10.4035367,3.35345412 10.5088325,2.85245512 10.7194242,2.37941673 C10.93017,1.90622555 11.2109075,1.49583113 11.561945,1.14792789 C11.9129825,0.800024654 12.3270742,0.521793739 12.8043742,0.313082355 C13.2818283,0.104370971 13.8012158,1.52790179e-05 14.362845,1.52790179e-05 C14.8964158,1.52790179e-05 15.4017742,0.104370971 15.8792283,0.313082355 C16.3565283,0.521793739 16.7777117,0.800024654 17.1427783,1.14792789 C17.507845,1.49583113 17.7885825,1.90622555 17.985145,2.37941673 C18.1817075,2.85245512 18.2800658,3.35345412 18.2800658,3.88226093 C18.2800658,4.96752956 17.90097,5.89282689 17.1427783,6.65815289 C16.3845867,7.4234789 15.458045,7.80621829 14.362845,7.80621829 C13.8012158,7.80621829 13.2818283,7.7018626 12.8043742,7.49299843 C12.3270742,7.28428704 11.9129825,7.00605613 11.561945,6.65815289 C11.2109075,6.31040244 10.93017,5.89985523 10.7194242,5.42666405" id="Fill-1"></path>
                </g>
            </g>
            <rect id="Rectangle-24-Copy-2" fill="#7ED321" x="2012" y="2592" width="113" height="55"></rect>
            <rect id="Rectangle-24-Copy-3" fill="#7ED321" x="1091" y="2592" width="113" height="55"></rect>
            <rect id="Rectangle-24-Copy" fill="#7ED321" x="3606" y="1118" width="72" height="55"></rect>
            <rect id="Rectangle-26" fill="#BD0FE1" x="2766" y="1165" width="48" height="26"></rect>
            <rect id="Rectangle-26-Copy" fill="#BD10E0" transform="translate(3689.000000, 1913.000000) rotate(-270.000000) translate(-3689.000000, -1913.000000) " x="3665" y="1900" width="48" height="26"></rect>
            <rect id="Rectangle-27" stroke="#3E3E3E" stroke-width="10" x="3588" y="849" width="63" height="187"></rect>
            <rect id="Rectangle-28" stroke="#3E3E3E" stroke-width="10" x="4140" y="1305" width="167" height="89"></rect>
            <rect id="Rectangle-29" stroke="#3E3E3E" stroke-width="10" x="4312" y="1397" width="59" height="140"></rect>
            <rect id="Rectangle-31" fill="#004590" x="2386" y="1333" width="103" height="160"></rect>
            <rect id="Rectangle-31-Copy" fill="#004590" x="2387" y="1561" width="135" height="217"></rect>
            <rect id="Rectangle-31-Copy-2" fill="#004590" x="2245" y="1773" width="113" height="77"></rect>
            <rect id="Rectangle-31-Copy-3" fill="#004590" x="2600" y="1549" width="108" height="136"></rect>
            <rect id="Rectangle-31-Copy-5" fill="#004590" x="2600" y="1457" width="108" height="55"></rect>
            <rect id="Rectangle-31-Copy-6" fill="#004590" x="2624" y="1385" width="84" height="55"></rect>
            <rect id="Rectangle-31-Copy-4" fill="#004590" x="3266" y="1568" width="108" height="120"></rect>
            <rect id="Rectangle-31-Copy-7" fill="#004590" x="3266" y="1361" width="108" height="110"></rect>
            <rect id="Rectangle-31-Copy-11" fill="#004590" x="3266" y="1506" width="108" height="32"></rect>
            <rect id="Rectangle-31-Copy-8" fill="#004590" x="3591" y="1204" width="88" height="118"></rect>
            <rect id="Rectangle-31-Copy-9" fill="#004590" x="3600" y="1355" width="76" height="59"></rect>
            <rect id="Rectangle-31-Copy-12" fill="#004590" x="3627" y="1791" width="48" height="43"></rect>
            <rect id="Rectangle-31-Copy-10" fill="#004590" x="3600" y="1631" width="76" height="32"></rect>
            <rect id="Rectangle-42" stroke="#3E3E3E" stroke-width="10" x="4275" y="1973" width="88" height="187"></rect>
            <rect id="Rectangle-43" fill="#004590" x="3470" y="2272" width="34" height="34"></rect>
            <rect id="Rectangle-47" fill="#F6CB23" x="830" y="1385" width="403" height="164"></rect>
            <rect id="Rectangle-48" fill="#C81E16" transform="translate(177.881032, 1167.394296) rotate(4.000000) translate(-177.881032, -1167.394296) " x="131.703367" y="1069.68503" width="92.3553294" height="195.418523"></rect>
            <rect id="Rectangle-50" stroke="#3E3E3E" stroke-width="10" x="1752" y="941" width="80" height="55"></rect>
            <rect id="Rectangle-50-Copy-8" stroke="#3E3E3E" stroke-width="10" x="3595" y="1719" width="80" height="55"></rect>
            <rect id="Rectangle-50-Copy-13" stroke="#3E3E3E" stroke-width="9" x="2820" y="2068" width="62" height="32"></rect>
            <rect id="Rectangle-50-Copy-9" stroke="#3E3E3E" stroke-width="10" x="1752" y="1658" width="80" height="55"></rect>
            <rect id="Rectangle-50-Copy-11" fill="#004590" transform="translate(1803.000000, 1442.500000) rotate(-90.000000) translate(-1803.000000, -1442.500000) " x="1763" y="1415" width="80" height="55"></rect>
            <rect id="Rectangle-50-Copy" stroke="#3E3E3E" stroke-width="10" x="1752" y="1087" width="80" height="77"></rect>
            <rect id="Rectangle-50-Copy-10" stroke="#3E3E3E" stroke-width="10" x="1752" y="1552" width="80" height="77"></rect>
            <rect id="Rectangle-50-Copy-12" stroke="#3E3E3E" stroke-width="9" x="2809" y="2053" width="85" height="177"></rect>
            <rect id="Rectangle-50-Copy-5" stroke="#3E3E3E" stroke-width="10" x="3257" y="889" width="80" height="77"></rect>
            <rect id="Rectangle-50-Copy-6" stroke="#3E3E3E" stroke-width="10" x="4140" y="1600" width="80" height="77"></rect>
            <rect id="Rectangle-50-Copy-2" stroke="#3E3E3E" stroke-width="10" x="2415.5" y="1098" width="80" height="66"></rect>
            <rect id="Rectangle-50-Copy-4" stroke="#3E3E3E" stroke-width="10" x="3257" y="1058" width="80" height="66"></rect>
            <rect id="Rectangle-50-Copy-7" stroke="#3E3E3E" stroke-width="10" x="4140" y="1768" width="80" height="66"></rect>
            <rect id="Rectangle-50-Copy-3" stroke="#3E3E3E" stroke-width="10" x="2745" y="1030" width="67" height="94"></rect>
            <path d="M1546.4373,392.163608 L1534.93137,1306.19328 L1170.9779,1306.19328 C1170.9779,1306.19328 1096.62095,1295.82336 1096.62095,1243.41313 C1096.62096,1191.0029 1123.76184,545.818757 1123.76184,545.818757 L1546.4373,392.163608 Z" id="Path-4" stroke="#3E3E3E" stroke-width="10"></path>
            <path d="M1.82956228e-08,1979.69803 L1022.06544,1979.69802 C1022.06544,1979.69802 1295.69541,1971.27247 1295.6954,1632.83791 C1295.69539,1632.83791 1251.23008,1635.42282 1251.23008,1635.42282 L1251.23008,1665.14928 L319.620869,1665.14928 L295.7208,1968.58533 L1.82956228e-08,1968.58532 L1.82956228e-08,1979.69803 Z" id="Path-5" stroke="#3E3E3E" stroke-width="10"></path>
            <path d="M539.580984,1413.04685 L620.18076,1425.33063 C620.18076,1425.33063 632.160045,1643.87049 805.105824,1643.87049 C978.051602,1643.87049 1294.85066,1626.85919 1294.85066,1626.85919 L1294.36275,1367.24753 L539.580988,1362.7908 L524.186344,1206.77621 L344.846755,1239.01466 L473.232549,517.286962 L4.9557401,578.195572" id="Path-6" stroke="#3E3E3E" stroke-width="10"></path>
            <rect id="Rectangle-61" fill="#FF8A00" x="3704" y="1524" width="46" height="70"></rect>
            <rect id="Rectangle-61-Copy" fill="#FF8A00" x="3703" y="1445" width="46" height="70"></rect>
            <path d="M4358.85084,1977.60802 L4358.85084,2408.196 L2888.97549,2239.16404 L1665.0356,2239.16404 L1665.0356,1936.03064 L3604.10594,1936.03064 L3604.10594,1982.45505 L4358.85084,1977.60802 Z" id="Path-8" stroke="#3E3E3E" stroke-width="10"></path>
            <rect id="Rectangle-63" stroke="#3E3E3E" stroke-width="10" x="20" y="2072" width="1162" height="117"></rect>
            <rect id="Rectangle-65" stroke="#3E3E3E" stroke-width="8" transform="translate(3066.328784, 2646.600534) rotate(7.000000) translate(-3066.328784, -2646.600534) " x="2956.32878" y="2603.32592" width="220" height="86.5492228"></rect>
            <rect id="Rectangle-65-Copy" stroke="#3E3E3E" stroke-width="8" transform="translate(3056.671216, 2727.399466) rotate(7.000000) translate(-3056.671216, -2727.399466) " x="2946.67122" y="2684.12485" width="220" height="86.5492228"></rect>
            <rect id="Rectangle-65" stroke="#3E3E3E" stroke-width="8" transform="translate(3396.111494, 2687.357677) rotate(7.000000) translate(-3396.111494, -2687.357677) " x="3286.11149" y="2644.08307" width="220" height="86.5492228"></rect>
            <rect id="Rectangle-65-Copy" stroke="#3E3E3E" stroke-width="8" transform="translate(3386.453925, 2768.156609) rotate(7.000000) translate(-3386.453925, -2768.156609) " x="3276.45393" y="2724.882" width="220" height="86.5492228"></rect>
            <rect id="Rectangle-65" stroke="#3E3E3E" stroke-width="8" transform="translate(3729.111494, 2724.357677) rotate(7.000000) translate(-3729.111494, -2724.357677) " x="3619.11149" y="2681.08307" width="220" height="86.5492228"></rect>
            <rect id="Rectangle-65-Copy" stroke="#3E3E3E" stroke-width="8" transform="translate(3719.453925, 2806.156609) rotate(7.000000) translate(-3719.453925, -2806.156609) " x="3609.45393" y="2762.882" width="220" height="86.5492228"></rect>
            <rect id="Rectangle-65" stroke="#3E3E3E" stroke-width="8" transform="translate(4076.718367, 2764.357677) rotate(7.000000) translate(-4076.718367, -2764.357677) " x="3966.71837" y="2721.08307" width="220" height="86.5492228"></rect>
            <rect id="Rectangle-65-Copy" stroke="#3E3E3E" stroke-width="8" transform="translate(4067.060798, 2846.156609) rotate(7.000000) translate(-4067.060798, -2846.156609) " x="3957.0608" y="2802.882" width="220" height="86.5492228"></rect>
            <rect id="Rectangle-65" stroke="#3E3E3E" stroke-width="8" transform="translate(4432.805941, 2809.916359) rotate(7.000000) translate(-4432.805941, -2809.916359) " x="4310.01616" y="2766.64175" width="245.579561" height="86.5492228"></rect>
            <rect id="Rectangle-65-Copy" stroke="#3E3E3E" stroke-width="8" transform="translate(4422.148373, 2890.715291) rotate(7.000000) translate(-4422.148373, -2890.715291) " x="4299.35859" y="2847.44068" width="245.579561" height="86.5492228"></rect>
            <path d="M2208.36867,3271.62146 C2208.36867,3247.53092 2257.68307,2447.19742 2257.68307,2447.19742 L2.28894145,2451.55017" id="Path-9" stroke="#3E3E3E" stroke-width="10"></path>
            <path d="M2340.59585,3272.23325 L2383.43128,2519.64957 C2383.43128,2519.64957 2402.28649,2445.01102 2483.17334,2445.01102 C2564.06019,2445.01102 2880.66726,2447.68886 2880.66726,2447.68886 L4899.22791,2674.71363" id="Path-10" stroke="#3E3E3E" stroke-width="10"></path>
            <path d="M1025.26437,5.61811389 L1115.06732,340.40843 L1039.53616,437.462619 L6.27060035,581.26369" id="Path-11" stroke="#3E3E3E" stroke-width="10"></path>
            <rect id="Rectangle-75" stroke="#3E3E3E" stroke-width="10" x="1373" y="581" width="90" height="161"></rect>
            <rect id="Rectangle-76" stroke="#3E3E3E" stroke-width="10" x="1359" y="899" width="112" height="250"></rect>
            <rect id="Rectangle-77" stroke="#3E3E3E" stroke-width="10" x="1204" y="554" width="77" height="330"></rect>
            <g id="NORTH" transform="translate(105.000000, 716.000000)" fill="#C81E16">
                <g id="arrow">
                    <path d="M26.0848885,73.487035 L83.8731575,18.1427622 C88.1902466,14.0123778 88.1902466,7.31669363 83.8731575,3.1870288 C79.5565664,-0.942875889 72.5571132,-0.942875889 68.240024,3.1870288 L3.19898547,65.4781188 C0.898464138,67.6788318 -0.136969727,70.6060798 0.0144721278,73.487035 C-0.136969727,76.3687097 0.898464138,79.2952381 3.19898547,81.4966706 L68.240024,143.787041 C72.5571132,147.917426 79.5560683,147.917426 83.8731575,143.787041 C88.1902466,139.657376 88.1902466,132.961452 83.8731575,128.832267 L26.0848885,73.487035 Z" id="Fill-1"></path>
                </g>
                <path d="M93.8672481,106.106061 L93.8672481,41.4653172 L106.599806,41.4653172 L133.125969,84.6326349 L133.125969,41.4653172 L145.283794,41.4653172 L145.283794,106.106061 L132.153343,106.106061 L106.025073,63.9528883 L106.025073,106.106061 L93.8672481,106.106061 Z" id="N"></path>
            </g>
            <path d="M-23.4609368,1960.37499 L233.572796,1947.77785 L268.26574,1562.77373 L343.841407,1504.10672 L424.117278,1489.88533 L407.882953,1401.43694 L331.519545,1414.42578 L313.537152,1329.35049" id="Path-14" stroke="#3E3E3E" stroke-width="10"></path>
            <path d="M316.040469,1331.12364 L-7.49479417,1394.5" id="Path-15" stroke="#3E3E3E" stroke-width="10"></path>
            <path d="M332.499998,1415.5 L-2.50000001,1480.5" id="Path-15-Copy" stroke="#3E3E3E" stroke-width="10"></path>
            <path d="M738,538.389033 L952.008331,546.277068 L931,927 L715.418684,917.307582 L738,538.389033 Z" id="Rectangle-78" stroke="#3E3E3E" stroke-width="10"></path>
            <path d="M822.510956,1024.72361 L882.300715,1028.78325 L872.757992,1165.39784 L813.764745,1160.0792 L822.510956,1024.72361 Z" id="Path-17" stroke="#3E3E3E" stroke-width="10"></path>
            <path d="M724.164895,1032 L783.954655,1036.05964 L774.411932,1172.67423 L715.418684,1167.35559 L724.164895,1032 Z" id="Path-17-Copy" stroke="#3E3E3E" stroke-width="10"></path>
            <path d="M751.071572,927.549193 L804.972284,931.264534 L800.856118,983.279312 L747.011933,979.733551 L751.071572,927.549193 Z" id="Path-19" stroke="#3E3E3E" stroke-width="10"></path>
            <path d="M662.355595,917.199681 L654.693667,1036.49657 L464.753909,1024.31765 L477.559761,878.612547 L512.601133,880.041129 L510.771726,905.70422 L662.355595,917.199681 Z" id="Path-20" stroke="#3E3E3E" stroke-width="10"></path>
            <path d="M548.731928,1070.03741 L604.462047,1061.05996 L611.265798,1105.76224 L553.536691,1116.33786 L548.731928,1070.03741 Z" id="Path-21" stroke="#3E3E3E" stroke-width="10"></path>
            <path d="M470.771426,1113.41903 L529.076077,1104.32852 L537.251883,1158.79964 L477.862949,1168.29098 L470.771426,1113.41903 Z" id="Path-22" stroke="#3E3E3E" stroke-width="10"></path>
            <path d="M3676.87356,653.583291 L3676.87356,1035.49782 L4153.13612,1035.60242 C4153.13612,1035.60242 4217.16538,1040.29925 4246.08645,1074.70857 C4275.00753,1109.11788 4368.29703,1198.52245 4368.29703,1198.52245 C4368.29703,1198.52245 4402.35689,1238.64605 4402.35689,1299.01652 C4402.35689,1359.38699 4407.04346,1739.61591 4407.04346,1739.61591 C4407.04346,1739.61591 4409.43815,1822.85398 4495.8725,1843.7688 C4582.30685,1864.68362 4734.24016,1865.72166 4775.16544,1854.74524 C4816.09072,1843.76882 4888.57842,1821.35342 4888.57842,1821.35342" id="Path-23" stroke="#3E3E3E" stroke-width="10"></path>
            <path d="M714.917198,1684.576 L714.917198,1723.89895 L646.622673,1723.89895 L646.622673,1825.6844 L596.526622,1825.6844 L596.526622,1683.13457 L714.917198,1684.576 Z" id="Path-24" stroke="#3E3E3E" stroke-width="10"></path>
            <rect id="Rectangle-79" stroke="#3E3E3E" stroke-width="10" x="419" y="1693" width="38" height="38"></rect>
            <path d="M798.478679,1668.25395 L798.478679,1777.27298 L772.737041,1777.27298 L772.737041,1860.68337 L971.690629,1860.68337 L971.690629,1734.73579 L1094.28498,1734.73579 L1094.28498,1667.33231 L798.478679,1668.25395 Z" id="Path-25" stroke="#3E3E3E" stroke-width="10"></path>
            <text id="HANGER-1" font-family="ArialMT, Arial" font-size="60" font-weight="normal" letter-spacing="-1.19999945" fill="#003690">
                <tspan x="1973.5" y="620">HANGER 1</tspan>
            </text>
            <text id="HANGER-2" font-family="ArialMT, Arial" font-size="60" font-weight="normal" letter-spacing="-1.19999945" fill="#003690">
                <tspan x="1979" y="1067">HANGER 2</tspan>
            </text>
            <text id="HANGER-3" font-family="ArialMT, Arial" font-size="60" font-weight="normal" letter-spacing="-1.19999945" fill="#003690">
                <tspan x="1964" y="1535.51953">HANGER 3</tspan>
            </text>
            <text id="HANGER-4" font-family="ArialMT, Arial" font-size="60" font-weight="normal" letter-spacing="-1.19999945" fill="#003690">
                <tspan x="2840" y="1544">HANGER 4</tspan>
            </text>
            <text id="HANGER-5" font-family="ArialMT, Arial" font-size="60" font-weight="normal" letter-spacing="-1.19999945" fill="#003690">
                <tspan x="3758" y="1348">HANGER 5</tspan>
            </text>
            <text id="HANGER-6" font-family="ArialMT, Arial" font-size="60" font-weight="normal" letter-spacing="-1.19999945" fill="#003690">
                <tspan x="3750.11149" y="1735">HANGER 6</tspan>
            </text>
            <text id="HANGER-7" font-family="ArialMT, Arial" font-size="60" font-weight="normal" letter-spacing="-1.19999945" fill="#003690">
                <tspan x="2886" y="1026">HANGER 7</tspan>
            </text>
            <text id="HANGER-8" font-family="ArialMT, Arial" font-size="60" font-weight="normal" letter-spacing="-1.19999945" fill="#003690">
                <tspan x="2887" y="643">HANGER 8</tspan>
            </text>
            <text id="TRADE-PARKING" font-family="Arial-BoldMT, Arial" font-size="60" font-weight="bold" letter-spacing="-1.19999921" fill="#3E3E3E">
                <tspan x="267.021675" y="267.483887">TRADE PARKING</tspan>
            </text>
            <text id="EXHIBITOR-PARKING" font-family="Arial-BoldMT, Arial" font-size="60" font-weight="bold" letter-spacing="-1.19999933" fill="#3E3E3E">
                <tspan x="2645.44902" y="325">EXHIBITOR PARKING</tspan>
            </text>
            <text id="STATIC-DISPLAY-PARK" font-family="Arial-BoldMT, Arial" font-size="60" font-weight="bold" letter-spacing="-1.19999933" fill="#3E3E3E">
                <tspan x="1820.85605" y="2014">STATIC DISPLAY PARK</tspan>
            </text>
            <text id="MAIN-ENTRANCE" transform="translate(247.099943, 1385.423533) rotate(-11.000000) translate(-247.099943, -1385.423533) " font-family="Arial-BoldMT, Arial" font-size="60" font-weight="bold" letter-spacing="-1.19999933" fill="#3E3E3E">
                <tspan x="3.23978251" y="1404.92353">MAIN ENTRANCE</tspan>
            </text>
            <text id="FREIGHT-OFFICE" stroke="#FFFFFF" font-family="Arial-BoldMT, Arial" font-size="31" font-weight="bold" line-spacing="47" letter-spacing="-0.619999886" fill="#FFFFFF">
                <tspan x="905.678378" y="1478.81445">FREIGHT OFFICE</tspan>
            </text>
            <text id="VIP-&amp;" transform="translate(173.000000, 1168.500000) rotate(-85.000000) translate(-173.000000, -1168.500000) " font-family="Arial-BoldMT, Arial" font-size="31" font-weight="bold" line-spacing="30" letter-spacing="-0.619999886" fill="#FFFFFF">
                <tspan x="133.968496" y="1165">VIP &amp;</tspan>
                <tspan x="85" y="1196.01416">FUNCTIONS</tspan>
            </text>
            <text id="KIDDIES" font-family="Arial-BoldMT, Arial" font-size="31" font-weight="bold" line-spacing="41" letter-spacing="-0.619999886" fill="#FFFFFF">
                <tspan x="2691.29964" y="576">KIDDIES</tspan>
                <tspan x="2721.07478" y="618.01416">FUN</tspan>
                <tspan x="2710.4712" y="660.02832">PARK</tspan>
            </text>
            <text id="DOD" font-family="Arial-BoldMT, Arial" font-size="31" font-weight="bold" line-spacing="47" letter-spacing="-0.619999886" fill="#FFFFFF">
                <tspan x="2481.9864" y="744">DOD</tspan>
            </text>
            <text id="CATERING" font-family="Arial-BoldMT, Arial" font-size="31" font-weight="bold" letter-spacing="-0.619999886" fill="#FFFFFF">
                <tspan x="3653.18679" y="475.33872">CATERING</tspan>
                <tspan x="3696.9864" y="511.35288">BOH</tspan>
            </text>
            <text id="VOC-PARKING" transform="translate(3286.500000, 622.000000) rotate(-90.000000) translate(-3286.500000, -622.000000) " font-family="Arial-BoldMT, Arial" font-size="31" font-weight="bold" line-spacing="47" letter-spacing="-0.619999886" fill="#FFFFFF">
                <tspan x="3181.69003" y="625.5">VOC PARKING</tspan>
            </text>
            <text id="CONTRACTORS" transform="translate(3644.000000, 735.500000) rotate(-90.000000) translate(-3644.000000, -735.500000) " font-family="Arial-BoldMT, Arial" font-size="21" font-weight="bold" line-spacing="23" letter-spacing="-0.419999927" fill="#FFFFFF">
                <tspan x="3564.83759" y="730.5">CONTRACTORS</tspan>
                <tspan x="3621.29724" y="754.187012">BOH</tspan>
            </text>
            <text id="RCS/CANVAS" transform="translate(2455.000000, 1669.500000) rotate(-90.000000) translate(-2455.000000, -1669.500000) " font-family="Arial-BoldMT, Arial" font-size="17" font-weight="bold" line-spacing="23" letter-spacing="-0.339999914" fill="#FFFFFF">
                <tspan x="2401.13042" y="1660.5">RCS/CANVAS</tspan>
                <tspan x="2425.32786" y="1684.05615">&amp; TENT</tspan>
            </text>
            <text id="GERMAN" transform="translate(2439.000000, 1412.000000) rotate(-90.000000) translate(-2439.000000, -1412.000000) " font-family="Arial-BoldMT, Arial" font-size="17" font-weight="bold" line-spacing="23" letter-spacing="-0.339999914" fill="#FFFFFF">
                <tspan x="2402.24314" y="1403">GERMAN</tspan>
                <tspan x="2401.47914" y="1426.55615">PAVILION</tspan>
            </text>
            <text id="ELW" transform="translate(3636.000000, 1261.000000) rotate(-90.000000) translate(-3636.000000, -1261.000000) " font-family="Arial-BoldMT, Arial" font-size="17" font-weight="bold" line-spacing="23" letter-spacing="-0.339999914" fill="#FFFFFF">
                <tspan x="3618.09472" y="1252">ELW</tspan>
                <tspan x="3601.13572" y="1275.55615">GLOBAL</tspan>
            </text>
            <text id="DENEL" transform="translate(2655.000000, 1615.500000) rotate(-90.000000) translate(-2655.000000, -1615.500000) " font-family="Arial-BoldMT, Arial" font-size="17" font-weight="bold" line-spacing="23" letter-spacing="-0.339999914" fill="#FFFFFF">
                <tspan x="2627.04214" y="1618.5">DENEL</tspan>
            </text>
            <text id="ARMSCOR" transform="translate(2448.000000, 971.000000) rotate(-90.000000) translate(-2448.000000, -971.000000) " font-family="Arial-BoldMT, Arial" font-size="17" font-weight="bold" line-spacing="23" letter-spacing="-0.339999914" fill="#FFFFFF">
                <tspan x="2405.27472" y="974">ARMSCOR</tspan>
            </text>
            <text id="WAGTAIL" transform="translate(1803.000000, 1442.000000) rotate(-90.000000) translate(-1803.000000, -1442.000000) " font-family="Arial-BoldMT, Arial" font-size="17" font-weight="bold" line-spacing="23" letter-spacing="-0.339999914" fill="#FFFFFF">
                <tspan x="1765.63287" y="1445">WAGTAIL</tspan>
            </text>
            <text id="DENEL" font-family="Arial-BoldMT, Arial" font-size="17" font-weight="bold" line-spacing="23" letter-spacing="-0.339999914" fill="#FFFFFF">
                <tspan x="2624.04214" y="1487">DENEL</tspan>
            </text>
            <text id="GAC" font-family="Arial-BoldMT, Arial" font-size="17" font-weight="bold" line-spacing="23" letter-spacing="-0.339999914" fill="#FFFFFF">
                <tspan x="2770.62157" y="1183">GAC</tspan>
            </text>
            <text id="GAC-Copy" transform="translate(3691.500000, 1913.000000) rotate(-90.000000) translate(-3691.500000, -1913.000000) " font-family="Arial-BoldMT, Arial" font-size="17" font-weight="bold" line-spacing="23" letter-spacing="-0.339999914" fill="#FFFFFF">
                <tspan x="3673.12157" y="1916">GAC</tspan>
            </text>
            <text id="REUTECH" font-family="Arial-BoldMT, Arial" font-size="17" font-weight="bold" line-spacing="23" letter-spacing="-0.339999914" fill="#FFFFFF">
                <tspan x="2626.10528" y="1415">REUTECH</tspan>
            </text>
            <text id="SAFOMAR" font-family="Arial-BoldMT, Arial" font-size="17" font-weight="bold" line-spacing="23" letter-spacing="-0.339999914" fill="#FFFFFF">
                <tspan x="2260.22101" y="1817">SAFOMAR</tspan>
            </text>
            <text id="ICP/REVA" font-family="Arial-BoldMT, Arial" font-size="17" font-weight="bold" line-spacing="23" letter-spacing="-0.339999914" fill="#FFFFFF">
                <tspan x="3282.84413" y="1419">ICP/REVA</tspan>
            </text>
            <text id="TWIGA" font-family="Arial-BoldMT, Arial" font-size="17" font-weight="bold" line-spacing="23" letter-spacing="-0.339999914" fill="#FFFFFF">
                <tspan x="3611.02358" y="1652">TWIGA</tspan>
            </text>
            <text id="OTT" font-family="Arial-BoldMT, Arial" font-size="17" font-weight="bold" line-spacing="23" letter-spacing="-0.339999914" fill="#FFFFFF">
                <tspan x="3622.01415" y="1389">OTT</tspan>
            </text>
            <text id="BLUE" font-family="Arial-BoldMT, Arial" font-size="17" font-weight="bold" line-spacing="16" letter-spacing="-0.339999914" fill="#FFFFFF">
                <tspan x="3628" y="1809">BLUE</tspan>
                <tspan x="3630.83057" y="1825.55615">CHIP</tspan>
            </text>
            <text id="PARAMOUNT" transform="translate(3318.000000, 1629.000000) rotate(-90.000000) translate(-3318.000000, -1629.000000) " font-family="Arial-BoldMT, Arial" font-size="17" font-weight="bold" line-spacing="23" letter-spacing="-0.339999914" fill="#FFFFFF">
                <tspan x="3264.91501" y="1632">PARAMOUNT</tspan>
            </text>
            <text id="PARAMOUNT-Copy" font-family="Arial-BoldMT, Arial" font-size="17" font-weight="bold" line-spacing="23" letter-spacing="-0.339999914" fill="#FFFFFF">
                <tspan x="3266.91501" y="1526.5">PARAMOUNT</tspan>
            </text>
            <text id="THALES" font-family="Arial-BoldMT, Arial" font-size="17" font-weight="bold" line-spacing="23" letter-spacing="-0.339999914" fill="#004590">
                <tspan x="3454.52" y="2261">THALES</tspan>
            </text>
            <text id="SAAF" font-family="Arial-BoldMT, Arial" font-size="17" font-weight="bold" letter-spacing="-0.339999914" fill="#3E3E3E">
                <tspan x="2948.54157" y="1227">SAAF</tspan>
                <tspan x="2934.24314" y="1246.55615">MUSEUM</tspan>
            </text>
            <text id="CONTRACTOR" transform="translate(3620.000000, 945.000000) rotate(-90.000000) translate(-3620.000000, -945.000000) " font-family="Arial-BoldMT, Arial" font-size="17" font-weight="bold" letter-spacing="-0.339999914" fill="#3E3E3E">
                <tspan x="3561.41558" y="940">CONTRACTOR</tspan>
                <tspan x="3570.83314" y="959.556152">COMPOUND</tspan>
            </text>
            <text id="VIP-/-MOD" transform="translate(1630.500000, 614.000000) rotate(-90.000000) translate(-1630.500000, -614.000000) " font-family="Arial-BoldMT, Arial" font-size="31" font-weight="bold" line-spacing="47" letter-spacing="-0.619999886" fill="#3E3E3E">
                <tspan x="1559.50606" y="617.5">VIP / MOD</tspan>
            </text>
            <text id="YDP" font-family="Arial-BoldMT, Arial" font-size="31" font-weight="bold" line-spacing="47" letter-spacing="-0.619999886" fill="#3E3E3E">
                <tspan x="2485.05964" y="533">YDP</tspan>
            </text>
            <text id="LIFESTYLE" font-family="Arial-BoldMT, Arial" font-size="23" font-weight="bold" line-spacing="47" letter-spacing="-0.459999949" fill="#3E3E3E">
                <tspan x="4163.59466" y="1472.5">LIFESTYLE</tspan>
            </text>
            <text id="TRADE-VISITOR" transform="translate(4415.500000, 2090.500000) rotate(-90.000000) translate(-4415.500000, -2090.500000) " font-family="Arial-BoldMT, Arial" font-size="31" font-weight="bold" line-spacing="35" letter-spacing="-0.619999886" fill="#3E3E3E">
                <tspan x="4300.10886" y="2082">TRADE VISITOR</tspan>
                <tspan x="4303.2576" y="2118.01416">REGISTRATION</tspan>
            </text>
            <text id="VOC" transform="translate(3734.500000, 1479.500000) rotate(-90.000000) translate(-3734.500000, -1479.500000) " font-family="Arial-BoldMT, Arial" font-size="25" font-weight="bold" line-spacing="47" letter-spacing="-0.49999997" fill="#FFFFFF">
                <tspan x="3708.1626" y="1478.5">VOC</tspan>
            </text>
            <text id="VOC-Copy" transform="translate(3734.500000, 1560.500000) rotate(-90.000000) translate(-3734.500000, -1560.500000) " font-family="Arial-BoldMT, Arial" font-size="25" font-weight="bold" line-spacing="47" letter-spacing="-0.49999997" fill="#FFFFFF">
                <tspan x="3708.1626" y="1559.5">VOC</tspan>
            </text>
            <text id="PUBLIC-VIEWING-AREA" transform="translate(3821.142308, 3026.000000) rotate(7.000000) translate(-3821.142308, -3026.000000) " font-family="Arial-BoldMT, Arial" font-size="60" font-weight="bold" letter-spacing="-1.19999933" fill="#3E3E3E">
                <tspan x="3490.31086" y="3045.5">PUBLIC VIEWING AREA</tspan>
            </text>
            <text id="FOOD-COURT" font-family="Arial-BoldMT, Arial" font-size="60" font-weight="bold" line-spacing="70" letter-spacing="-1.19999945" fill="#3E3E3E">
                <tspan x="1407.34961" y="2849">FOOD COURT</tspan>
                <tspan x="1480.56426" y="2920.96289">(NORTH)</tspan>
            </text>
            <g id="Medical" transform="translate(1004.000000, 2680.000000)">
                <rect id="Rectangle-80" fill="#C81E16" x="32" y="10" width="17" height="66"></rect>
                <rect id="Rectangle-80-Copy" fill="#C81E16" transform="translate(41.000000, 41.500000) rotate(-270.000000) translate(-41.000000, -41.500000) " x="32.5" y="8.5" width="17" height="66"></rect>
                <rect id="Rectangle-82" stroke="#C81E16" x="0" y="0" width="82" height="82"></rect>
            </g>
            <g id="food-court" transform="translate(2108.000000, 1173.000000)">
                <path d="M30.5018586,4.77668125 C16.2943391,4.77668125 4.77868281,16.2923375 4.77868281,30.499857 C4.77868281,40.7368961 10.7740773,49.5494898 19.4303586,53.6896266 L20.2355109,38.1322438 C20.2355109,38.1322438 18.7209953,37.6354273 18.3895461,37.4733961 C15.1772766,36.0587203 12.8440266,31.8923727 12.8440266,26.4852945 C12.8440266,20.5852125 17.4197414,15.50315 21.8436711,15.4612125 L21.8529641,15.4612125 L21.8601125,15.4612125 C26.2852336,15.5029117 30.8611867,20.5849742 30.8611867,26.4852945 C30.8611867,31.8923727 28.5246008,36.0568141 25.3192414,37.4733961 C25.2939836,37.4845953 23.4585031,38.151068 23.4585031,38.151068 L24.3575383,55.448857 C26.3307453,55.9344742 28.3821086,56.2194586 30.5054328,56.2194586 C33.3686203,56.2194586 36.1105227,55.7316969 38.6832453,54.8698336 L39.4802961,39.4542281 C37.3803234,38.9924391 35.5896398,37.6556813 34.4670969,35.9786578 C33.0764875,33.8956031 35.5374562,15.4595445 35.5374562,15.4595445 L37.138468,15.4595445 L37.138468,32.7599547 L38.7280422,32.7599547 L38.7280422,15.4612125 L40.4667805,15.4612125 L40.4667805,32.7637672 L42.0492062,32.7637672 L42.0492062,15.4612125 L43.8529953,15.4612125 L43.8529953,32.7637672 L45.4409016,32.7637672 L45.4409016,15.4612125 L46.669718,15.4612125 C46.669718,15.4612125 49.1306867,33.8972711 47.7381711,35.9805641 C46.6268273,37.6409078 44.8528234,38.9738531 42.7788234,39.4466031 C42.7418898,39.4597086 42.7082922,39.4728141 42.7082922,39.4728141 L43.4007375,52.7326891 C51.0629094,48.2780211 56.2269406,40.0015602 56.2269406,30.5000953 C56.2231281,16.2925758 44.7074719,4.77668125 30.5018586,4.77668125" id="Fill-1" fill="#FFFFFF"></path>
                <path d="M16.6089418,23.8698957 C16.7011566,23.494841 16.8248246,23.1383723 16.8305434,23.1319387 C16.8705746,22.9913527 16.7962309,22.8479074 16.6434926,22.756884 C16.4983793,22.6784895 16.3213363,22.718759 16.2396059,22.8443332 C16.2396059,22.8443332 16.063516,23.124552 15.8085551,23.5386848 C15.6010121,23.8951535 15.2938676,24.464884 15.0844184,25.1742473 C14.902848,25.795923 14.6860121,26.6222824 14.5883168,27.5475285 C14.5463793,28.033384 14.5370863,28.4718215 14.5518598,28.9231262 C14.5883168,29.4378137 14.6662348,29.8781574 14.8153988,30.3816457 C15.3205551,31.8180051 15.7099066,33.2086145 17.1143363,34.5806379 C17.5582543,35.0367082 18.0143246,35.347427 18.3438676,35.5764152 L18.4601488,35.658384 C18.5309184,35.7048488 18.5990668,35.7477395 18.6657855,35.7868176 C18.9424301,35.9321691 19.1275746,35.9841145 19.1611723,35.9917395 C19.2988988,36.0289113 19.4404379,35.9619543 19.4988168,35.8502004 C19.5538598,35.732966 19.5138285,35.5857082 19.3994535,35.4927785 C19.3994535,35.4927785 19.2390902,35.3531457 19.0336918,35.092466 C18.8931059,34.9342473 18.7403676,34.705259 18.5626098,34.4464855 C18.4370355,34.2642004 18.2890629,34.0573723 18.1513363,33.8565012 C17.4672309,32.8121145 17.0726371,31.354548 16.526973,29.8614777 C16.420223,29.5374152 16.3325355,29.1175637 16.299891,28.7610949 C16.2562855,28.3498215 16.2357934,27.9533215 16.2357934,27.5856535 C16.2200668,26.731177 16.2579535,25.9977473 16.3325355,25.4029973 C16.4180785,24.7319973 16.4850355,24.2282707 16.6089418,23.8698957" id="Fill-3" fill="#FFFFFF"></path>
                <g id="Group-7">
                    <mask id="mask-4" fill="white">
                        <use xlink:href="#path-3"></use>
                    </mask>
                    <g id="Clip-6"></g>
                    <path d="M30.5018586,58.7251527 C14.9373273,58.7251527 2.27387031,46.0626488 2.27387031,30.4997855 C2.27387031,14.9352543 14.9373273,2.27203555 30.5018586,2.27203555 C46.0647219,2.27203555 58.7288937,14.9352543 58.7288937,30.4997855 C58.7288937,46.0626488 46.0647219,58.7251527 30.5018586,58.7251527 M30.5018586,2.3828125e-05 C13.6853977,2.3828125e-05 -4.765625e-05,13.6826098 -4.765625e-05,30.4997855 C-4.765625e-05,47.3136254 13.6853977,61.0000238 30.5018586,61.0000238 C47.3173664,61.0000238 60.9999523,47.3136254 60.9999523,30.4997855 C60.9999523,13.6826098 47.3173664,2.3828125e-05 30.5018586,2.3828125e-05" id="Fill-5" fill="#FFFFFF" mask="url(#mask-4)"></path>
                </g>
            </g>
            <g id="food-court-copy" transform="translate(1553.000000, 2644.000000)" fill="#01873C">
                <path d="M56.503443,8.84860625 C30.1845953,8.84860625 8.85231406,30.1808875 8.85231406,56.4997352 C8.85231406,75.4634305 19.9585367,91.7883992 35.993943,99.4578328 L37.4854547,70.6384187 C37.4854547,70.6384187 34.6798766,69.7180867 34.0658805,69.4179305 C28.1152828,66.7973016 23.7930328,59.0793133 23.7930328,49.0629227 C23.7930328,38.1332625 32.269357,28.71895 40.4645055,28.6412625 L40.4817203,28.6412625 L40.4949625,28.6412625 C48.692318,28.7185086 57.1690836,38.1328211 57.1690836,49.0629227 C57.1690836,59.0793133 52.8406539,66.7937703 46.902857,69.4179305 C46.856068,69.4386766 43.4559156,70.6732898 43.4559156,70.6732898 L45.1213414,102.716735 C48.7766266,103.616321 52.576693,104.144243 56.5100641,104.144243 C61.8140016,104.144243 66.8932633,103.240684 71.6591266,101.644118 L73.1356305,73.0873406 C69.2455172,72.2318953 65.9283492,69.7556062 63.8488844,66.6489891 C61.2728375,62.7902156 65.8316812,28.6381727 65.8316812,28.6381727 L68.7974898,28.6381727 L68.7974898,60.6864734 L71.7421109,60.6864734 L71.7421109,28.6412625 L74.9630523,28.6412625 L74.9630523,60.6935359 L77.8944312,60.6935359 L77.8944312,28.6412625 L81.2358766,28.6412625 L81.2358766,60.6935359 L84.1774078,60.6935359 L84.1774078,28.6412625 L86.4537398,28.6412625 C86.4537398,28.6412625 91.0125836,62.7933055 88.4330055,66.6525203 C86.3742867,69.7282391 83.0880172,72.1974656 79.2460172,73.0732156 C79.1775992,73.097493 79.1153609,73.1217703 79.1153609,73.1217703 L80.3980875,97.6851453 C94.5919469,89.4330555 104.158103,74.1012508 104.158103,56.5001766 C104.151041,30.1813289 82.8187594,8.84860625 56.503443,8.84860625" id="Fill-1"></path>
                <path d="M30.767384,44.2180035 C30.9382082,43.5232301 31.167298,42.8628863 31.1778918,42.8509684 C31.252048,42.5905387 31.1143293,42.3248121 30.8313879,42.1561949 C30.5625715,42.0109723 30.2346066,42.0855699 30.0832043,42.318191 C30.0832043,42.318191 29.7570051,42.8372848 29.2847004,43.6044488 C28.9002355,44.2647926 28.3312629,45.3201949 27.9432668,46.6342613 C27.6069152,47.7858902 27.2052355,49.3166871 27.024259,51.0306676 C26.9465715,51.9306949 26.9293566,52.7428824 26.9567238,53.5789059 C27.024259,54.5323434 27.1685988,55.3480621 27.4449191,56.2807535 C28.3807004,58.9415504 29.1019582,61.5175973 31.7036066,64.0592145 C32.5259465,64.904066 33.370798,65.4796598 33.9812629,65.9038512 L34.1966691,66.0556949 C34.3277668,66.1417691 34.454009,66.2212223 34.5776027,66.2936129 C35.0900754,66.5628707 35.433048,66.6590973 35.4952863,66.6732223 C35.7504191,66.7420816 36.0126145,66.6180465 36.120759,66.411027 C36.2227238,66.1938551 36.1485676,65.921066 35.9366926,65.7489176 C35.9366926,65.7489176 35.6396262,65.4902535 35.259134,65.0073551 C34.9987043,64.7142613 34.7157629,64.2900699 34.3864738,63.8107027 C34.1538527,63.473027 33.8797395,63.0898863 33.6246066,62.7177809 C32.3573293,60.7830973 31.6263605,58.0830152 30.6155402,55.3171637 C30.4177902,54.7168512 30.2553527,53.9390934 30.1948801,53.2787496 C30.1141027,52.5168824 30.0761418,51.7823824 30.0761418,51.1012926 C30.047009,49.5184098 30.1171926,48.1597613 30.2553527,47.0580113 C30.4138176,45.8150113 30.5378527,44.8818785 30.767384,44.2180035" id="Fill-3"></path>
                <path d="M56.503443,108.785939 C27.6707867,108.785939 4.21225156,85.3291691 4.21225156,56.4996027 C4.21225156,27.6669465 27.6707867,4.20885273 56.503443,4.20885273 C85.3330094,4.20885273 108.792869,27.6669465 108.792869,56.4996027 C108.792869,85.3291691 85.3330094,108.785939 56.503443,108.785939 M56.503443,4.4140625e-05 C25.3516383,4.4140625e-05 -8.828125e-05,25.3464738 -8.828125e-05,56.4996027 C-8.828125e-05,87.646552 25.3516383,113.000044 56.503443,113.000044 C87.653482,113.000044 112.999912,87.646552 112.999912,56.4996027 C112.999912,25.3464738 87.653482,4.4140625e-05 56.503443,4.4140625e-05" id="Fill-5"></path>
            </g>
            <g id="Page-1" transform="translate(2023.000000, 2598.000000)">
                <path d="M16.7644887,13.3590581 C16.4419691,12.4996264 15.5704965,12.0141242 14.684477,12.0141242 C14.2421371,12.0141242 14.2013676,12.0254899 13.9379926,12.0254899 L6.7725082,12.0254899 L6.02564102,12.0254899 C5.01386758,12.0254899 4.26853164,12.4996264 3.94601211,13.3590581 L0.120183984,24.8737762 C-0.244253516,25.8453489 0.248234766,26.9283048 1.2201957,27.292763 C2.19234805,27.6570317 3.27570742,27.1647101 3.64052773,26.1933269 L4.65766055,23.4828115 C4.65766055,23.4828115 4.73020352,23.2096573 4.73020352,24.4028599 L4.73020352,40.3848423 C4.73020352,41.7820581 5.86351992,42.9144546 7.26155117,42.9144546 C8.65958242,42.9144546 9.79289883,41.7820581 9.79289883,40.3848423 L9.79289883,29.9437982 C9.79289883,29.9437982 9.78064883,29.8513577 9.87884023,29.8513577 L10.8293637,29.8513577 C10.9231527,29.8513577 10.9179848,29.9437982 10.9179848,29.9437982 L10.9179848,40.3848423 C10.9179848,41.7820581 12.0511098,42.9144546 13.4493324,42.9144546 C14.8473637,42.9144546 15.9806801,41.7820581 15.9806801,40.3848423 L15.9806801,24.4028599 C15.9806801,23.1903357 16.0869105,23.5724106 16.0869105,23.5724106 L17.0705473,26.1935163 C17.4347934,27.165089 18.518727,27.6572211 19.4906879,27.2929524 C20.4626488,26.9283048 20.9555199,25.8455383 20.5906996,24.8741551 L16.7644887,13.3590581 Z" id="Fill-1" fill="#FFFFFF"></path>
                <path d="M10.4055711,0.101381498 C13.4072039,0.101381498 15.8405516,2.48475595 15.8405516,5.42485727 C15.8405516,8.36495859 13.4072039,10.748333 10.4055711,10.748333 C7.40393828,10.748333 4.97059063,8.36495859 4.97059063,5.42485727 C4.97059063,2.48475595 7.40393828,0.101381498 10.4055711,0.101381498" id="Fill-3" fill="#FFFFFF"></path>
                <path d="M38.1340586,0.0161770925 C41.1356914,0.0161770925 43.5690391,2.42436652 43.5690391,5.39496564 C43.5690391,8.36556476 41.1356914,10.7737542 38.1340586,10.7737542 C35.1324258,10.7737542 32.6990781,8.36556476 32.6990781,5.39496564 C32.6990781,2.42436652 35.1324258,0.0161770925 38.1340586,0.0161770925" id="Fill-5" fill="#FFFFFF"></path>
                <g id="Group-9">
                    <mask id="mask-6" fill="white">
                        <use xlink:href="#path-5"></use>
                    </mask>
                    <g id="Clip-8"></g>
                    <path d="M48.821016,24.6188828 L44.183434,13.4396405 C43.9183363,12.875526 43.6836723,12.119711 42.5939965,12.119711 L41.3314809,12.119711 L35.6562855,12.119711 L34.3639105,12.119711 C33.2769145,12.119711 32.7099691,12.8204026 32.398934,13.4517639 L27.5820043,24.546711 C27.1233949,25.4781251 27.5065902,26.6035128 28.4373988,27.0606009 C29.368973,27.5173101 30.4961645,27.1327727 30.9547738,26.2009797 L31.3172973,25.4654335 C31.3172973,25.4654335 31.4300355,25.2669137 31.3875434,25.4864599 C31.1253168,26.8527991 30.4016098,30.9626141 30.4016098,30.9626141 C30.2257074,31.8178784 30.8029887,32.5178123 31.6849887,32.5178123 L33.7826098,32.5178123 C33.9324809,32.5178123 33.9058754,32.6295744 33.9058754,32.6295744 L33.9058754,40.890689 C33.9058754,42.2744555 34.7765824,42.9999621 35.8509457,42.9999621 C36.925309,42.9999621 37.7963988,42.2744555 37.7963988,40.890689 L37.7963988,32.5966141 C37.7963988,32.5966141 37.7919965,32.5149709 37.8796605,32.5178123 C37.9927816,32.521222 38.2787426,32.5181912 38.4069848,32.5181912 C38.480102,32.5181912 38.4709145,32.6053278 38.4709145,32.6053278 L38.4709145,40.890689 C38.4709145,42.2744555 39.3420043,42.9999621 40.416559,42.9999621 C41.4907309,42.9999621 42.3618207,42.2744555 42.3618207,40.890689 L42.3618207,32.6517374 C42.3618207,32.6517374 42.3489965,32.5178123 42.5101605,32.5178123 L44.7664574,32.5178123 C45.648266,32.5178123 46.2400941,31.8152264 46.0808441,30.9567419 C46.0808441,30.9567419 45.3554145,26.5487683 45.1620941,25.3477991 C45.1065863,25.0034203 45.6844418,26.2256053 45.6844418,26.2256053 C46.1263988,27.1651648 46.9796879,27.5576581 47.9191098,27.1172396 C48.8592973,26.6772 49.262973,25.5588211 48.821016,24.6188828" id="Fill-7" fill="#FFFFFF" mask="url(#mask-6)"></path>
                </g>
                <path d="M25.4088926,41.9903335 C25.4088926,42.4987564 24.9887559,42.9145493 24.4748301,42.9145493 L24.0745996,42.9145493 C23.5608652,42.9145493 23.1407285,42.4987564 23.1407285,41.9903335 L23.1407285,1.50157137 C23.1407285,0.993337885 23.5608652,0.577355507 24.0745996,0.577355507 L24.4748301,0.577355507 C24.9885645,0.577355507 25.4088926,0.993337885 25.4088926,1.50157137 L25.4088926,41.9903335 Z" id="Fill-10" fill="#FFFFFF"></path>
            </g>
            <g id="Page-1-Copy-2" transform="translate(1100.000000, 2598.000000)">
                <path d="M16.7644887,13.3590581 C16.4419691,12.4996264 15.5704965,12.0141242 14.684477,12.0141242 C14.2421371,12.0141242 14.2013676,12.0254899 13.9379926,12.0254899 L6.7725082,12.0254899 L6.02564102,12.0254899 C5.01386758,12.0254899 4.26853164,12.4996264 3.94601211,13.3590581 L0.120183984,24.8737762 C-0.244253516,25.8453489 0.248234766,26.9283048 1.2201957,27.292763 C2.19234805,27.6570317 3.27570742,27.1647101 3.64052773,26.1933269 L4.65766055,23.4828115 C4.65766055,23.4828115 4.73020352,23.2096573 4.73020352,24.4028599 L4.73020352,40.3848423 C4.73020352,41.7820581 5.86351992,42.9144546 7.26155117,42.9144546 C8.65958242,42.9144546 9.79289883,41.7820581 9.79289883,40.3848423 L9.79289883,29.9437982 C9.79289883,29.9437982 9.78064883,29.8513577 9.87884023,29.8513577 L10.8293637,29.8513577 C10.9231527,29.8513577 10.9179848,29.9437982 10.9179848,29.9437982 L10.9179848,40.3848423 C10.9179848,41.7820581 12.0511098,42.9144546 13.4493324,42.9144546 C14.8473637,42.9144546 15.9806801,41.7820581 15.9806801,40.3848423 L15.9806801,24.4028599 C15.9806801,23.1903357 16.0869105,23.5724106 16.0869105,23.5724106 L17.0705473,26.1935163 C17.4347934,27.165089 18.518727,27.6572211 19.4906879,27.2929524 C20.4626488,26.9283048 20.9555199,25.8455383 20.5906996,24.8741551 L16.7644887,13.3590581 Z" id="Fill-1" fill="#FFFFFF"></path>
                <path d="M10.4055711,0.101381498 C13.4072039,0.101381498 15.8405516,2.48475595 15.8405516,5.42485727 C15.8405516,8.36495859 13.4072039,10.748333 10.4055711,10.748333 C7.40393828,10.748333 4.97059063,8.36495859 4.97059063,5.42485727 C4.97059063,2.48475595 7.40393828,0.101381498 10.4055711,0.101381498" id="Fill-3" fill="#FFFFFF"></path>
                <path d="M38.1340586,0.0161770925 C41.1356914,0.0161770925 43.5690391,2.42436652 43.5690391,5.39496564 C43.5690391,8.36556476 41.1356914,10.7737542 38.1340586,10.7737542 C35.1324258,10.7737542 32.6990781,8.36556476 32.6990781,5.39496564 C32.6990781,2.42436652 35.1324258,0.0161770925 38.1340586,0.0161770925" id="Fill-5" fill="#FFFFFF"></path>
                <g id="Group-9">
                    <mask id="mask-8" fill="white">
                        <use xlink:href="#path-7"></use>
                    </mask>
                    <g id="Clip-8"></g>
                    <path d="M48.821016,24.6188828 L44.183434,13.4396405 C43.9183363,12.875526 43.6836723,12.119711 42.5939965,12.119711 L41.3314809,12.119711 L35.6562855,12.119711 L34.3639105,12.119711 C33.2769145,12.119711 32.7099691,12.8204026 32.398934,13.4517639 L27.5820043,24.546711 C27.1233949,25.4781251 27.5065902,26.6035128 28.4373988,27.0606009 C29.368973,27.5173101 30.4961645,27.1327727 30.9547738,26.2009797 L31.3172973,25.4654335 C31.3172973,25.4654335 31.4300355,25.2669137 31.3875434,25.4864599 C31.1253168,26.8527991 30.4016098,30.9626141 30.4016098,30.9626141 C30.2257074,31.8178784 30.8029887,32.5178123 31.6849887,32.5178123 L33.7826098,32.5178123 C33.9324809,32.5178123 33.9058754,32.6295744 33.9058754,32.6295744 L33.9058754,40.890689 C33.9058754,42.2744555 34.7765824,42.9999621 35.8509457,42.9999621 C36.925309,42.9999621 37.7963988,42.2744555 37.7963988,40.890689 L37.7963988,32.5966141 C37.7963988,32.5966141 37.7919965,32.5149709 37.8796605,32.5178123 C37.9927816,32.521222 38.2787426,32.5181912 38.4069848,32.5181912 C38.480102,32.5181912 38.4709145,32.6053278 38.4709145,32.6053278 L38.4709145,40.890689 C38.4709145,42.2744555 39.3420043,42.9999621 40.416559,42.9999621 C41.4907309,42.9999621 42.3618207,42.2744555 42.3618207,40.890689 L42.3618207,32.6517374 C42.3618207,32.6517374 42.3489965,32.5178123 42.5101605,32.5178123 L44.7664574,32.5178123 C45.648266,32.5178123 46.2400941,31.8152264 46.0808441,30.9567419 C46.0808441,30.9567419 45.3554145,26.5487683 45.1620941,25.3477991 C45.1065863,25.0034203 45.6844418,26.2256053 45.6844418,26.2256053 C46.1263988,27.1651648 46.9796879,27.5576581 47.9191098,27.1172396 C48.8592973,26.6772 49.262973,25.5588211 48.821016,24.6188828" id="Fill-7" fill="#FFFFFF" mask="url(#mask-8)"></path>
                </g>
                <path d="M25.4088926,41.9903335 C25.4088926,42.4987564 24.9887559,42.9145493 24.4748301,42.9145493 L24.0745996,42.9145493 C23.5608652,42.9145493 23.1407285,42.4987564 23.1407285,41.9903335 L23.1407285,1.50157137 C23.1407285,0.993337885 23.5608652,0.577355507 24.0745996,0.577355507 L24.4748301,0.577355507 C24.9885645,0.577355507 25.4088926,0.993337885 25.4088926,1.50157137 L25.4088926,41.9903335 Z" id="Fill-10" fill="#FFFFFF"></path>
            </g>
            <g id="wheelchair" transform="translate(2081.000000, 2600.000000)" fill="#FFFFFF">
                <path d="M36.6443992,33.1866532 L30.1999242,22.082627 C29.9753033,21.6094358 29.638295,21.2337248 29.1892075,20.9554939 C28.7398117,20.6771101 28.2344533,20.5380711 27.6728242,20.5380711 L20.512245,20.5380711 L19.6700325,16.4471141 L25.2719867,16.4471141 C25.608995,16.4750747 25.9319742,16.4193062 26.2409242,16.2802672 C26.5495658,16.1410753 26.7882158,15.9183072 26.9565658,15.6122685 C27.181495,15.2226536 27.23052,14.8052308 27.1042575,14.3600002 C26.977995,13.9147696 26.7040408,13.5807703 26.2827033,13.358155 C26.0580825,13.2189632 25.8054033,13.1492908 25.5245117,13.1492908 L18.9537742,13.1492908 L18.5746783,11.2291767 C18.5746783,11.173561 18.5677408,11.1387249 18.5535575,11.124821 C18.5395283,11.1109171 18.5325908,11.0760809 18.5325908,11.0204653 L18.4905033,10.8951773 C18.2939408,10.2551393 17.9217825,9.72633247 17.3741825,9.3089097 C16.8267367,8.89148693 16.18787,8.68277555 15.4577367,8.68277555 C14.5592533,8.68277555 13.8010617,8.98193872 13.1833158,9.58026506 C12.56557,10.1785914 12.25662,10.8951773 12.25662,11.7300229 C12.25662,11.8692147 12.2706492,11.9805988 12.2988617,12.0640222 L12.25662,12.0640222 L14.5732825,23.1261839 C14.6855158,23.7663748 14.9944658,24.288306 15.4999783,24.6916721 C16.0053367,25.0951909 16.5950242,25.296874 17.2688867,25.296874 C17.4656033,25.296874 17.6199242,25.2829701 17.7323117,25.2551623 L27.2935742,25.2551623 L32.8534408,34.8564971 C33.0217908,35.2181514 33.2746242,35.5102863 33.6116325,35.7332071 C33.9486408,35.9558224 34.3417658,36.0672065 34.7911617,36.0672065 C35.3526367,36.0672065 35.8370283,35.872399 36.2441825,35.4826312 C36.6513367,35.0931691 36.8548367,34.6201307 36.8548367,34.0632105 C36.855145,33.7568662 36.784845,33.4648841 36.6443992,33.1866532 M26.0300242,26.7997182 C25.5528783,26.6883341 25.1246033,26.7580065 24.7455075,27.0084296 C24.3664117,27.2590055 24.1208242,27.6066031 24.0084367,28.0522921 C23.9241075,28.469562 23.797845,28.8732337 23.6293408,29.2626959 C23.2644283,30.2365805 22.7519783,31.1273472 22.0918367,31.9343849 C21.4321575,32.7414226 20.6738117,33.4372291 19.81757,34.0214988 C18.96102,34.606074 18.020295,35.0581801 16.995395,35.3784283 C15.970495,35.6982182 14.910445,35.8584951 13.8153992,35.8584951 C12.383345,35.8584951 11.0354658,35.5941681 9.77176167,35.0653613 C8.50821167,34.5365545 7.40607417,33.8268441 6.46550333,32.9363829 C5.52477833,32.0456162 4.78061583,30.9951837 4.23301583,29.7847799 C3.68541583,28.5742233 3.41177,27.2730622 3.41177,25.8814492 C3.41177,24.8516434 3.5731825,23.8568266 3.89616167,22.8966931 C4.21898667,21.9367124 4.67532,21.0459456 5.2650075,20.2251568 C5.854695,19.4040624 6.55661583,18.6806009 7.37107833,18.0543139 C8.1852325,17.4281798 9.09789917,16.9203052 10.10877,16.5306903 C10.5581658,16.3916512 10.8809908,16.1132675 11.0775533,15.6958447 C11.2741158,15.278422 11.288145,14.8609992 11.119795,14.4435764 C10.9511367,14.0261537 10.6492783,13.7269905 10.21422,13.5460869 C9.77885333,13.3651834 9.33654917,13.3442511 8.8873075,13.483443 C7.56764083,13.9842892 6.3602075,14.6522878 5.2650075,15.4871334 C4.1698075,16.3219789 3.2290825,17.2821124 2.44298667,18.3675338 C1.65673667,19.4528024 1.05302,20.6353984 0.631836667,21.9156273 C0.210499167,23.1957034 6.16666669e-05,24.5176441 6.16666669e-05,25.8812964 C6.16666669e-05,27.7182927 0.364974167,29.4365711 1.0951075,31.0367426 C1.82524083,32.6367614 2.81499083,34.0354027 4.06451167,35.2322081 C5.31418667,36.428708 6.77429917,37.3749376 8.44500333,38.0705913 C10.1158617,38.7663978 11.9058908,39.114301 13.8153992,39.114301 C15.2755117,39.114301 16.6795075,38.9054368 18.0273867,38.4881668 C19.3751117,38.0707441 20.6247867,37.4792933 21.7761033,36.7139673 C22.9272658,35.9486413 23.9382908,35.023344 24.8087158,33.9379225 C25.6789867,32.8525011 26.3530033,31.6558484 26.8304575,30.3479645 C27.02702,29.8746205 27.19537,29.3461193 27.3358158,28.7616969 C27.4483575,28.2885057 27.3779033,27.8710829 27.1252242,27.5094286 C26.872545,27.147927 26.5076325,26.9111022 26.0300242,26.7997182 M10.7194242,5.42666405 C10.5088325,4.95362566 10.4035367,4.43887555 10.4035367,3.88226093 C10.4035367,3.35345412 10.5088325,2.85245512 10.7194242,2.37941673 C10.93017,1.90622555 11.2109075,1.49583113 11.561945,1.14792789 C11.9129825,0.800024654 12.3270742,0.521793739 12.8043742,0.313082355 C13.2818283,0.104370971 13.8012158,1.52790179e-05 14.362845,1.52790179e-05 C14.8964158,1.52790179e-05 15.4017742,0.104370971 15.8792283,0.313082355 C16.3565283,0.521793739 16.7777117,0.800024654 17.1427783,1.14792789 C17.507845,1.49583113 17.7885825,1.90622555 17.985145,2.37941673 C18.1817075,2.85245512 18.2800658,3.35345412 18.2800658,3.88226093 C18.2800658,4.96752956 17.90097,5.89282689 17.1427783,6.65815289 C16.3845867,7.4234789 15.458045,7.80621829 14.362845,7.80621829 C13.8012158,7.80621829 13.2818283,7.7018626 12.8043742,7.49299843 C12.3270742,7.28428704 11.9129825,7.00605613 11.561945,6.65815289 C11.2109075,6.31040244 10.93017,5.89985523 10.7194242,5.42666405" id="Fill-1"></path>
            </g>
            <g id="wheelchair-copy" transform="translate(1158.000000, 2600.000000)" fill="#FFFFFF">
                <path d="M36.6443992,33.1866532 L30.1999242,22.082627 C29.9753033,21.6094358 29.638295,21.2337248 29.1892075,20.9554939 C28.7398117,20.6771101 28.2344533,20.5380711 27.6728242,20.5380711 L20.512245,20.5380711 L19.6700325,16.4471141 L25.2719867,16.4471141 C25.608995,16.4750747 25.9319742,16.4193062 26.2409242,16.2802672 C26.5495658,16.1410753 26.7882158,15.9183072 26.9565658,15.6122685 C27.181495,15.2226536 27.23052,14.8052308 27.1042575,14.3600002 C26.977995,13.9147696 26.7040408,13.5807703 26.2827033,13.358155 C26.0580825,13.2189632 25.8054033,13.1492908 25.5245117,13.1492908 L18.9537742,13.1492908 L18.5746783,11.2291767 C18.5746783,11.173561 18.5677408,11.1387249 18.5535575,11.124821 C18.5395283,11.1109171 18.5325908,11.0760809 18.5325908,11.0204653 L18.4905033,10.8951773 C18.2939408,10.2551393 17.9217825,9.72633247 17.3741825,9.3089097 C16.8267367,8.89148693 16.18787,8.68277555 15.4577367,8.68277555 C14.5592533,8.68277555 13.8010617,8.98193872 13.1833158,9.58026506 C12.56557,10.1785914 12.25662,10.8951773 12.25662,11.7300229 C12.25662,11.8692147 12.2706492,11.9805988 12.2988617,12.0640222 L12.25662,12.0640222 L14.5732825,23.1261839 C14.6855158,23.7663748 14.9944658,24.288306 15.4999783,24.6916721 C16.0053367,25.0951909 16.5950242,25.296874 17.2688867,25.296874 C17.4656033,25.296874 17.6199242,25.2829701 17.7323117,25.2551623 L27.2935742,25.2551623 L32.8534408,34.8564971 C33.0217908,35.2181514 33.2746242,35.5102863 33.6116325,35.7332071 C33.9486408,35.9558224 34.3417658,36.0672065 34.7911617,36.0672065 C35.3526367,36.0672065 35.8370283,35.872399 36.2441825,35.4826312 C36.6513367,35.0931691 36.8548367,34.6201307 36.8548367,34.0632105 C36.855145,33.7568662 36.784845,33.4648841 36.6443992,33.1866532 M26.0300242,26.7997182 C25.5528783,26.6883341 25.1246033,26.7580065 24.7455075,27.0084296 C24.3664117,27.2590055 24.1208242,27.6066031 24.0084367,28.0522921 C23.9241075,28.469562 23.797845,28.8732337 23.6293408,29.2626959 C23.2644283,30.2365805 22.7519783,31.1273472 22.0918367,31.9343849 C21.4321575,32.7414226 20.6738117,33.4372291 19.81757,34.0214988 C18.96102,34.606074 18.020295,35.0581801 16.995395,35.3784283 C15.970495,35.6982182 14.910445,35.8584951 13.8153992,35.8584951 C12.383345,35.8584951 11.0354658,35.5941681 9.77176167,35.0653613 C8.50821167,34.5365545 7.40607417,33.8268441 6.46550333,32.9363829 C5.52477833,32.0456162 4.78061583,30.9951837 4.23301583,29.7847799 C3.68541583,28.5742233 3.41177,27.2730622 3.41177,25.8814492 C3.41177,24.8516434 3.5731825,23.8568266 3.89616167,22.8966931 C4.21898667,21.9367124 4.67532,21.0459456 5.2650075,20.2251568 C5.854695,19.4040624 6.55661583,18.6806009 7.37107833,18.0543139 C8.1852325,17.4281798 9.09789917,16.9203052 10.10877,16.5306903 C10.5581658,16.3916512 10.8809908,16.1132675 11.0775533,15.6958447 C11.2741158,15.278422 11.288145,14.8609992 11.119795,14.4435764 C10.9511367,14.0261537 10.6492783,13.7269905 10.21422,13.5460869 C9.77885333,13.3651834 9.33654917,13.3442511 8.8873075,13.483443 C7.56764083,13.9842892 6.3602075,14.6522878 5.2650075,15.4871334 C4.1698075,16.3219789 3.2290825,17.2821124 2.44298667,18.3675338 C1.65673667,19.4528024 1.05302,20.6353984 0.631836667,21.9156273 C0.210499167,23.1957034 6.16666669e-05,24.5176441 6.16666669e-05,25.8812964 C6.16666669e-05,27.7182927 0.364974167,29.4365711 1.0951075,31.0367426 C1.82524083,32.6367614 2.81499083,34.0354027 4.06451167,35.2322081 C5.31418667,36.428708 6.77429917,37.3749376 8.44500333,38.0705913 C10.1158617,38.7663978 11.9058908,39.114301 13.8153992,39.114301 C15.2755117,39.114301 16.6795075,38.9054368 18.0273867,38.4881668 C19.3751117,38.0707441 20.6247867,37.4792933 21.7761033,36.7139673 C22.9272658,35.9486413 23.9382908,35.023344 24.8087158,33.9379225 C25.6789867,32.8525011 26.3530033,31.6558484 26.8304575,30.3479645 C27.02702,29.8746205 27.19537,29.3461193 27.3358158,28.7616969 C27.4483575,28.2885057 27.3779033,27.8710829 27.1252242,27.5094286 C26.872545,27.147927 26.5076325,26.9111022 26.0300242,26.7997182 M10.7194242,5.42666405 C10.5088325,4.95362566 10.4035367,4.43887555 10.4035367,3.88226093 C10.4035367,3.35345412 10.5088325,2.85245512 10.7194242,2.37941673 C10.93017,1.90622555 11.2109075,1.49583113 11.561945,1.14792789 C11.9129825,0.800024654 12.3270742,0.521793739 12.8043742,0.313082355 C13.2818283,0.104370971 13.8012158,1.52790179e-05 14.362845,1.52790179e-05 C14.8964158,1.52790179e-05 15.4017742,0.104370971 15.8792283,0.313082355 C16.3565283,0.521793739 16.7777117,0.800024654 17.1427783,1.14792789 C17.507845,1.49583113 17.7885825,1.90622555 17.985145,2.37941673 C18.1817075,2.85245512 18.2800658,3.35345412 18.2800658,3.88226093 C18.2800658,4.96752956 17.90097,5.89282689 17.1427783,6.65815289 C16.3845867,7.4234789 15.458045,7.80621829 14.362845,7.80621829 C13.8012158,7.80621829 13.2818283,7.7018626 12.8043742,7.49299843 C12.3270742,7.28428704 11.9129825,7.00605613 11.561945,6.65815289 C11.2109075,6.31040244 10.93017,5.89985523 10.7194242,5.42666405" id="Fill-1"></path>
            </g>
            <g id="Group-Copy" transform="translate(3611.000000, 1131.000000)">
                <g id="Page-1">
                    <path d="M11.4704396,9.20605409 C11.2497684,8.61379865 10.6534976,8.2792272 10.0472737,8.2792272 C9.74462013,8.2792272 9.71672519,8.28705954 9.53652124,8.28705954 L4.6338214,8.28705954 L4.12280701,8.28705954 C3.43054097,8.28705954 2.92057428,8.61379865 2.69990302,9.20605409 L0.0822311472,17.1411283 C-0.167120826,17.8106628 0.16984484,18.5569543 0.834870744,18.8081113 C1.50002761,19.0591378 2.2412735,18.7198669 2.4908874,18.0504629 L3.18682037,16.1825804 C3.18682037,16.1825804 3.23645504,15.9943432 3.23645504,16.8166083 L3.23645504,27.8301837 C3.23645504,28.7930394 4.01188205,29.5734015 4.96842975,29.5734015 C5.92497745,29.5734015 6.70040446,28.7930394 6.70040446,27.8301837 L6.70040446,20.6350046 C6.70040446,20.6350046 6.69202288,20.5713016 6.75920648,20.5713016 L7.40956462,20.5713016 C7.47373608,20.5713016 7.4702001,20.6350046 7.4702001,20.6350046 L7.4702001,27.8301837 C7.4702001,28.7930394 8.24549616,29.5734015 9.20217481,29.5734015 C10.1587225,29.5734015 10.9341495,28.7930394 10.9341495,27.8301837 L10.9341495,16.8166083 C10.9341495,15.9810282 11.0068335,16.2443253 11.0068335,16.2443253 L11.6798481,18.0505935 C11.9290691,18.720128 12.6707079,19.0592683 13.3357338,18.8082418 C14.0007597,18.5569543 14.3379873,17.8107933 14.0883734,17.1413893 L11.4704396,9.20605409 Z" id="Fill-1" fill="#FFFFFF"></path>
                    <path d="M7.11960127,0.0698644727 C9.17335004,0.0698644727 10.8382721,1.71230617 10.8382721,3.73840198 C10.8382721,5.7644978 9.17335004,7.40693949 7.11960127,7.40693949 C5.06585251,7.40693949 3.40093043,5.7644978 3.40093043,3.73840198 C3.40093043,1.71230617 5.06585251,0.0698644727 7.11960127,0.0698644727" id="Fill-3" fill="#FFFFFF"></path>
                    <path d="M26.0917243,0.0111480306 C28.1454731,0.0111480306 29.8103951,1.67069033 29.8103951,3.71780293 C29.8103951,5.76491552 28.1454731,7.42445783 26.0917243,7.42445783 C24.0379755,7.42445783 22.3730535,5.76491552 22.3730535,3.71780293 C22.3730535,1.67069033 24.0379755,0.0111480306 26.0917243,0.0111480306" id="Fill-5" fill="#FFFFFF"></path>
                    <g id="Group-9">
                        <mask id="mask-10" fill="white">
                            <use xlink:href="#path-9"></use>
                        </mask>
                        <g id="Clip-8"></g>
                        <path d="M33.4038531,16.965475 L30.2307706,9.26158538 C30.049388,8.87284024 29.8888284,8.35198963 29.1432608,8.35198963 L28.2794343,8.35198963 L24.3964059,8.35198963 L23.5121493,8.35198963 C22.7684152,8.35198963 22.3805052,8.83485339 22.1676917,9.26993988 L18.8718977,16.9157396 C18.5581123,17.5575999 18.8202986,18.3331321 19.4571676,18.6481227 C20.0945605,18.9628522 20.8657967,18.6978581 21.1795821,18.0557367 L21.4276244,17.5488538 C21.4276244,17.5488538 21.5047612,17.4120489 21.4756876,17.5633436 C21.2962694,18.5049214 20.8011014,21.3370956 20.8011014,21.3370956 C20.6807472,21.9264791 21.0757291,22.4088207 21.6792028,22.4088207 L23.1144172,22.4088207 C23.2169606,22.4088207 23.1987568,22.4858388 23.1987568,22.4858388 L23.1987568,28.1787751 C23.1987568,29.1323625 23.7945038,29.6323268 24.5295944,29.6323268 C25.2646851,29.6323268 25.8606939,29.1323625 25.8606939,28.1787751 L25.8606939,22.463125 C25.8606939,22.463125 25.8576818,22.4068627 25.9176625,22.4088207 C25.9950611,22.4111704 26.1907186,22.4090818 26.2784633,22.4090818 C26.3284908,22.4090818 26.3222046,22.4691298 26.3222046,22.4691298 L26.3222046,28.1787751 C26.3222046,29.1323625 26.9182135,29.6323268 27.6534351,29.6323268 C28.3883948,29.6323268 28.9844036,29.1323625 28.9844036,28.1787751 L28.9844036,22.5011118 C28.9844036,22.5011118 28.9756292,22.4088207 29.0858993,22.4088207 L30.6296814,22.4088207 C31.2330241,22.4088207 31.6379591,21.9246516 31.5289986,21.3330488 C31.5289986,21.3330488 31.032652,18.2954063 30.9003802,17.4677891 C30.8624012,17.2304692 31.257776,18.0727068 31.257776,18.0727068 C31.5601676,18.7201802 32.143997,18.990657 32.7867593,18.6871539 C33.4300455,18.3839118 33.7062447,17.6132095 33.4038531,16.965475" id="Fill-7" fill="#FFFFFF" mask="url(#mask-10)"></path>
                    </g>
                    <path d="M17.3850318,28.936567 C17.3850318,29.2869337 17.0975698,29.5734668 16.7459364,29.5734668 L16.4720945,29.5734668 C16.120592,29.5734668 15.83313,29.2869337 15.83313,28.936567 L15.83313,1.0347696 C15.83313,0.684533461 16.120592,0.397869817 16.4720945,0.397869817 L16.7459364,0.397869817 C17.0974388,0.397869817 17.3850318,0.684533461 17.3850318,1.0347696 L17.3850318,28.936567 Z" id="Fill-10" fill="#FFFFFF"></path>
                </g>
                <g id="wheelchair" transform="translate(39.684211, 1.378249)" fill="#FFFFFF">
                    <path d="M25.0724836,22.8697354 L20.663106,15.217679 C20.5094181,14.8915914 20.2788334,14.6326797 19.971563,14.4409439 C19.6640817,14.2491029 19.3183102,14.1532877 18.9340376,14.1532877 L14.0346939,14.1532877 L13.4584433,11.334109 L17.2913593,11.334109 C17.5219439,11.3533774 17.7429297,11.314946 17.9543165,11.2191308 C18.1654924,11.1232103 18.3287793,10.9696953 18.4439661,10.7587965 C18.597865,10.4903033 18.6314084,10.2026471 18.5450183,9.89582778 C18.4586282,9.58900848 18.2711858,9.35884137 17.9829023,9.20543172 C17.8292143,9.10951121 17.6563286,9.0614983 17.4641396,9.0614983 L12.9683718,9.0614983 L12.7089904,7.73830061 C12.7089904,7.69997452 12.7042437,7.67596807 12.6945393,7.66638654 C12.6849404,7.65680502 12.6801937,7.63279857 12.6801937,7.59447248 L12.651397,7.50813349 C12.5169069,7.06706759 12.2622722,6.70265387 11.8875986,6.41499762 C11.5130304,6.12734137 11.0759111,5.98351324 10.5763461,5.98351324 C9.96159439,5.98351324 9.44283167,6.18967391 9.02016346,6.60199524 C8.59749526,7.01431657 8.38610842,7.50813349 8.38610842,8.08344599 C8.38610842,8.17936651 8.39570732,8.25612398 8.41501061,8.31361311 L8.38610842,8.31361311 L9.97119329,15.9368196 C10.0479845,16.3779908 10.2593714,16.7376664 10.6052483,17.0156359 C10.9510198,17.2937106 11.3544902,17.4326953 11.815554,17.4326953 C11.9501496,17.4326953 12.0557376,17.4231138 12.1326343,17.4039507 L18.6745507,17.4039507 L22.47867,24.0204657 C22.5938569,24.2696905 22.7668481,24.4710078 22.9974328,24.624628 C23.2280174,24.7780377 23.4969977,24.8547952 23.804479,24.8547952 C24.1886461,24.8547952 24.520072,24.7205485 24.7986512,24.4519501 C25.0772304,24.1835621 25.2164672,23.8575798 25.2164672,23.4737924 C25.2166782,23.2626831 25.1685782,23.0614711 25.0724836,22.8697354 M17.8100165,18.468342 C17.4835483,18.3915846 17.1905181,18.4395975 16.9311367,18.6121702 C16.6717554,18.7848482 16.5037218,19.0243862 16.4268251,19.3315214 C16.3691262,19.6190723 16.2827361,19.8972524 16.1674437,20.1656403 C15.9177668,20.836768 15.5671431,21.4506172 15.1154672,22.0067666 C14.6641078,22.5629161 14.1452396,23.0424134 13.55939,23.4450479 C12.9733295,23.847893 12.3296755,24.1594504 11.6284282,24.3801413 C10.9271808,24.6005163 10.2018834,24.710967 9.45264154,24.710967 C8.472815,24.710967 7.55058189,24.5288128 6.68594219,24.1643991 C5.82140798,23.7999854 5.0673139,23.3109066 4.42376544,22.697268 C3.78011149,22.0834188 3.27094768,21.3595401 2.89627399,20.5254212 C2.52160031,19.691197 2.33436895,18.794535 2.33436895,17.8355404 C2.33436895,17.125876 2.44480908,16.4403234 2.66579482,15.7786719 C2.88667509,15.1171257 3.19890316,14.5032765 3.60237355,13.9376508 C4.00584395,13.3718145 4.48610557,12.8732595 5.04336939,12.4416698 C5.60042224,12.0101855 6.22487838,11.6601967 6.91652684,11.3917035 C7.2240082,11.2958882 7.44488846,11.1040472 7.5793786,10.816391 C7.71386873,10.5287347 7.72346763,10.2410785 7.60828079,9.9534222 C7.49288298,9.66576595 7.28634833,9.45960529 6.98867684,9.33494021 C6.69079439,9.21027513 6.38816522,9.1958502 6.08078934,9.29177071 C5.17785952,9.6369161 4.35172092,10.0972503 3.60237355,10.6725628 C2.85302618,11.2478753 2.20937224,11.9095268 1.67151719,12.6575173 C1.13355667,13.4054025 0.720487368,14.2203584 0.432309298,15.1025954 C0.144025746,15.9847272 4.21929826e-05,16.8957089 4.21929826e-05,17.8354351 C4.21929826e-05,19.1013543 0.249719167,20.2854619 0.749284079,21.3881793 C1.24884899,22.4907914 1.92604636,23.4546294 2.78098167,24.2793774 C3.63602246,25.1039147 4.6350468,25.7559847 5.77816018,26.2353767 C6.92137904,26.714874 8.14613583,26.9546226 9.45264154,26.9546226 C10.4516659,26.9546226 11.4122946,26.8106892 12.3345277,26.5231382 C13.2566554,26.235482 14.1116961,25.8278988 14.8994391,25.3004939 C15.6870766,24.773089 16.3788306,24.1354439 16.9743845,23.3874535 C17.569833,22.639463 18.0310023,21.8148203 18.3576814,20.9135255 C18.4921716,20.5873325 18.6073584,20.2231294 18.7034529,19.8203896 C18.7804551,19.494302 18.7322496,19.2066457 18.5593639,18.9574208 C18.3864782,18.7083013 18.1368012,18.5450995 17.8100165,18.468342 M7.33434285,3.73964708 C7.19025382,3.41366474 7.1182093,3.05893783 7.1182093,2.67536107 C7.1182093,2.31094735 7.19025382,1.96569667 7.33434285,1.63971433 C7.47853737,1.3136267 7.67062092,1.03081386 7.91080447,0.791065219 C8.15098803,0.551316579 8.4343139,0.359580843 8.76088759,0.215752717 C9.08756675,0.0719245918 9.44293715,1.05291453e-05 9.82720974,1.05291453e-05 C10.1922845,1.05291453e-05 10.538056,0.0719245918 10.8647352,0.215752717 C11.1913089,0.359580843 11.4794869,0.551316579 11.7292694,0.791065219 C11.9790518,1.03081386 12.1711354,1.3136267 12.3056255,1.63971433 C12.4401157,1.96569667 12.5074135,2.31094735 12.5074135,2.67536107 C12.5074135,3.42324626 12.2480321,4.0608913 11.7292694,4.5882962 C11.2105067,5.11570109 10.5765571,5.37945618 9.82720974,5.37945618 C9.44293715,5.37945618 9.08756675,5.30754211 8.76088759,5.1636087 C8.4343139,5.01978057 8.15098803,4.82804483 7.91080447,4.5882962 C7.67062092,4.34865285 7.47853737,4.06573471 7.33434285,3.73964708" id="Fill-1"></path>
                </g>
            </g>
            <path d="M4339.125,2067 C4337.53657,2067 4336.25,2068.28657 4336.25,2069.875 L4336.25,2084.25 L4301.75,2084.25 L4301.75,2049.75 L4313.25,2049.75 C4314.83843,2049.75 4316.125,2048.46343 4316.125,2046.875 C4316.125,2045.28657 4314.83843,2044 4313.25,2044 L4298.875,2044 C4297.28657,2044 4296,2045.28657 4296,2046.875 L4296,2087.125 C4296,2088.71343 4297.28657,2090 4298.875,2090 L4339.125,2090 C4340.71343,2090 4342,2088.71343 4342,2087.125 L4342,2069.875 C4342,2068.28657 4340.71343,2067 4339.125,2067 L4339.125,2067 Z M4339.87972,2053.23593 C4341.84479,2051.27086 4341.84479,2048.08543 4339.87972,2046.12036 C4337.91457,2044.15529 4334.72914,2044.15529 4332.76407,2046.12036 L4331.33379,2047.55064 L4338.44943,2054.66621 L4339.87972,2053.23593 Z M4310.33043,2075.71414 L4321.16192,2070.23586 C4322.3105,2070.14378 4323.43614,2069.67958 4324.31435,2068.80122 L4334.38407,2058.7315 L4327.26842,2051.61586 L4317.19878,2061.68557 C4316.31757,2062.56679 4315.85328,2063.69664 4315.76279,2064.84807 L4310.33043,2075.71414 Z" id="Page-1" fill="#004590"></path>
            <path d="M3125.52343,2615.70226 L3106.63576,2771.1568" id="Line" stroke="#3E3E3E" stroke-width="8" stroke-linecap="square"></path>
            <path d="M3439,2653 L3420,2810.99999" id="Line-Copy-5" stroke="#3E3E3E" stroke-width="8" stroke-linecap="square"></path>
            <path d="M3791,2694 L3772,2851" id="Line-Copy-8" stroke="#3E3E3E" stroke-width="8" stroke-linecap="square"></path>
            <path d="M4141,2734 L4121.5,2893.02273" id="Line-Copy-12" stroke="#3E3E3E" stroke-width="8" stroke-linecap="square"></path>
            <path d="M4525.5,2783.32067 L4505.5,2940.5376" id="Line-Copy-17" stroke="#3E3E3E" stroke-width="8" stroke-linecap="square"></path>
            <path d="M4477.5,2777.77184 L4457.5,2934.98876" id="Line-Copy-18" stroke="#3E3E3E" stroke-width="8" stroke-linecap="square"></path>
            <path d="M4451.5,2774.99742 L4431.5,2932.21435" id="Line-Copy-19" stroke="#3E3E3E" stroke-width="8" stroke-linecap="square"></path>
            <path d="M4426.5,2771.2982 L4406.5,2928.51513" id="Line-Copy-20" stroke="#3E3E3E" stroke-width="8" stroke-linecap="square"></path>
            <path d="M4400.5,2768.52378 L4380.5,2925.74071" id="Line-Copy-21" stroke="#3E3E3E" stroke-width="8" stroke-linecap="square"></path>
            <path d="M4375.5,2765.74936 L4355.5,2922.96629" id="Line-Copy-22" stroke="#3E3E3E" stroke-width="8" stroke-linecap="square"></path>
            <path d="M4095.5,2727.5 L4074.5,2886.34091" id="Line-Copy-13" stroke="#3E3E3E" stroke-width="8" stroke-linecap="square"></path>
            <path d="M4068,2725 L4048,2881.99999" id="Line-Copy-14" stroke="#3E3E3E" stroke-width="8" stroke-linecap="square"></path>
            <path d="M4042,2722 L4022,2880.00001" id="Line-Copy-15" stroke="#3E3E3E" stroke-width="8" stroke-linecap="square"></path>
            <path d="M4015,2719 L3996,2876" id="Line-Copy-16" stroke="#3E3E3E" stroke-width="8" stroke-linecap="square"></path>
            <path d="M3741,2688 L3722,2845" id="Line-Copy-9" stroke="#3E3E3E" stroke-width="8" stroke-linecap="square"></path>
            <path d="M3710,2683 L3690,2841.00001" id="Line-Copy-10" stroke="#3E3E3E" stroke-width="8" stroke-linecap="square"></path>
            <path d="M3677,2680 L3658,2838" id="Line-Copy-11" stroke="#3E3E3E" stroke-width="8" stroke-linecap="square"></path>
            <path d="M3381,2646 L3360,2804" id="Line-Copy-6" stroke="#3E3E3E" stroke-width="8" stroke-linecap="square"></path>
            <path d="M3349.5,2642.63598 L3330,2800" id="Line-Copy-7" stroke="#3E3E3E" stroke-width="8" stroke-linecap="square"></path>
            <path d="M3091.24754,2612.0445 L3072.35986,2767.49905" id="Line-Copy" stroke="#3E3E3E" stroke-width="8" stroke-linecap="square"></path>
            <path d="M3059.91603,2608.38675 L3041.02836,2763.84129" id="Line-Copy-2" stroke="#3E3E3E" stroke-width="8" stroke-linecap="square"></path>
            <path d="M3030.64014,2605.64343 L3011.75246,2761.09798" id="Line-Copy-3" stroke="#3E3E3E" stroke-width="8" stroke-linecap="square"></path>
            <path d="M3001.36424,2601.07124 L2982.47657,2756.52579" id="Line-Copy-4" stroke="#3E3E3E" stroke-width="8" stroke-linecap="square"></path>
            <text id="DENEL" transform="translate(3159.337803, 2573.009986) rotate(-83.000000) translate(-3159.337803, -2573.009986) " font-family="Arial-BoldMT, Arial" font-size="17" font-weight="bold" letter-spacing="-0.339999914" fill="#3E3E3E">
                <tspan x="3131.37994" y="2578.00999">DENEL</tspan>
            </text>
            <text id="1---2" transform="translate(2966.212662, 2719.009986) rotate(-83.000000) translate(-2966.212662, -2719.009986) " font-family="Arial-BoldMT, Arial" font-size="17" font-weight="bold" letter-spacing="-0.339999914" fill="#3E3E3E">
                <tspan x="2950.05436" y="2724.00999">1 - 2</tspan>
            </text>
            <text id="7--8" transform="translate(3135.387894, 2742.129247) rotate(-83.000000) translate(-3135.387894, -2742.129247) " font-family="Arial-BoldMT, Arial" font-size="17" font-weight="bold" letter-spacing="-0.339999914" fill="#3E3E3E">
                <tspan x="3121.42116" y="2747.12925">7- 8</tspan>
            </text>
            <text id="9---10" transform="translate(3306.631632, 2761.114340) rotate(-83.000000) translate(-3306.631632, -2761.114340) " font-family="Arial-BoldMT, Arial" font-size="17" font-weight="bold" letter-spacing="-0.339999914" fill="#3E3E3E">
                <tspan x="3285.91604" y="2766.11434">9 - 10</tspan>
            </text>
            <text id="12---13" transform="translate(3397.484718, 2771.062163) rotate(-83.000000) translate(-3397.484718, -2771.062163) " font-family="Arial-BoldMT, Arial" font-size="17" font-weight="bold" letter-spacing="-0.339999914" fill="#3E3E3E">
                <tspan x="3372.21183" y="2776.06216">12 - 13</tspan>
            </text>
            <text id="14---15" transform="translate(3462.033130, 2779.528620) rotate(-83.000000) translate(-3462.033130, -2779.528620) " font-family="Arial-BoldMT, Arial" font-size="17" font-weight="bold" letter-spacing="-0.339999914" fill="#3E3E3E">
                <tspan x="3436.76024" y="2784.52862">14 - 15</tspan>
            </text>
            <text id="16---17" transform="translate(3638.033130, 2798.528620) rotate(-83.000000) translate(-3638.033130, -2798.528620) " font-family="Arial-BoldMT, Arial" font-size="17" font-weight="bold" letter-spacing="-0.339999914" fill="#3E3E3E">
                <tspan x="3612.76024" y="2803.52862">16 - 17</tspan>
            </text>
            <text id="20---21" transform="translate(3751.966870, 2811.528620) rotate(-83.000000) translate(-3751.966870, -2811.528620) " font-family="Arial-BoldMT, Arial" font-size="17" font-weight="bold" letter-spacing="-0.339999914" fill="#3E3E3E">
                <tspan x="3726.69398" y="2816.52862">20 - 21</tspan>
            </text>
            <text id="22---23" transform="translate(3803.533130, 2817.528620) rotate(-83.000000) translate(-3803.533130, -2817.528620) " font-family="Arial-BoldMT, Arial" font-size="17" font-weight="bold" letter-spacing="-0.339999914" fill="#3E3E3E">
                <tspan x="3778.26024" y="2822.52862">22 - 23</tspan>
            </text>
            <text id="32---33" transform="translate(4332.033130, 2882.528620) rotate(-83.000000) translate(-4332.033130, -2882.528620) " font-family="Arial-BoldMT, Arial" font-size="17" font-weight="bold" letter-spacing="-0.339999914" fill="#3E3E3E">
                <tspan x="4306.76024" y="2887.52862">32 - 33</tspan>
            </text>
            <text id="38---39" transform="translate(4488.033130, 2900.528620) rotate(-83.000000) translate(-4488.033130, -2900.528620) " font-family="Arial-BoldMT, Arial" font-size="17" font-weight="bold" letter-spacing="-0.339999914" fill="#3E3E3E">
                <tspan x="4462.76024" y="2905.52862">38 - 39</tspan>
            </text>
            <text id="24---25" transform="translate(3981.297571, 2837.528620) rotate(-83.000000) translate(-3981.297571, -2837.528620) " font-family="Arial-BoldMT, Arial" font-size="17" font-weight="bold" letter-spacing="-0.339999914" fill="#3E3E3E">
                <tspan x="3956.02468" y="2842.52862">24 - 25</tspan>
            </text>
            <text id="11" transform="translate(3350.484718, 2765.062163) rotate(-83.000000) translate(-3350.484718, -2765.062163) " font-family="Arial-BoldMT, Arial" font-size="17" font-weight="bold" letter-spacing="-0.339999914" fill="#3E3E3E">
                <tspan x="3341.83912" y="2770.06216">11</tspan>
            </text>
            <text id="18" transform="translate(3678.022286, 2802.151609) rotate(-83.000000) translate(-3678.022286, -2802.151609) " font-family="Arial-BoldMT, Arial" font-size="17" font-weight="bold" letter-spacing="-0.339999914" fill="#3E3E3E">
                <tspan x="3668.9077" y="2807.15161">18</tspan>
            </text>
            <text id="26" transform="translate(4013.083220, 2840.647882) rotate(-83.000000) translate(-4013.083220, -2840.647882) " font-family="Arial-BoldMT, Arial" font-size="17" font-weight="bold" letter-spacing="-0.339999914" fill="#3E3E3E">
                <tspan x="4003.96863" y="2845.64788">26</tspan>
            </text>
            <text id="28" transform="translate(4066.083220, 2848.647882) rotate(-83.000000) translate(-4066.083220, -2848.647882) " font-family="Arial-BoldMT, Arial" font-size="17" font-weight="bold" letter-spacing="-0.339999914" fill="#3E3E3E">
                <tspan x="4056.96863" y="2853.64788">28</tspan>
            </text>
            <text id="34" transform="translate(4374.083220, 2884.647882) rotate(-83.000000) translate(-4374.083220, -2884.647882) " font-family="Arial-BoldMT, Arial" font-size="17" font-weight="bold" letter-spacing="-0.339999914" fill="#3E3E3E">
                <tspan x="4364.96863" y="2889.64788">34</tspan>
            </text>
            <text id="35" transform="translate(4401.083220, 2887.647882) rotate(-83.000000) translate(-4401.083220, -2887.647882) " font-family="Arial-BoldMT, Arial" font-size="17" font-weight="bold" letter-spacing="-0.339999914" fill="#3E3E3E">
                <tspan x="4391.96863" y="2892.64788">35</tspan>
            </text>
            <text id="40" transform="translate(4528.083220, 2903.647882) rotate(-83.000000) translate(-4528.083220, -2903.647882) " font-family="Arial-BoldMT, Arial" font-size="17" font-weight="bold" letter-spacing="-0.339999914" fill="#3E3E3E">
                <tspan x="4518.96863" y="2908.64788">40</tspan>
            </text>
            <text id="37" transform="translate(4452.083220, 2892.647882) rotate(-82.000000) translate(-4452.083220, -2892.647882) " font-family="Arial-BoldMT, Arial" font-size="17" font-weight="bold" letter-spacing="-0.339999914" fill="#3E3E3E">
                <tspan x="4442.96863" y="2897.64788">37</tspan>
            </text>
            <text id="29" transform="translate(4102.916780, 2852.647882) rotate(-83.000000) translate(-4102.916780, -2852.647882) " font-family="Arial-BoldMT, Arial" font-size="17" font-weight="bold" letter-spacing="-0.339999914" fill="#3E3E3E">
                <tspan x="4093.80219" y="2857.64788">29</tspan>
            </text>
            <text id="27" transform="translate(4040.583220, 2843.647882) rotate(-82.000000) translate(-4040.583220, -2843.647882) " font-family="Arial-BoldMT, Arial" font-size="17" font-weight="bold" letter-spacing="-0.339999914" fill="#3E3E3E">
                <tspan x="4031.46863" y="2848.64788">27</tspan>
            </text>
            <text id="19" transform="translate(3712.083220, 2805.647882) rotate(-83.000000) translate(-3712.083220, -2805.647882) " font-family="Arial-BoldMT, Arial" font-size="17" font-weight="bold" letter-spacing="-0.339999914" fill="#3E3E3E">
                <tspan x="3702.96863" y="2810.64788">19</tspan>
            </text>
            <text id="3" transform="translate(3001.387894, 2723.129247) rotate(-83.000000) translate(-3001.387894, -2723.129247) " font-family="Arial-BoldMT, Arial" font-size="17" font-weight="bold" letter-spacing="-0.339999914" fill="#3E3E3E">
                <tspan x="2996.8306" y="2728.12925">3</tspan>
            </text>
            <text id="4" transform="translate(3032.500000, 2728.181424) rotate(-83.000000) translate(-3032.500000, -2728.181424) " font-family="Arial-BoldMT, Arial" font-size="17" font-weight="bold" letter-spacing="-0.339999914" fill="#3E3E3E">
                <tspan x="3027.94271" y="2733.18142">4</tspan>
            </text>
            <text id="5" transform="translate(3063.034808, 2732.181424) rotate(-83.000000) translate(-3063.034808, -2732.181424) " font-family="Arial-BoldMT, Arial" font-size="17" font-weight="bold" letter-spacing="-0.339999914" fill="#3E3E3E">
                <tspan x="3058.47751" y="2737.18142">5</tspan>
            </text>
            <text id="6" transform="translate(3093.034808, 2735.181424) rotate(-83.000000) translate(-3093.034808, -2735.181424) " font-family="Arial-BoldMT, Arial" font-size="17" font-weight="bold" letter-spacing="-0.339999914" fill="#3E3E3E">
                <tspan x="3088.47751" y="2740.18142">6</tspan>
            </text>
            <text id="DOD" transform="translate(3418.000000, 2611.009986) rotate(-83.000000) translate(-3418.000000, -2611.009986) " font-family="Arial-BoldMT, Arial" font-size="17" font-weight="bold" letter-spacing="-0.339999914" fill="#3E3E3E">
                <tspan x="3399.62157" y="2616.00999">DOD</tspan>
            </text>
            <text id="THALES" transform="translate(3481.180044, 2606.580797) rotate(-83.000000) translate(-3481.180044, -2606.580797) " font-family="Arial-BoldMT, Arial" font-size="17" font-weight="bold" letter-spacing="-0.339999914" fill="#3E3E3E">
                <tspan x="3448.20004" y="2611.5808">THALES</tspan>
            </text>
            <text id="ARMSCOR" transform="translate(3699.947150, 2619.972716) rotate(-83.000000) translate(-3699.947150, -2619.972716) " font-family="Arial-BoldMT, Arial" font-size="17" font-weight="bold" letter-spacing="-0.339999914" fill="#3E3E3E">
                <tspan x="3656.94715" y="2624.97272">ARMSCOR</tspan>
            </text>
            <text id="ARMSCOR-Copy" transform="translate(3770.277337, 2628.898178) rotate(-83.000000) translate(-3770.277337, -2628.898178) " font-family="Arial-BoldMT, Arial" font-size="17" font-weight="bold" letter-spacing="-0.339999914" fill="#3E3E3E">
                <tspan x="3727.27734" y="2633.89818">ARMSCOR</tspan>
            </text>
            <text id="MOD" transform="translate(3729.301914, 2646.573343) rotate(-83.000000) translate(-3729.301914, -2646.573343) " font-family="Arial-BoldMT, Arial" font-size="17" font-weight="bold" letter-spacing="-0.339999914" fill="#3E3E3E">
                <tspan x="3709.80191" y="2651.57334">MOD</tspan>
            </text>
            <text id="AMD" transform="translate(3821.801914, 2658.573343) rotate(-83.000000) translate(-3821.801914, -2658.573343) " font-family="Arial-BoldMT, Arial" font-size="17" font-weight="bold" letter-spacing="-0.339999914" fill="#3E3E3E">
                <tspan x="3802.80191" y="2663.57334">AMD</tspan>
            </text>
            <text id="CAASA" transform="translate(4000.520607, 2667.498805) rotate(-83.000000) translate(-4000.520607, -2667.498805) " font-family="Arial-BoldMT, Arial" font-size="17" font-weight="bold" letter-spacing="-0.339999914" fill="#3E3E3E">
                <tspan x="3971.02061" y="2672.4988">CAASA</tspan>
            </text>
            <text id="AEROSUD" transform="translate(4553.983039, 2727.409359) rotate(-83.000000) translate(-4553.983039, -2727.409359) " font-family="Arial-BoldMT, Arial" font-size="17" font-weight="bold" letter-spacing="-0.339999914" fill="#3E3E3E">
                <tspan x="4512.48304" y="2732.40936">AEROSUD</tspan>
            </text>
            <text id="AAD" transform="translate(4445.119110, 2734.084524) rotate(-83.000000) translate(-4445.119110, -2734.084524) " font-family="Arial-BoldMT, Arial" font-size="17" font-weight="bold" letter-spacing="-0.339999914" fill="#3E3E3E">
                <tspan x="4427.11911" y="2739.08452">AAD</tspan>
            </text>
            <text id="VIP-&amp;-FUNCTIONS" transform="translate(3377.639120, 2555.185743) rotate(-83.000000) translate(-3377.639120, -2555.185743) " font-family="Arial-BoldMT, Arial" font-size="17" font-weight="bold" letter-spacing="-0.339999914" fill="#3E3E3E">
                <tspan x="3306.20011" y="2560.18574">VIP &amp; FUNCTIONS</tspan>
            </text>
            <ellipse id="Oval-1" stroke="#3E3E3E" stroke-width="9" cx="2851.5" cy="2157" rx="27.5" ry="16"></ellipse>
            <ellipse id="Oval-1-Copy" stroke="#3E3E3E" stroke-width="9" cx="2851.5" cy="2200" rx="27.5" ry="16"></ellipse>
        </g>
    </g>
</svg>