<?xml version="1.0" encoding="UTF-8" standalone="no"?>
<svg width="403px" height="660px" viewBox="0 0 403 660" version="1.1" xmlns="http://www.w3.org/2000/svg" xmlns:xlink="http://www.w3.org/1999/xlink">
    <!-- Generator: Sketch 3.6 (26304) - http://www.bohemiancoding.com/sketch -->
    <title>OR Tambo map</title>
    <desc>Created with Sketch.</desc>
    <defs></defs>
    <g id="Page-1" stroke="none" stroke-width="1" fill="none" fill-rule="evenodd">
        <g id="OR-Tambo-map">
            <path d="M214.443873,552.91549 L195.421943,525.163955 C195.421943,525.163955 192.983551,517.373689 191.032838,511.530784 C189.082124,505.687878 178.352376,483.778425 178.352376,483.778425 C178.352376,483.778425 174.450124,477.448679 170.548698,476.961839 C166.646446,476.474999 161.281985,473.066295 161.281985,473.066295 L154.942166,463.816332 L151.039915,461.868972 L152.990628,445.8016 C152.990628,445.8016 158.562208,443.035425 165.287383,440.523791 C172.011733,438.011334 206.152516,426.813187 206.152516,426.813187 L224.685943,419.509761 C224.685943,419.509761 238.342586,417.076385 241.756334,414.15452 C245.169257,411.232655 251.998404,404.41607 255.899831,403.930054 C259.802083,403.443213 278.823187,400.034509 278.823187,400.034509" id="Stroke-3" stroke="#D7D7D7" stroke-width="3" stroke-linecap="round" stroke-linejoin="round"></path>
            <path d="M151.039997,457.000158 C151.039997,457.000158 142.749466,457.974662 140.310249,457.000158 C137.871032,456.025654 134.662752,460.408863 132.365466,463.329904 C130.068179,466.250121 117.875396,476.475411 117.875396,476.475411 L105.194109,489.620918 C105.194109,489.620918 93.9766825,500.818241 92.5136476,501.792745 C91.0497874,502.767249 79.8323608,508.122491 79.8323608,508.122491 L76.6348084,510.069851" id="Stroke-5" stroke="#D7D7D7" stroke-width="3" stroke-linecap="round" stroke-linejoin="round"></path>
            <path d="M142.260385,344.530038 C142.260385,344.530038 137.383601,344.043198 135.432888,342.582678 C133.48135,341.121334 125.677671,344.530038 125.677671,344.530038 L112.021028,344.530038 L97.4888741,337.226613 L71.5404266,315.317159 L54.4708601,312.396119" id="Stroke-7" stroke="#D7D7D7" stroke-width="3" stroke-linecap="round" stroke-linejoin="round"></path>
            <path d="M128.556376,343.421509 L120.800558,332.357635 L113.836908,320.189103 C113.836908,320.189103 113.213901,312.395542 113.836908,305.09294 C114.459915,297.789514 113.559649,267.116115 113.559649,267.116115 C113.559649,267.116115 102.753985,254.456624 104.217845,252.509263 C105.68088,250.561903 106.656236,243.745317 106.656236,242.284797 C106.656236,240.824277 100.804097,213.558758 100.804097,213.558758 L98.3657049,191.649305 L98.3657049,173.147732 C98.3657049,173.147732 93.9757748,149.290094 92.5127399,143.934853 C91.0497049,138.578788 83.7337049,117.156175 83.7337049,117.156175 L79.3437748,103.036987 L72.5162783,92.3248567 L72.5162783,82.1003902 L66.175635,69.9285632 L74.4669916,67.0075224" id="Stroke-9" stroke="#D7D7D7" stroke-width="3" stroke-linecap="round" stroke-linejoin="round"></path>
            <path d="M151.039997,58.3888046 C151.039997,58.3888046 146.773018,71.6430477 137.597899,79.834483 C128.42278,88.0259183 113.83699,106.182337 113.83699,106.182337 C113.83699,106.182337 113.046473,115.98504 108.749787,122.72584 C104.453102,129.465816 97.3665007,141.107968 97.3665007,141.107968 L68.8534098,150.910671 L48.5986685,157.038596 L31.4127524,166.842123" id="Stroke-11" stroke="#D7D7D7" stroke-width="3" stroke-linecap="round" stroke-linejoin="round"></path>
            <path d="M123.449782,584.671141 L123.449782,578.562162 C123.449782,578.562162 126.713348,569.438234 138.465488,566.179453 C150.217628,562.920672 158.052663,558.357885 164.581446,551.188731 C171.110229,544.018754 175.027334,521.859702 175.027334,521.859702 C175.027334,521.859702 180.249866,506.86898 186.125936,491.878258 C192.002006,476.88836 182.861544,465.808011 182.861544,465.808011 L160.664341,433.872616 L139.770915,389.552865 L144.341558,345.233115 L148.911376,306.127743 C148.911376,306.127743 152.840034,288.530655 155.772705,273.539933 C158.705376,258.549211 152.176593,241.603715 150.217628,234.434562 C148.258663,227.264584 146.299698,174.472497 146.299698,174.472497 L139.770915,121.68041 L134.547558,98.2173521 L127.825176,72.7986957 L113.655782,64.3255357 L101.251754,64.3255357 C101.251754,64.3255357 88.1933622,52.5944185 83.6235441,56.5047909 C79.0529007,60.4151633 73.8303692,65.6295424 78.4001874,72.7986958 C82.9708308,79.9678492 90.1523273,85.8338197 90.1523273,85.8338197" id="Stroke-1" stroke="#666666" stroke-width="7" stroke-linecap="round" stroke-linejoin="round"></path>
            <ellipse id="Oval-13" stroke="#96120C" stroke-width="3" fill="#C81E16" cx="92.041958" cy="85.8849057" rx="8.41958042" ry="8.40754717"></ellipse>
            <ellipse id="Oval-13-Copy" stroke="#01346B" stroke-width="3" fill="#004590" cx="124.667832" cy="589.286792" rx="8.41958042" ry="8.40754717"></ellipse>
            <rect id="Rectangle-299" fill="#FFFFFF" x="103.618881" y="90.0886792" width="193.65035" height="16.8150943"></rect>
            <text id="WATERKLOOF-AIRFORCE-" font-family="AvenirNextCondensed-DemiBold, Avenir Next Condensed" font-size="16.8150943" font-style="condensed" font-weight="500" fill="#C81E16">
                <tspan x="106.776224" y="104.986792">WATERKLOOF AIRFORCE BASE</tspan>
            </text>
            <rect id="Rectangle-299" fill="#FFFFFF" x="138.34965" y="582.981132" width="193.65035" height="16.8150943"></rect>
            <text id="OR-THAMBO-INT.-AIRPO" font-family="AvenirNextCondensed-DemiBold, Avenir Next Condensed" font-size="16.8150943" font-style="condensed" font-weight="500" fill="#004590">
                <tspan x="141.506993" y="597.879245">OR THAMBO INT. AIRPORT</tspan>
            </text>
            <rect id="Rectangle-301" fill="#004590" x="155.188811" y="533.586792" width="27.3636364" height="15.7641509"></rect>
            <text id="R21" font-family="AvenirNextCondensed-DemiBold, Avenir Next Condensed" font-size="14.7132075" font-style="condensed" font-weight="500" fill="#FFFFFF">
                <tspan x="158.346154" y="546.568981">R21</tspan>
            </text>
            <rect id="Rectangle-301" fill="#004590" x="129.93007" y="363.333962" width="27.3636364" height="15.7641509"></rect>
            <text id="R21" font-family="AvenirNextCondensed-DemiBold, Avenir Next Condensed" font-size="14.7132075" font-style="condensed" font-weight="500" fill="#FFFFFF">
                <tspan x="133.087413" y="376.316151">R21</tspan>
            </text>
            <rect id="Rectangle-301" fill="#004590" x="130.982517" y="154.196226" width="27.3636364" height="15.7641509"></rect>
            <text id="R21" font-family="AvenirNextCondensed-DemiBold, Avenir Next Condensed" font-size="14.7132075" font-style="condensed" font-weight="500" fill="#FFFFFF">
                <tspan x="134.13986" y="167.178415">R21</tspan>
            </text>
            <rect id="Rectangle-301" fill="#C81E16" x="89.9370629" y="47" width="24.2062937" height="13.9452104" rx="6"></rect>
            <path d="M98.4196399,58.2225741 L98.4438462,51.6478722 L98.4075367,51.6478722 L96.6888899,58.2225741 L95.5511941,58.2225741 L93.8688566,51.6478722 L93.8325472,51.6478722 L93.8567535,58.2225741 L92.5375105,58.2225741 L92.5375105,49.665793 L94.4861171,49.665793 L96.1321451,55.9262628 L96.1805577,55.9262628 L97.7902762,49.665793 L99.835708,49.665793 L99.835708,58.2225741 L98.4196399,58.2225741 Z M103.490858,58.2225741 L103.490858,51.345726 L102.062687,52.4213666 L101.409117,51.2973826 L103.61189,49.665793 L104.906927,49.665793 L104.906927,58.2225741 L103.490858,58.2225741 Z M112.362465,53.9441836 C112.362465,54.4356772 112.328173,54.9432778 112.259588,55.4670005 C112.191003,55.9907233 112.061905,56.4701238 111.872288,56.9052166 C111.682671,57.3403093 111.418421,57.6968383 111.079531,57.9748142 C110.740642,58.2527901 110.304933,58.391776 109.772392,58.391776 C109.23985,58.391776 108.806159,58.2527901 108.471303,57.9748142 C108.136448,57.6968383 107.872199,57.3403093 107.678547,56.9052166 C107.484896,56.4701238 107.35378,55.9907233 107.285195,55.4670005 C107.21661,54.9432778 107.182318,54.4356772 107.182318,53.9441836 C107.182318,53.4526899 107.21661,52.9450893 107.285195,52.4213666 C107.35378,51.8976438 107.484896,51.4182433 107.678547,50.9831505 C107.872199,50.5480578 108.136448,50.1915288 108.471303,49.9135529 C108.806159,49.635577 109.23985,49.4965911 109.772392,49.4965911 C110.304933,49.4965911 110.740642,49.635577 111.079531,49.9135529 C111.418421,50.1915288 111.682671,50.5480578 111.872288,50.9831505 C112.061905,51.4182433 112.191003,51.8976438 112.259588,52.4213666 C112.328173,52.9450893 112.362465,53.4526899 112.362465,53.9441836 L112.362465,53.9441836 Z M110.897984,53.9441836 C110.897984,53.6541217 110.885881,53.3257928 110.861675,52.9591869 C110.837468,52.5925809 110.787039,52.250152 110.710385,51.9318897 C110.633732,51.6136274 110.52077,51.3437128 110.371497,51.1221378 C110.222224,50.9005628 110.022525,50.789777 109.772392,50.789777 C109.522259,50.789777 109.322559,50.9005628 109.173286,51.1221378 C109.024013,51.3437128 108.911051,51.6136274 108.834398,51.9318897 C108.757744,52.250152 108.707315,52.5925809 108.683108,52.9591869 C108.658902,53.3257928 108.646799,53.6541217 108.646799,53.9441836 C108.646799,54.2342454 108.658902,54.5625743 108.683108,54.9291803 C108.707315,55.2957862 108.757744,55.6402294 108.834398,55.9625204 C108.911051,56.2848113 109.024013,56.5547259 109.173286,56.7722722 C109.322559,56.9898186 109.522259,57.0985902 109.772392,57.0985902 C110.022525,57.0985902 110.222224,56.9898186 110.371497,56.7722722 C110.52077,56.5547259 110.633732,56.2848113 110.710385,55.9625204 C110.787039,55.6402294 110.837468,55.2957862 110.861675,54.9291803 C110.885881,54.5625743 110.897984,54.2342454 110.897984,53.9441836 L110.897984,53.9441836 Z" id="M10" fill="#FFFFFF"></path>
            <ellipse id="Oval-20" stroke="#004590" fill="#FFFFFF" cx="129.403846" cy="76.9518868" rx="4.73601399" ry="4.72924528"></ellipse>
            <ellipse id="Oval-20-Copy-4" stroke="#004590" fill="#FFFFFF" cx="140.980769" cy="564.589623" rx="4.73601399" ry="4.72924528"></ellipse>
            <ellipse id="Oval-20-Copy-5" stroke="#004590" fill="#FFFFFF" cx="124.141608" cy="574.048113" rx="4.73601399" ry="4.72924528"></ellipse>
            <ellipse id="Oval-20-Copy" stroke="#004590" fill="#FFFFFF" cx="114.66958" cy="65.3915094" rx="4.73601399" ry="4.72924528"></ellipse>
            <ellipse id="Oval-20-Copy-2" stroke="#004590" fill="#FFFFFF" cx="80.9912587" cy="55.9330189" rx="4.73601399" ry="4.72924528"></ellipse>
            <ellipse id="Oval-20-Copy-3" stroke="#004590" fill="#FFFFFF" cx="76.7814685" cy="69.595283" rx="4.73601399" ry="4.72924528"></ellipse>
        </g>
    </g>
</svg>