<?xml version="1.0" encoding="UTF-8" standalone="no"?>
<svg width="494px" height="717px" viewBox="0 0 494 717" version="1.1" xmlns="http://www.w3.org/2000/svg" xmlns:xlink="http://www.w3.org/1999/xlink">
    <!-- Generator: Sketch 3.6 (26304) - http://www.bohemiancoding.com/sketch -->
    <title>Wonderboom map</title>
    <desc>Created with Sketch.</desc>
    <defs></defs>
    <g id="Page-1" stroke="none" stroke-width="1" fill="none" fill-rule="evenodd">
        <g id="Wonderboom-map">
            <path d="M216,572 C216,572 227.995207,574.586393 227.995207,583.238142 C227.995207,591.889891 223.538245,608.109343 223.538245,608.109343 C223.538245,608.109343 213.183836,614.955331 220.589522,623.477465 C227.995207,631.999599 243.95543,652.905784 243.95543,652.905784 L250.739556,662.246846" id="Path-55-Copy" stroke="#D7D7D7" stroke-width="3" stroke-linecap="round" stroke-linejoin="round"></path>
            <path d="M435.917779,140 C435.917779,140 418.457235,146.989848 408.749633,150.817845 C399.042031,154.645842 379.073274,156.872585 379.073274,156.872585 C379.073274,156.872585 353.956733,161.260396 339.795647,168.459782 C325.634561,175.659168 308.411701,176.494197 301.525059,176.494197 C294.638417,176.494198 240.123861,163.762354 240.123861,163.762354 C240.123861,163.762354 204.189477,154.298695 200.083137,154.298695 C195.976797,154.298695 162.234754,155.133723 157.850071,155.133724 C153.465388,155.133724 135.129157,165.469941 135.129157,165.469941 L125.212018,167.139999 L92.9992972,158.824113 L46,150.545757" id="Path-53" stroke="#D7D7D7" stroke-width="3" stroke-linecap="round" stroke-linejoin="round"></path>
            <path d="M182,359.684612 C182,359.684612 197.587202,355.994222 210.772527,351.612667 C223.957851,347.231112 242.850767,348.063013 242.850767,348.063013 L278.716347,353.179519 L293.918875,353.179519 L303.31373,360.382033 L318.131582,378.646333 L331.17617,388.07559 C331.17617,388.07559 348.327095,391.346902 353.859554,391.346901 C359.392014,391.346901 391.295114,387.450101 391.295114,387.450101 L424.552402,387.762845" id="Path-52" stroke="#BDBBBB" stroke-width="5" stroke-linecap="round" stroke-linejoin="round"></path>
            <path d="M448.118728,353.492943 L399.88751,338.846537 L364.29957,330.456962 L336.02305,328.359568 L302.503045,327.310871 L284.445428,326 L255.479596,333.800419 L243.516792,343.8956 L229,345.96059" id="Path-54" stroke="#D7D7D7" stroke-width="3" stroke-linecap="round" stroke-linejoin="round"></path>
            <path d="M96.7174015,77.5387653 C96.7174015,77.5387653 78.7001711,80.3221946 68.8174327,80.3221945 C58.9346943,80.3221944 67.3193848,68.3909782 67.3193848,68.3909782 L73.3709978,65.8858919 L121.937147,70.6177216 L135.991901,58.1954958 L145.386756,55.9687524 L173.114715,62.8585217 L173.915342,40 L218.13121,40.8350288 L249.821647,42.5050863 L258.938159,42.5050863 L265.236841,49.4949339 L257.443239,74.2987286 L253.824781,121.923516 L258.209464,135.803132 L279.813879,179.14957 C279.813879,179.14957 288.164163,194.946314 281.796681,205.485814 C275.429199,216.025314 264.9929,222.392801 264.9929,222.392801 L244.955337,236.238016 L232.464307,256.729059 L230.343897,351.978633 L237.30247,365.683113 L256.4362,385.720676 L261.446373,412.960753 L260.645746,434.809109 L251.773175,467.856858 L240.364242,513.708381 L220.992826,546.662307 L204.714456,593.242526 L183.597923,621.280103 L170.171786,635.128445 L149.611939,596.688975 L140.082603,585.345719 L114.059104,587.816403 L107.447678,581.517721 L101.183398,571.916454 L85.1114398,571.916454 L77.9777296,575.253442 L75.2287023,583.290985 L71.991793,592.617036 L81.0019724,613.10808 L86.7783699,611.472424 L100.623585,626.499814" id="Path-47" stroke="#666666" stroke-width="7" stroke-linecap="round" stroke-linejoin="round"></path>
            <ellipse id="Oval-20-Copy-9" stroke="#004590" fill="#FFFFFF" cx="171.736014" cy="61.7292453" rx="4.73601399" ry="4.72924528"></ellipse>
            <ellipse id="Oval-20-Copy-14" stroke="#004590" fill="#FFFFFF" cx="82.736014" cy="79.7292453" rx="4.73601399" ry="4.72924528"></ellipse>
            <ellipse id="Oval-20-Copy-15" stroke="#004590" fill="#FFFFFF" cx="66.736014" cy="78.7292453" rx="4.73601399" ry="4.72924528"></ellipse>
            <ellipse id="Oval-20-Copy-13" stroke="#004590" fill="#FFFFFF" cx="245.736014" cy="41.7292453" rx="4.73601399" ry="4.72924528"></ellipse>
            <ellipse id="Oval-20-Copy-16" stroke="#004590" fill="#FFFFFF" cx="182.736014" cy="619.729245" rx="4.73601399" ry="4.72924528"></ellipse>
            <ellipse id="Oval-20-Copy-17" stroke="#004590" fill="#FFFFFF" cx="150.736014" cy="597.729245" rx="4.73601399" ry="4.72924528"></ellipse>
            <ellipse id="Oval-20-Copy-18" stroke="#004590" fill="#FFFFFF" cx="140.736014" cy="586.729245" rx="4.73601399" ry="4.72924528"></ellipse>
            <ellipse id="Oval-20-Copy-19" stroke="#004590" fill="#FFFFFF" cx="74.736014" cy="580.729245" rx="4.73601399" ry="4.72924528"></ellipse>
            <ellipse id="Oval-20-Copy-20" stroke="#004590" fill="#FFFFFF" cx="72.736014" cy="591.729245" rx="4.73601399" ry="4.72924528"></ellipse>
            <ellipse id="Oval-20-Copy-21" stroke="#004590" fill="#FFFFFF" cx="89.736014" cy="609.729245" rx="4.73601399" ry="4.72924528"></ellipse>
            <ellipse id="Oval-20-Copy-22" stroke="#004590" fill="#FFFFFF" cx="79.736014" cy="614.729245" rx="4.73601399" ry="4.72924528"></ellipse>
            <polygon id="Polygon-1" fill="#004590" points="258 60 269.412678 68.2917961 265.053423 81.7082039 250.946577 81.7082039 246.587322 68.2917961 "></polygon>
            <text id="N1" font-family="AvenirNextCondensed-DemiBold, Avenir Next Condensed" font-size="14.7132075" font-style="condensed" font-weight="500" fill="#FFFFFF">
                <tspan x="249.850098" y="78">N1</tspan>
            </text>
            <polygon id="Polygon-1" fill="#004590" points="250 465 261.412678 473.291796 257.053423 486.708204 242.946577 486.708204 238.587322 473.291796 "></polygon>
            <text id="N1" font-family="AvenirNextCondensed-DemiBold, Avenir Next Condensed" font-size="14.7132075" font-style="condensed" font-weight="500" fill="#FFFFFF">
                <tspan x="241.850098" y="483">N1</tspan>
            </text>
            <rect id="Rectangle-301" fill="#C81E16" x="82" y="563" width="24.2062937" height="13.9452104" rx="6"></rect>
            <path d="M90.4825769,574.222574 L90.5067832,567.647872 L90.4704738,567.647872 L88.7518269,574.222574 L87.6141311,574.222574 L85.9317937,567.647872 L85.8954843,567.647872 L85.9196906,574.222574 L84.6004476,574.222574 L84.6004476,565.665793 L86.5490542,565.665793 L88.1950822,571.926263 L88.2434948,571.926263 L89.8532133,565.665793 L91.8986451,565.665793 L91.8986451,574.222574 L90.4825769,574.222574 Z M95.5537955,574.222574 L95.5537955,567.345726 L94.1256241,568.421367 L93.4720542,567.297383 L95.6748269,565.665793 L96.9698636,565.665793 L96.9698636,574.222574 L95.5537955,574.222574 Z M104.425402,569.944184 C104.425402,570.435677 104.39111,570.943278 104.322525,571.467001 C104.253941,571.990723 104.124842,572.470124 103.935225,572.905217 C103.745608,573.340309 103.481358,573.696838 103.142469,573.974814 C102.803579,574.25279 102.36787,574.391776 101.835329,574.391776 C101.302788,574.391776 100.869096,574.25279 100.53424,573.974814 C100.199385,573.696838 99.9351356,573.340309 99.7414843,572.905217 C99.5478329,572.470124 99.4167168,571.990723 99.348132,571.467001 C99.2795472,570.943278 99.2452552,570.435677 99.2452552,569.944184 C99.2452552,569.45269 99.2795472,568.945089 99.348132,568.421367 C99.4167168,567.897644 99.5478329,567.418243 99.7414843,566.983151 C99.9351356,566.548058 100.199385,566.191529 100.53424,565.913553 C100.869096,565.635577 101.302788,565.496591 101.835329,565.496591 C102.36787,565.496591 102.803579,565.635577 103.142469,565.913553 C103.481358,566.191529 103.745608,566.548058 103.935225,566.983151 C104.124842,567.418243 104.253941,567.897644 104.322525,568.421367 C104.39111,568.945089 104.425402,569.45269 104.425402,569.944184 L104.425402,569.944184 Z M102.960921,569.944184 C102.960921,569.654122 102.948818,569.325793 102.924612,568.959187 C102.900405,568.592581 102.849976,568.250152 102.773323,567.93189 C102.696669,567.613627 102.583707,567.343713 102.434434,567.122138 C102.285162,566.900563 102.085462,566.789777 101.835329,566.789777 C101.585196,566.789777 101.385496,566.900563 101.236223,567.122138 C101.08695,567.343713 100.973988,567.613627 100.897335,567.93189 C100.820681,568.250152 100.770252,568.592581 100.746045,568.959187 C100.721839,569.325793 100.709736,569.654122 100.709736,569.944184 C100.709736,570.234245 100.721839,570.562574 100.746045,570.92918 C100.770252,571.295786 100.820681,571.640229 100.897335,571.96252 C100.973988,572.284811 101.08695,572.554726 101.236223,572.772272 C101.385496,572.989819 101.585196,573.09859 101.835329,573.09859 C102.085462,573.09859 102.285162,572.989819 102.434434,572.772272 C102.583707,572.554726 102.696669,572.284811 102.773323,571.96252 C102.849976,571.640229 102.900405,571.295786 102.924612,570.92918 C102.948818,570.562574 102.960921,570.234245 102.960921,569.944184 L102.960921,569.944184 Z" id="M10" fill="#FFFFFF"></path>
            <rect id="Rectangle-301" fill="#004590" x="159" y="634.101887" width="27.3636364" height="15.7641509"></rect>
            <text id="R21" font-family="AvenirNextCondensed-DemiBold, Avenir Next Condensed" font-size="14.7132075" font-style="condensed" font-weight="500" fill="#FFFFFF">
                <tspan x="162.157343" y="647.084075">R21</tspan>
            </text>
            <rect id="Rectangle-301" fill="#004590" x="215" y="626.101887" width="27.3636364" height="15.7641509"></rect>
            <text id="R50" font-family="AvenirNextCondensed-DemiBold, Avenir Next Condensed" font-size="14.7132075" font-style="condensed" font-weight="500" fill="#FFFFFF">
                <tspan x="218.157343" y="639.084075">R50</tspan>
            </text>
            <polygon id="Polygon-1" fill="#004590" points="391 376 402.412678 384.291796 398.053423 397.708204 383.946577 397.708204 379.587322 384.291796 "></polygon>
            <text id="N4" font-family="AvenirNextCondensed-DemiBold, Avenir Next Condensed" font-size="14.7132075" font-style="condensed" font-weight="500" fill="#FFFFFF">
                <tspan x="382.850098" y="394">N4</tspan>
            </text>
            <rect id="Rectangle-301" fill="#004590" x="346" y="153.101887" width="34.1599998" height="15.7641509"></rect>
            <text id="R513" font-family="AvenirNextCondensed-DemiBold, Avenir Next Condensed" font-size="14.7132075" font-style="condensed" font-weight="500" fill="#FFFFFF">
                <tspan x="349.157343" y="166.084075">R513</tspan>
            </text>
            <rect id="Rectangle-301" fill="#004590" x="87" y="153.101887" width="34.1599998" height="15.7641509"></rect>
            <text id="R513" font-family="AvenirNextCondensed-DemiBold, Avenir Next Condensed" font-size="14.7132075" font-style="condensed" font-weight="500" fill="#FFFFFF">
                <tspan x="90.1573427" y="166.084075">R513</tspan>
            </text>
            <ellipse id="Oval-13-Copy-3" stroke="#96120C" stroke-width="3" fill="#C81E16" cx="108.41958" cy="628.407547" rx="8.41958042" ry="8.40754717"></ellipse>
            <ellipse id="Oval-13-Copy-2" stroke="#01346B" stroke-width="3" fill="#004590" cx="102.41958" cy="78.4075472" rx="8.41958042" ry="8.40754717"></ellipse>
            <rect id="Rectangle-301" fill="#004590" x="311" y="319.101887" width="34.1599998" height="15.7641509"></rect>
            <text id="R104" font-family="AvenirNextCondensed-DemiBold, Avenir Next Condensed" font-size="14.7132075" font-style="condensed" font-weight="500" fill="#FFFFFF">
                <tspan x="314.157343" y="332.084075">R104</tspan>
            </text>
            <rect id="Rectangle-299" fill="#FFFFFF" x="52.6573427" y="643.101887" width="99" height="36"></rect>
            <text id="WATERKLOOF" font-family="AvenirNextCondensed-DemiBold, Avenir Next Condensed" font-size="16.8150943" font-style="condensed" font-weight="500" line-spacing="18" fill="#C81E16">
                <tspan x="58.6603313" y="658">WATERKLOOF</tspan>
                <tspan x="52.6573427" y="676">AIRFORCE BASE</tspan>
            </text>
            <rect id="Rectangle-299" fill="#FFFFFF" x="70" y="92.1018868" width="100" height="36.4941975"></rect>
            <text id="WONDERBOOM" font-family="AvenirNextCondensed-DemiBold, Avenir Next Condensed" font-size="16.8150943" font-style="condensed" font-weight="500" line-spacing="16" fill="#004590">
                <tspan x="71" y="108">WONDERBOOM</tspan>
                <tspan x="93.2715925" y="124">AIRPORT</tspan>
            </text>
        </g>
    </g>
</svg>